<?xml version="1.0" encoding="UTF-8"?>
<svg width="620px" height="315px" viewBox="0 0 620 315" version="1.1" xmlns="http://www.w3.org/2000/svg" xmlns:xlink="http://www.w3.org/1999/xlink">
    <!-- Generator: Sketch 40.1 (33804) - http://www.bohemiancoding.com/sketch -->
    <title>Group 5</title>
    <desc>Created with Sketch.</desc>
    <defs>
        <path d="M0.18742284,7.99777023 L10.19905,0.893024848 C10.19905,0.893024848 12.2472361,2.90582883 15.879061,3.04317146 C19.510985,3.18061334 29.7336979,1.49330347 29.7336979,1.49330347 L20.2575408,13.6838122 L1.30088586,13.6838122 L1.55908476,13.3854491 L0.18742284,13.5111369 L0.18742284,7.99777023 L0.18742284,7.99777023 Z" id="path-1"></path>
        <path d="M33.4901712,10.598784 L17.8046747,0.418577487 C17.8046747,0.418577487 17.3046825,3.75221275 13.3522685,5.58073546 C9.40084451,7.40925817 0.493061671,6.66052247 0.493061671,6.66052247 L14.3787665,19.3375257 L19.7306442,19.3375257 L19.6957346,18.455913 L22.4472412,19.3375257 L33.4901712,19.3375257 L33.4901712,18.6573222 L29.5470671,13.1539315 L33.4901712,13.2022131 L33.4901712,10.598784 L33.4901712,10.598784 Z" id="path-3"></path>
        <path d="M18.7789404,0.940757369 L30.2183439,15.4996723 L0.433458633,9.18627738 C0.433458633,9.18627738 4.77022315,6.52774469 8.08413222,2.34097746 C8.44659929,1.88312677 8.77851047,1.41390835 9.08228629,0.940757369 L18.7789404,0.940757369 L18.7789404,0.940757369 Z" id="path-5"></path>
    </defs>
    <g id="Page-1" stroke="none" stroke-width="1" fill="none" fill-rule="evenodd">
        <g id="03-404" transform="translate(-490.000000, -411.000000)">
            <g id="Group-5" transform="translate(490.000000, 389.000000)">
                <path d="M6.00078083,303.003568 C20.8921428,325.764339 72.8055169,340.302699 137.598062,335.067733 C199.518291,330.064838 217.240692,320.292759 298.57333,321.325948 C423.289034,322.910242 453.914463,343.247367 538.828916,335.067733 C650.394911,324.320811 640.365492,262.665333 548.889871,242.474277 C459.951035,222.843156 396.768243,263.741325 294.548948,247.054872 C192.329653,230.368419 134.717782,224.16189 76.8298986,233.313087 C18.8788022,242.474277 -14.3211969,271.942348 6.00078083,303.003568 Z" id="Line" fill="#F4F5F7"></path>
                <g id="Group-3" transform="translate(364.282511, 221.511236)">
                    <ellipse id="Oval-2" fill="#3A385A" cx="8.98878924" cy="53.4845506" rx="4.25784753" ry="4.25983146"></ellipse>
                    <polyline id="Line" stroke="#3A385A" stroke-linecap="square" points="13.2466368 53.011236 16.558296 52.0646067 18.4506726 53.9578652"></polyline>
                    <polyline id="Line-Copy-6" stroke="#3A385A" stroke-linecap="square" transform="translate(14.102236, 50.303385) rotate(-27.000000) translate(-14.102236, -50.303385) " points="11.5002176 50.3033845 14.8118768 49.3567553 16.7042535 51.2500137"></polyline>
                    <polyline id="Line-Copy-4" stroke="#3A385A" stroke-linecap="square" points="5.20403587 52.0646067 1.89237668 51.1179775 0 53.011236"></polyline>
                    <polyline id="Line-Copy-7" stroke="#3A385A" stroke-linecap="square" transform="translate(3.798753, 49.174616) rotate(20.000000) translate(-3.798753, -49.174616) " points="6.6239659 50.0334062 3.53711494 48.3158256 0.973539621 49.7530163"></polyline>
                    <polyline id="Line-Copy-3" stroke="#3A385A" stroke-linecap="square" transform="translate(15.048424, 55.983160) rotate(27.000000) translate(-15.048424, -55.983160) " points="12.446406 55.9831598 15.7580652 55.0365306 17.6504418 56.929789"></polyline>
                    <polyline id="Line-Copy-5" stroke="#3A385A" stroke-linecap="square" points="5.15345774 53.9578652 1.89237668 53.9578652 0.47309417 56.7977528"></polyline>
                    <path d="M8.98878924,0.473314607 L8.98878924,55.7762326" id="Line" stroke="#3A385A" stroke-linecap="round" stroke-linejoin="round" stroke-dasharray="1,3"></path>
                </g>
                <g id="Page-1" transform="translate(64.340807, 92.769663)">
                    <path d="M54.4857898,182.806424 C54.4857898,182.806424 44.2630769,184.493734 40.6311529,184.356292 C36.999328,184.218949 34.9511419,182.206145 34.9511419,182.206145 L16.0184648,195.641708 L26.3111767,194.698569 L18.0235823,204.27534 L35.0821299,198.725964 L37.1329893,205.129763 L54.4857898,182.806424 Z" id="Fill-1" fill="#FFC000"></path>
                    <g id="Group-4" transform="translate(24.752092, 181.313120)">
                        <mask id="mask-2" fill="white">
                            <use xlink:href="#path-1"></use>
                        </mask>
                        <g id="Clip-3"></g>
                        <path d="M0.18742284,1.78813365 C2.03808725,4.16096587 6.05525276,8.48100707 9.0658992,9.91298268 C11.1174516,10.8888696 13.8426569,10.3646058 16.0144054,11.0034872 C18.0629876,11.6060482 19.8589994,12.8859943 21.8629287,13.3819759 C26.0778139,14.425244 34.7152049,12.6585454 37.8261468,9.70647255 C38.8176166,8.76561594 39.5756247,6.03533562 39.7849284,4.55632213 C40.4563041,-0.188846126 33.8928414,-3.01171365 30.6127932,-4.15153845 C23.4655772,-6.63511806 14.5692793,-6.51623332 7.81176021,-2.85680624 C5.83852344,-1.78813365 4.00865079,-0.123151888 2.07749258,0.833185534" id="Fill-2" fill="#DFA700" mask="url(#mask-2)"></path>
                    </g>
                    <path d="M137.124609,185.988923 C137.124609,185.988923 146.032392,186.737658 149.983816,184.909136 C153.93623,183.080613 154.436222,179.746978 154.436222,179.746978 L174.210173,192.580675 L166.178614,192.482332 L174.044829,203.461208 L156.327282,197.784313 L156.562922,203.735199 L137.124609,185.988923 Z" id="Fill-5" fill="#FFC000"></path>
                    <path d="M117.649663,35.7745814 C136.884019,35.7458029 141.445334,41.8607258 156.617376,56.4414727 C167.571662,66.9674362 178.675451,71.6900779 191.223771,70.1509274 C183.560523,85.1484655 166.606331,87.269139 154.633249,82.2299344 C146.569017,78.8360629 143.112635,82.1416144 143.112635,82.1416144" id="Stroke-10" fill="#3A385A"></path>
                    <path d="M24.4178397,88.1037138 C24.4178397,88.1037138 11.2308162,127.271472 16.2960843,153.854913 C24.5009077,139.632607 42.288553,111.931371 42.288553,111.931371 L35.4820628,96.5561798" id="Stroke-11" fill="#3A385A"></path>
                    <path d="M6.85335921,22.5632914 C5.11734649,19.2418622 4.24181549,13.1924351 5.92941312,8.58788425 C6.28346704,10.0099363 7.79661193,10.6648939 7.79661193,10.6648939 C7.79661193,10.6648939 7.26642212,5.43813331 9.92766803,1.12632871 C11.2227965,5.18111205 13.1062327,10.7234432 13.1062327,10.7234432 C13.1062327,10.7234432 13.335239,8.047048 14.9142245,6.14270898 C15.1313498,8.58887661 16.0282666,10.1984847 17.4139877,11.2503864" id="Stroke-18" stroke="#504A7F" stroke-linecap="round" stroke-linejoin="round" fill="#FFFFFF"></path>
                    <g id="Group-8" transform="translate(136.631547, 179.328400)">
                        <mask id="mask-4" fill="white">
                            <use xlink:href="#path-3"></use>
                        </mask>
                        <g id="Clip-7"></g>
                        <path d="M-2.55837622,19.3375257 C-1.38512706,18.6630186 2.80391697,15.4001386 4.59002792,15.3166811 C6.71474749,15.2174451 8.64541066,16.3426822 10.8592378,16.1095768 C12.0295167,15.9862265 12.8601969,14.7552038 13.72553,14.0985591 C14.7799691,13.2987168 17.6007175,13.1976946 18.9353503,12.7261251 C23.4342905,11.1367611 33.0321617,6.65903393 33.4668084,1.41877723 C34.2816473,-8.41481665 13.5492951,-9.01926318 7.65235673,-7.47455546 C0.0475240165,-5.48288875 -2.58015806,1.70666089 -2.84649057,8.95515672 C-2.89995509,10.4324832 -2.177194,11.8376651 -2.177194,13.289091" id="Fill-6" fill="#DFA700" mask="url(#mask-4)"></path>
                    </g>
                    <path d="M80.4862782,13.4018231 C64.7357301,2.01151391 57.279905,-2.59899108 33.4682935,3.68761011 C12.1628809,9.31131476 -2.4764963,28.6206575 1.51403596,51.966921 C4.63596781,70.2323009 16.6541975,77.6621009 32.6551378,97.6273936 C49.9308109,119.183142 40.3847211,110.757905 35.0558927,143.387499 C29.1532119,179.530842 28.9688583,187.964215 52.0472137,183.250406 C80.0286616,177.535007 113.159634,182.798882 127.747526,184.932655 C148.527403,187.971857 158.878728,186.326722 153.46693,168.080991 C145.602696,141.564534 155.24215,119.50556 142.676008,81.1284147 C136.394917,61.943117 124.205007,37.3573957 109.838893,29.8670617 C101.298431,25.414342 96.5096934,24.9906042 80.4862782,13.4018231 L80.4862782,13.4018231 Z" id="Stroke-9" stroke="#FFFFFF" stroke-linecap="round" stroke-linejoin="round" fill="#3A385A"></path>
                    <path d="M60.0954059,38.0163228 C62.27359,39.0563162 63.4249583,41.979809 62.3857665,44.4120836 C61.3465747,46.8443582 59.1272031,48.0729 57.69475,48.2852651" id="Stroke-13" fill="#FFFFFF"></path>
                    <path d="M43.7016994,65.9145421 C44.2983238,67.6313251 43.2136872,70.483368 40.7552104,71.447942 C38.2966346,72.4115237 35.4665794,70.9130599 34.3109538,70.0377983" id="Stroke-14" fill="#FFFFFF"></path>
                    <path d="M60.6071802,26.3918167 C61.0378666,41.5997351 57.5863359,50.4049462 53.3778862,56.1497188 C48.0412362,63.4336419 39.6193864,70.359323 25.0803046,71.8091611" id="Stroke-12" stroke="#FFFFFF" stroke-linecap="round" stroke-linejoin="round"></path>
                    <path d="M60.7169805,43.7372788 C60.5594581,44.0002542 60.3876786,44.2562831 60.2444135,44.5271974 C60.1056038,44.7901728 60.8845026,44.6849826 60.9271752,44.6849826 C61.0476684,44.6849826 61.8128051,44.7068146 61.8724081,44.5271974 C62.0181484,44.0875819 61.9903271,43.2857549 61.4523156,43.1061377 C60.7965832,42.8868262 59.8505582,43.7898738 60.1918401,44.4746023 C60.3499564,44.7921575 60.9271752,44.6651354 60.9271752,44.3694121" id="Stroke-15" stroke="#000000" stroke-linecap="round" stroke-linejoin="round"></path>
                    <path d="M41.2663906,69.224063 C41.1088683,69.4870385 40.9370888,69.7430674 40.7938237,70.0139817 C40.6550139,70.2769571 41.4339128,70.1717669 41.4765854,70.1717669 C41.5970785,70.1717669 42.3622152,70.1935988 42.4218182,70.0139817 C42.5675586,69.5743661 42.5397372,68.7725392 42.0017257,68.592922 C41.3459933,68.3736104 40.3999684,69.2766581 40.7412502,69.9613866 C40.8993666,70.2789418 41.4765854,70.1519197 41.4765854,69.8561964" id="Stroke-16" stroke="#000000" stroke-linecap="round" stroke-linejoin="round"></path>
                    <path d="M67.845979,72.2646544 C61.338951,79.3094187 51.5781121,80.9458205 43.885558,84.6542701 C36.5442855,88.1930262 34.7900553,93.759174 42.7480508,103.529951 C50.8504996,113.477071 47.8328236,114.577896 43.6407103,134.984988 C37.2034832,166.321536 51.9749376,174.387538 68.024095,172.236102 C77.4458303,170.973125 98.7951036,171.755006 109.872556,174.102433 C122.22286,176.719783 127.66634,178.593161 133.360311,168.974611 C136.731546,163.279159 134.247426,150.748429 132.958337,137.499231 C129.491064,101.874695 122.855523,80.4466633 111.92797,64.6671455 C100.999426,48.8866353 89.2076283,46.4196281 82.2400135,50.8415847 C75.5457607,55.0908706 76.117336,60.7790786 72.5334311,65.0501965" id="Stroke-17" fill="#FFFFFF"></path>
                    <path d="M61.7209253,51.8418836 L79.7225277,74.7525011 L49.9376424,68.4391062 C49.9376424,68.4391062 54.274407,65.7805735 57.588316,61.5938063 C61.0403418,57.233376 61.7209253,51.8418836 61.7209253,51.8418836 L61.7209253,51.8418836 Z" id="Fill-19" fill="#FFC000"></path>
                    <g id="Group-22" transform="translate(49.504184, 59.252829)">
                        <mask id="mask-6" fill="white">
                            <use xlink:href="#path-5"></use>
                        </mask>
                        <g id="Clip-21"></g>
                        <path d="M5.73387159,0.940757369 C8.24719901,3.4514284 9.37074596,3.19440714 11.9584287,4.7047792 C13.618997,5.67431501 15.2619419,6.74705627 17.0602308,7.51216591 C17.5928959,7.73842401 18.2318959,7.69575252 18.741888,7.95972031 C19.2801965,8.23658877 19.6004885,8.80421875 20.1362228,9.11978926 C21.4717467,9.90573845 22.9600405,10.6986342 24.3477417,11.3575613 C26.2091981,12.2417541 27.6818485,13.5050285 29.4539003,14.5152511 C30.2323041,14.958836 31.1521908,15.1136442 31.9078227,15.5413514 C31.9331688,15.5562368 33.6534392,17.0824866 33.5308668,17.1737838 C31.9749503,18.3288909 27.321359,17.3702711 25.1215911,17.5101938 C22.0640147,17.7056888 18.9708943,17.2273712 15.9113377,17.1846997 C14.5628438,17.1668373 12.7215852,17.5092015 11.3895266,17.0983644 C9.5901485,16.5426428 8.01047,15.3250169 6.25178437,14.6601357 C4.77398547,14.1014369 1.69967665,13.3015947 0.572367373,12.3390054 C0.0845531459,11.9222142 -0.134156338,11.2464169 -0.534447168,10.7452751 C-1.01721197,10.1409278 -1.65363776,9.38772648 -2.04333469,8.71986814 C-3.59529085,6.05935073 1.11186397,5.60683453 2.28283593,4.81691589 C2.93530107,4.37730037 3.11262506,3.11303361 3.8975634,2.954256" id="Fill-20" fill="#DFA700" mask="url(#mask-6)"></path>
                    </g>
                </g>
                <path d="M219.628042,165.886093 L263.372529,81.2194775 L232.301679,81.2194775 L185.899817,169.158233 L185.899817,192.063211 L253.969508,192.063211 L253.969508,224.37559 L284.018291,224.37559 L284.018291,192.063211 L303.846399,192.063211 L303.846399,165.886093 L284.018291,165.886093 L284.018291,134.391748 L253.969508,134.391748 L253.969508,165.886093 L219.628042,165.886093 Z M378.866149,80.1969339 C338.392278,80.1969339 316.315622,105.965034 316.315622,152.593025 C316.315622,199.425525 338.392278,225.398134 378.866149,225.398134 C418.931192,225.398134 441.212262,199.425525 441.212262,152.593025 C441.212262,105.965034 418.931192,80.1969339 378.866149,80.1969339 L378.866149,80.1969339 Z M378.866149,104.942491 C398.898671,104.942491 408.097277,119.053593 408.097277,152.593025 C408.097277,186.336966 398.898671,200.652577 378.866149,200.652577 C358.629214,200.652577 349.430607,186.336966 349.430607,152.593025 C349.430607,119.053593 358.629214,104.942491 378.866149,104.942491 L378.866149,104.942491 Z M489.658259,165.886093 L533.402745,81.2194775 L502.331895,81.2194775 L455.930033,169.158233 L455.930033,192.063211 L523.999725,192.063211 L523.999725,224.37559 L554.048507,224.37559 L554.048507,192.063211 L573.876615,192.063211 L573.876615,165.886093 L554.048507,165.886093 L554.048507,134.391748 L523.999725,134.391748 L523.999725,165.886093 L489.658259,165.886093 Z" id="404" fill="#FF7C00" transform="translate(379.888216, 152.797534) rotate(-333.000000) translate(-379.888216, -152.797534) "></path>
            </g>
        </g>
    </g>
</svg>