<?xml version="1.0" encoding="UTF-8"?>
<svg width="1600px" height="600px" viewBox="0 0 1600 600" version="1.1" xmlns="http://www.w3.org/2000/svg" xmlns:xlink="http://www.w3.org/1999/xlink">
    <!-- Generator: Sketch 40.1 (33804) - http://www.bohemiancoding.com/sketch -->
    <title>Artboard</title>
    <desc>Created with Sketch.</desc>
    <defs></defs>
    <g id="Page-1" stroke="none" stroke-width="1" fill="none" fill-rule="evenodd">
        <g id="Artboard" fill="#FFFFFF">
            <path d="M0,362.973 C8.29557246,353.059058 20.4409388,345.802173 28.2679455,336.084015 C41.6302484,319.493008 52.7270993,306.624032 71.5051355,295.357896 C78.9160937,289.102518 84.2837221,284.574764 88.965075,279.566158 C90.656819,277.756778 94.1446959,274.250969 95.6169007,276.244299 C98.1803449,279.715685 97.8521121,284.096063 102.26765,287.341545 C109.204662,292.441588 118.595348,296.180831 124.717697,302.300667 C149.471829,327.045719 137.939559,348.303249 184.041737,348.303249 C188.525074,348.303249 194.716297,349.31121 199.011304,347.470633 C202.56698,345.946321 207.724001,329.800667 218.132747,324.201485 C229.186121,318.255917 240.913179,316.71547 251.3908,309.239136 C263.155523,300.843051 267.143821,287.917062 281.324553,280.981821 C290.198676,276.643396 301.55015,274.978163 310.027165,269.892105 C323.867827,261.588533 326.07721,249.500538 343.683402,247.73849 C345.927222,247.513662 350.509567,245.746235 352.829796,246.905874 C366.7092,253.842191 374.906411,270.490211 383.592204,282.643826 C400.042585,305.660177 424.844069,313.954067 445.955356,330.850581 C449.498118,333.685134 462.814684,353.142965 464.243842,357.445891 C465.322167,360.689222 465.659009,367.311425 467.572445,370.204067 C473.603319,379.327346 489.72762,392.126399 499.16781,397.62769 C508.676875,403.169858 520.811803,402.631993 529.098335,407.602948 C540.895344,414.681261 552.183324,423.119299 564.855261,427.550237 C572.598327,430.257853 581.881395,426.060349 589.43613,429.075624 C598.539478,432.710521 603.466199,439.706003 611.415889,445.002905 C626.9526,455.353593 639.410379,456.8338 657.976517,455.806476 C660.803623,455.64942 677.46063,449.700624 682.67146,449.700624 C691.742523,449.700624 702.377265,451.454067 711.772256,453.023559 C742.965132,458.233327 773.954612,467.981605 806.559427,467.981605 C828.32718,467.981605 852.411933,457.858972 873.90849,462.166201 C895.397514,466.471278 915.795298,472.563146 937.679277,475.75269 C958.011415,478.71633 980.134305,468.574334 1000.03813,474.09176 C1017.67337,478.979884 1036.57528,474.749032 1054.91649,476.585306 C1069.62778,478.057982 1083.14451,480.851657 1098.12484,480.851657 C1107.29384,480.851657 1118.02328,472.598645 1126.41743,469.103593 C1132.76685,466.460521 1142.36632,466.691803 1148.03775,463.288189 C1169.9594,450.131993 1187.49025,428.236554 1208.73391,413.419428 C1220.47496,405.228809 1239.89988,401.405659 1246.81968,387.564222 C1247.8528,385.51065 1255.54744,360.309488 1257.29084,358.567879 C1265.36214,350.49559 1287.41292,346.343266 1301.11261,339.160607 C1309.5498,334.736124 1321.58142,333.752905 1329.38367,327.52442 C1338.854,319.9588 1347.65709,309.518826 1355.98667,300.92911 C1362.54057,294.168137 1373.51753,290.357896 1380.93236,284.304755 C1390.35964,276.596063 1394.45986,268.400065 1405.87805,262.696537 C1412.17367,259.548946 1413.87402,276.131347 1421.12743,277.949334 C1436.78575,281.870375 1463.3457,272.245805 1476.00149,264.652216 C1482.23253,260.917277 1490.3684,263.917492 1496.79316,259.66405 C1510.66503,250.483757 1541.16377,207.486769 1554.16394,203.147268 C1563.63426,199.986769 1576.6452,193.961597 1583.26366,185.6946 C1592.17437,174.565082 1592.76812,158.046041 1600,146 C1600,166.5 1600,0 1600,0 L0,0 L0,362.973 Z" id="Fill-7-Copy"></path>
        </g>
    </g>
</svg>