<?xml version="1.0" encoding="UTF-8" standalone="no"?>
<svg width="320px" height="300px" viewBox="0 0 320 300" version="1.1" xmlns="http://www.w3.org/2000/svg" xmlns:xlink="http://www.w3.org/1999/xlink">
    <!-- Generator: Sketch 39.1 (31720) - http://www.bohemiancoding.com/sketch -->
    <title>circle-penguin</title>
    <desc>Created with Sketch.</desc>
    <defs>
        <path d="M13.7140887,0.377037118 C13.5820702,0.294665185 13.5113534,0.250507614 13.5113534,0.250507614 C13.5113534,0.250507614 6.64944361,4.42598985 0.884030075,7.69964467 C4.81625564,13.965533 12.7212782,23.7470558 12.7212782,23.7470558 C12.7212782,23.7470558 13.0917891,23.2825425 13.7140887,22.4533605 L13.7140887,0.377037118 L13.7140887,0.377037118 Z" id="path-1"></path>
        <path d="M30.9515966,3.67370558 C27.4140045,19.7443073 22.8972175,47.1214581 23.0517023,58.0790457 C23.2465519,71.907066 24.8049218,87.8799645 25.3349128,101.01797 C25.8649038,114.155868 34.0068421,146.173406 17.3210947,147.096873 C13.2121971,147.324252 4.90384613,148.151955 0.330827068,148.673711 L4.33082707,0.673705584 L28.3308271,2.17370558 L30.9515966,3.67370558 Z" id="path-3"></path>
        <path d="M13.0070347,0.207868021 C17.1110349,3.29044998 20.6643054,6.20059339 22.5125407,7.74261307 L22.5125407,8.65525752 L0.644658647,4.93340102 L1.51264976,0.20786802 L13.0070347,0.20786802 L13.0070347,0.207868021 Z" id="path-5"></path>
        <path d="M9.95983803,0.462732891 C6.34929384,15.5285645 0.72930477,46.2075273 0.901326316,58.4089949 C1.09617594,72.2370152 2.65454586,88.2099137 3.18453684,101.347919 C3.59751128,111.586325 8.63338647,133.290518 2.93897293,142.809061 C6.72151128,145.951386 13.1761053,146.041569 26.1333383,147.068863 C52.8570977,149.187624 59.3901654,144.676782 78.9018195,145.172041 C87.7890977,145.397711 92.145188,142.635731 94.5976241,137.222954 C87.484812,125.245279 80.2833835,81.917269 86.6178647,56.2064467 C80.0677143,53.6343198 75.3176541,50.1800863 74.6503609,45.8173096 C79.7602256,45.5284264 84.2978195,44.6393909 88.482015,43.2919797 C89.6445151,27.9451658 90.5668816,11.9448542 90.8371631,0.462732891 L9.95983803,0.462732891 L9.95983803,0.462732891 Z" id="path-7"></path>
        <path d="M6.42130289,0.565355271 C3.48965718,2.8846593 1.08392391,5.2472669 0.478315789,7.1080203 C8.90756391,6.83299492 12.5696692,5.29050761 20.2280602,7.07177665 L20.1869399,0.565355272 L6.42130289,0.565355272 L6.42130289,0.565355271 Z" id="path-9"></path>
        <path d="M16.7521375,2.23134828 C16.3098724,11.84257 15.6126139,22.8735563 14.8000301,33.5703553 C10.6190376,34.9156345 6.08571429,35.8036041 0.98118797,36.0914213 C1.64634586,40.4414061 6.37078195,43.8881777 12.8910376,46.4579594 C6.38893233,73.3926447 9.44566917,121.187685 16.8221955,130.553152 C18.9300219,133.229465 20.7319414,135.075216 22.6774489,136.381118 L56.5112783,136.381114 L54.2283679,2.23134828 L16.8221952,0.277766497 L16.7521375,2.23134828 Z" id="path-11"></path>
    </defs>
    <g id="Page-1" stroke="none" stroke-width="1" fill="none" fill-rule="evenodd">
        <g id="circle-penguin" transform="translate(20.000000, 44.000000)">
            <path d="M131.139669,44.4421827 C136.905083,41.1685279 143.766992,36.9930457 143.766992,36.9930457 C143.766992,36.9930457 149.279368,40.4351269 153.824436,43.2290863 C149.549489,52.2494924 142.976917,60.4895939 142.976917,60.4895939 C142.976917,60.4895939 135.071895,50.7080711 131.139669,44.4421827 L131.139669,44.4421827 Z" id="Fill-1" fill="#FFC000"></path>
            <g id="Group-4" transform="translate(130.255639, 36.742538)">
                <mask id="mask-2" fill="white">
                    <use xlink:href="#path-1"></use>
                </mask>
                <g id="Clip-3"></g>
                <path d="M-0.288270677,6.00898477 C3.08663158,3.41969543 6.59499248,1.59045685 10.2827218,-0.456243655 C11.0386316,-0.875177665 12.1810376,-1.12888325 12.9849925,-1.36659898 C12.9967368,-1.36979695 13.2860752,-1.54461929 13.3618797,-1.46467005 C13.5839549,-1.22588832 13.3960451,-0.164162437 13.4195338,0.132182741 C13.5476541,1.79619289 13.6789774,3.19370558 13.7035338,4.92167513 C13.7729323,9.84015228 13.483594,14.7724873 13.3181053,19.6930964 C13.2882105,20.5959898 13.5273684,24.4122335 13.1355338,25.1328426 C12.366812,26.5452792 8.49651128,27.9726396 7.39040602,26.1892386 C6.39640602,24.5859898 7.10427068,20.8699492 6.22771429,18.6761421 C5.99496241,18.0941117 5.43123308,16.4322335 4.86750376,16.0740609 C4.02511278,15.54 1.80115789,14.5443655 1.84493233,13.2662437" id="Fill-2" fill="#DFA700" mask="url(#mask-2)"></path>
            </g>
            <path d="M120.348737,31.187665 C124.883128,35.7351777 130.110436,32.7376142 131.595564,30.9062437" id="Stroke-5" stroke="#504A7F" stroke-linecap="round" stroke-linejoin="round"></path>
            <path d="M152.174887,32.2547208 C156.710346,36.8022335 161.936586,33.8036041 163.421714,31.9722335" id="Stroke-6" stroke="#504A7F" stroke-linecap="round" stroke-linejoin="round"></path>
            <g id="Group-10" transform="translate(69.669173, 57.326294)">
                <mask id="mask-4" fill="white">
                    <use xlink:href="#path-3"></use>
                </mask>
                <g id="Clip-8"></g>
                <path d="M36.4229774,5.22918782 C33.5315158,5.07994924 18.1808887,5.23025381 16.503794,8.30883249 C14.5702451,11.8564467 15.9405985,16.1033503 15.8061789,20.0997462 C15.4819278,29.7426904 15.3822075,39.3419289 15.0582767,48.9760254 C14.782818,57.1649594 13.1734135,64.9342132 12.4648015,73.1204822 C11.3814376,85.6358426 13.1120226,98.6907005 11.1415323,111.084005 C10.7516195,113.536848 8.58008722,115.51703 8.05810376,118.102056 C6.84843459,124.093132 3.62129774,130.855772 4.30225714,137.095117 C4.58070526,139.645711 5.55132331,142.036619 6.0570782,144.490421 C6.34951278,145.90968 10.0083083,148.651513 11.2464842,149.110208 C13.662406,150.005213 28.772594,150.453142 31.2519353,150.447492 C33.7659759,150.441843 37.0294135,150.058299 38.8956992,148.258162 C40.9861955,146.241203 40.0092782,141.723325 40.3146316,139.191492 C41.1623609,132.149883 41.4250075,125.252076 41.6908571,118.117299 C42.1531579,105.704168 37.2771128,97.0348985 37.2055789,85.9547868 C37.1767519,81.5044924 35.7855789,76.3588528 36.785985,71.9355279 C37.9134436,66.9506396 40.0722707,61.994533 41.2968872,56.9694569 C43.195203,49.1869848 41.200797,40.9664975 42.762797,33.2316751 C43.1023158,31.5527411 44.0002256,29.5806599 44.0546767,27.9390355" id="Fill-7" fill="#FFFFFF" mask="url(#mask-4)"></path>
                <path d="M36.4229774,5.22918782 C33.5315158,5.07994924 18.1808887,5.23025381 16.503794,8.30883249 C14.5702451,11.8564467 15.9405985,16.1033503 15.8061789,20.0997462 C15.4819278,29.7426904 15.3822075,39.3419289 15.0582767,48.9760254 C14.782818,57.1649594 13.1734135,64.9342132 12.4648015,73.1204822 C11.3814376,85.6358426 13.1120226,98.6907005 11.1415323,111.084005 C10.7516195,113.536848 8.58008722,115.51703 8.05810376,118.102056 C6.84843459,124.093132 3.62129774,130.855772 4.30225714,137.095117 C4.58070526,139.645711 5.55132331,142.036619 6.0570782,144.490421 C6.34951278,145.90968 10.0083083,148.651513 11.2464842,149.110208 C13.662406,150.005213 28.772594,150.453142 31.2519353,150.447492 C33.7659759,150.441843 37.0294135,150.058299 38.8956992,148.258162 C40.9861955,146.241203 40.0092782,141.723325 40.3146316,139.191492 C41.1623609,132.149883 41.4250075,125.252076 41.6908571,118.117299 C42.1531579,105.704168 37.2771128,97.0348985 37.2055789,85.9547868 C37.1767519,81.5044924 35.7855789,76.3588528 36.785985,71.9355279 C37.9134436,66.9506396 40.0722707,61.994533 41.2968872,56.9694569 C43.195203,49.1869848 41.200797,40.9664975 42.762797,33.2316751 C43.1023158,31.5527411 44.0002256,29.5806599 44.0546767,27.9390355" id="Stroke-9" stroke="#504A7F" stroke-linecap="round" stroke-linejoin="round" mask="url(#mask-4)"></path>
            </g>
            <path d="M65.8583188,5.14979695 C74.9722632,2.49121827 81.3795594,-0.412538071 90.0845865,2.94639594 C98.7895068,6.30426396 101.719298,14.8929442 103.744346,22.4454822 C105.768647,29.9980203 106.425263,40.6760406 103.097872,52.3464975 C99.7703744,64.0158883 92.5259188,101.577107 92.7208752,115.40534 C92.9157248,129.23336 94.4740947,145.206259 95.0040857,158.344264 C95.5340767,171.482162 103.676015,203.499701 86.9902677,204.423168 C70.3045203,205.346528 48.3189699,210.900868 32.9965293,203.188005 C17.6740887,195.475142 3.40159398,181.773548 1.87770977,161.894543 C0.353932331,142.015645 -1.65200451,106.367452 6.26593684,80.539797 C14.183985,54.7119289 19.7385338,42.2569036 30.1716902,32.6171574 C40.6047398,22.9763452 56.7444812,7.80730964 65.8583188,5.14979695 L65.8583188,5.14979695 Z" id="Stroke-11" stroke="#504A7F" stroke-linecap="round" stroke-linejoin="round"></path>
            <path d="M105.303143,40.5641117 C114.91003,46.4537056 126.365053,56.2885279 126.365053,56.2885279 L103.140899,52.3358376" id="Fill-12" fill="#FFC000"></path>
            <g id="Group-15" transform="translate(102.496241, 47.402437)">
                <mask id="mask-6" fill="white">
                    <use xlink:href="#path-5"></use>
                </mask>
                <g id="Clip-14"></g>
                <path d="M-0.830646617,0.20786802 C2.02430075,0.413604061 4.37957895,0.976446701 7.0167218,1.91664975 C8.02993985,2.2780203 8.60861654,3.4964467 9.514,3.77893401 C10.9724361,4.2319797 12.7148722,4.4419797 14.2768722,4.4942132 C16.2723459,4.56137056 18.7557444,5.68492386 20.4341203,6.81167513 C20.6230977,6.93852792 22.7733835,8.51832487 22.4861805,8.69847716 C22.0772632,8.95431472 20.5515639,9.04385787 20.3583158,9.0715736 C18.3991429,9.35832487 16.5478045,9.55979695 14.5523308,9.54380711 C7.70857143,9.48944162 0.938374436,8.54497462 -5.91253835,8.96923858 C-8.32472331,9.11847716 -10.7325308,9.14086294 -13.1522962,9.05984772 C-13.5973008,9.04492386 -15.2768511,9.27091371 -15.5988602,8.9777665 C-15.7242045,8.86370558 -15.5539113,7.64208122 -15.5514556,7.56852792 C-15.5211338,6.6677665 -15.6315308,5.37791878 -15.116594,4.58162437 C-14.8082511,4.1051269 -14.3223549,4.1371066 -14.3045248,3.60837563" id="Fill-13" fill="#DFA700" mask="url(#mask-6)"></path>
            </g>
            <path d="M53.0578195,77.4633503 C51.7155459,81.3520812 48.5002602,89.1956345 47.0046692,96.0126396 C46.2251639,99.5655838 45.2446165,105.081228 44.9578406,108.840868 C44.7020271,112.194792 46.0311684,117.882701 46.4066677,121.070117 C47.1131444,127.066416 50.8135789,132.21632 54.3832241,136.365792 C58.0090286,140.580503 61.5643669,143.767706 70.1098842,146.383751 C74.2525474,128.102452 70.4254872,92.711269 73.8433098,84.1545685" id="Stroke-16" stroke="#504A7F" stroke-linecap="round" stroke-linejoin="round"></path>
            <path d="M207.949925,84.1748223 C194.929699,93.6695939 184.112075,101.815888 166.46991,102.813655 C168.359684,115.163787 202.969248,120.23534 218.50597,118.621751" id="Stroke-17" stroke="#504A7F" stroke-linecap="round" stroke-linejoin="round"></path>
            <g id="Group-21" transform="translate(91.819549, 56.996345)">
                <mask id="mask-8" fill="white">
                    <use xlink:href="#path-7"></use>
                </mask>
                <g id="Clip-19"></g>
                <path d="M77.1804488,6.50365466 C94.0549601,11.4743653 77.4575616,55.3412713 79.6804488,73.003657 C81.9022684,90.6663626 95.3174101,145.890734 89.1804477,152.003653 C83.0434853,158.116679 34.1728872,156.838873 21.0266767,155.804543 C7.88089323,154.770213 15.8448619,126.680603 15.1804514,117.003653 C14.5160408,107.326597 0.000383041783,34.6687819 17.6804507,12.503655 C35.3601981,-9.66253789 34.7910677,13.8013706 49.6978647,15.5133503 C59.4104511,16.6283756 60.3070052,1.532944 77.1804488,6.50365466 Z" id="Fill-18" stroke="#504A7F" fill="#FFFFFF" mask="url(#mask-8)"></path>
            </g>
            <path d="M186.417173,194.219299 C183.964737,199.632076 179.608647,202.394056 170.721368,202.168386 C151.209714,201.673127 144.676647,206.18397 117.952887,204.065208 C104.995654,203.037914 98.5410602,202.947731 94.7585218,199.805406 C100.452935,190.286863 95.4170602,168.58267 95.0040857,158.344264 C94.4740947,145.206259 92.9157248,129.23336 92.7208752,115.40534 C92.5259188,101.577107 99.7703744,64.0158883 103.097872,52.3464975 C105.514541,43.8718782 105.829504,35.9195939 105.045835,29.3083249 C107.820707,22.6906599 111.109128,16.7008629 115.279444,11.3336041 C125.234391,-1.47852792 135.895068,-2.59994924 155.470782,5.75208122 C161.644318,8.3860787 176.076774,12.2463412 182.999999,26 C183.417209,26.8288266 184.499999,29.3083248 184.999999,31.5 C181.999999,37.5000019 182.500962,44.0349746 182.504165,44.0744162 C183.267549,52.394467 182.058947,77.0881218 180.301564,100.288325 C176.117368,101.635736 171.579774,102.524772 166.46991,102.813655 C167.137203,107.176431 171.887263,110.630665 178.437414,113.202792 C172.102932,138.913614 179.304361,182.241624 186.417173,194.219299 Z" id="Stroke-22" stroke="#504A7F" stroke-linecap="round" stroke-linejoin="round"></path>
            <path d="M182.415549,43.46 C182.415549,43.46 164.571594,53.4845685 162.76403,59.0383756 C171.193278,58.7633503 174.855383,57.2208629 182.513774,59.002132" id="Fill-23" fill="#FFC000"></path>
            <g id="Group-26" transform="translate(162.285714, 51.930355)">
                <mask id="mask-10" fill="white">
                    <use xlink:href="#path-9"></use>
                </mask>
                <g id="Clip-25"></g>
                <path d="M-2.60511278,9.19203046 C-0.749503759,8.64304569 1.26625564,8.17614213 3.02257143,7.37984772 C6.31419549,5.88852792 9.06771429,3.60837563 12.4351429,2.24923858 C14.5309774,1.40284264 18.8454286,0.927411168 21.1654737,0.874111675 C22.7413534,0.83786802 24.2595789,0.755786802 25.8429323,0.809086294 C26.1707068,0.819746193 26.7750075,0.413604061 27.0739549,0.62786802 C28.6391579,1.74609137 28.4181504,4.18294416 28.4597895,5.78725888 C28.4960902,7.25939086 29.1868722,9.03213198 27.3344662,9.88172589 C25.3816992,10.7771574 22.6623459,10.3177157 20.6263008,10.3038579 C16.2114887,10.2750761 11.802015,10.1194416 7.38827068,9.97126904" id="Fill-24" fill="#DFA700" mask="url(#mask-10)"></path>
            </g>
            <g id="Group-30" transform="translate(165.488722, 66.722234)">
                <mask id="mask-12" fill="white">
                    <use xlink:href="#path-11"></use>
                </mask>
                <g id="Clip-28"></g>
                <path d="M35.6761654,51.5732183 C36.5569925,57.7519086 38.6485564,65.3907919 40.7625414,70.4850508 C42.0811128,73.6628731 44.0509624,76.629203 45.3492481,79.7541523 C47.4675038,84.8527817 49.1063759,90.0783706 51.5075639,95.2993756 C52.4225564,97.2900051 55.2849774,103.779964 53.8169323,106.048284 C51.7477895,109.246041 48.0173534,112.06132 45.0823308,114.202893 C43.4146316,115.419188 44.2292632,117.920853 43.2608872,119.69967 C42.1921504,121.664183 39.9649925,123.056685 38.8482105,125.109569 C37.9054586,126.842015 33.1223008,130.034548 31.2955188,130.870071 C29.9128872,131.502949 28.4672632,131.335909 27.2405113,132.290289 C26.0158947,133.242112 25.2439699,135.014107 24.2222105,135.968168 C22.8182256,137.279228 17.6581805,135.106208 16.8371429,134.464376 C15.0850977,133.095645 12.3753534,133.420878 10.633985,131.794604 C5.31485714,126.823893 6.45619549,119.411746 4.97533835,112.913472 C4.25893233,109.769761 3.52864662,106.628822 2.76633083,103.495985 C1.40932331,97.923736 1.3196391,98.0259645 -0.72281203,91.8308579 C-2.556,86.2673503 -4.17992481,80.686467 -5.65757895,75.0200914 C-7.07437594,69.5802386 -5.37251128,62.5425736 -5.05221053,57.0334315 C-4.56642105,48.6725533 -5.82947368,38.5688883 -3.48914286,30.4086294 C-2.61792481,27.3684264 4.544,17.122132 2.59443609,15.0391878 L14.1722406,4.74705584 C16.2307068,3.92944162 18.4877594,2.49994924 20.7117143,2.29741117 C31.6894887,1.29857868 34.8700752,11.7943147 35.6409323,22.3806599 C25.3571429,29.6304569 15.4705263,35.2727411 0.98118797,36.0914213 C2.31470677,44.8092995 19.9526015,49.9002538 35.6761654,51.5732183 L35.6761654,51.5732183 Z" id="Fill-27" fill="#FFFFFF" mask="url(#mask-12)"></path>
                <path d="M40.7625414,70.4850508 C42.0811128,73.6628731 44.0509624,76.629203 45.3492481,79.7541523 C47.4675038,84.8527817 49.1063759,90.0783706 51.5075639,95.2993756 C52.4225564,97.2900051 55.2849774,103.779964 53.8169323,106.048284 C51.7477895,109.246041 48.0173534,112.06132 45.0823308,114.202893 C43.4146316,115.419188 44.2292632,117.920853 43.2608872,119.69967 C42.1921504,121.664183 39.9649925,123.056685 38.8482105,125.109569 C37.9054586,126.842015 33.1223008,130.034548 31.2955188,130.870071 C29.9128872,131.502949 28.4672632,131.335909 27.2405113,132.290289 C26.0158947,133.242112 25.2439699,135.014107 24.2222105,135.968168 C22.8182256,137.279228 17.6581805,135.106208 16.8371429,134.464376 C15.0850977,133.095645 12.3753534,133.420878 10.633985,131.794604 C5.31485714,126.823893 6.45619549,119.411746 4.97533835,112.913472 C4.25893233,109.769761 3.52864662,106.628822 2.76633083,103.495985 C1.40932331,97.923736 1.3196391,98.0259645 -0.72281203,91.8308579 C-2.556,86.2673503 -4.17992481,80.686467 -5.65757895,75.0200914 C-7.07437594,69.5802386 -5.37251128,62.5425736 -5.05221053,57.0334315 C-4.56642105,48.6725533 -5.82947368,38.5688883 -3.48914286,30.4086294 C-2.61792481,27.3684264 4.544,17.122132 2.59443609,15.0391878 L14.1722406,4.74705584 C16.2307068,3.92944162 19.2873238,2.48030457 21.5112786,2.27776649 C32.4890531,1.27893401 34.8700752,11.7943147 35.6409323,22.3806599 C25.3571429,29.6304569 15.4705263,35.2727411 0.98118797,36.0914213 C2.31470677,44.8092995 19.9526015,49.9002538 35.6761654,51.5732183 C36.5569925,57.7519086 38.6485564,65.3907919 40.7625414,70.4850508 Z" id="Stroke-29" stroke="#504A7F" stroke-linecap="round" stroke-linejoin="round" mask="url(#mask-12)"></path>
            </g>
            <path d="M180.288752,100.292589 C182.05788,77.0039086 183.280361,52.1311675 182.514842,43.7748731 C181.652165,34.3813706 189.453624,18.4405584 207.483353,13.6883756 C218.358632,10.8208629 232.735865,19.0801523 240.300301,30.4052284 C247.864737,41.7313706 264.866301,84.9529949 267.57818,108.558594 C270.29006,132.164726 266.033263,165.374147 271.354526,177.533574 C276.385383,189.027716 283.041233,187.476168 283.041233,187.476168 C283.041233,187.476168 270.52815,202.016482 257.918977,206.294193 C245.309805,210.571797 233.465083,209.085274 215.815444,207.588518 C193.710421,205.713975 190.098496,207.163294 182.310917,197.275386 C174.934391,187.909919 171.877654,140.114878 178.379759,113.180193 C171.859504,110.610411 167.135068,107.16364 166.46991,102.813655 C171.574436,102.525838 176.107759,101.637868 180.288752,100.292589 L180.288752,100.292589 Z" id="Stroke-31" stroke="#504A7F" stroke-linecap="round" stroke-linejoin="round"></path>
        </g>
    </g>
</svg>