<?xml version="1.0" encoding="UTF-8" standalone="no"?>
<svg width="320px" height="300px" viewBox="0 0 320 300" version="1.1" xmlns="http://www.w3.org/2000/svg" xmlns:xlink="http://www.w3.org/1999/xlink">
    <!-- Generator: Sketch 39.1 (31720) - http://www.bohemiancoding.com/sketch -->
    <title>create-penguin</title>
    <desc>Created with Sketch.</desc>
    <defs>
        <path d="M0.778348766,0.126541529 C6.91570983,0.747453696 9.00589292,9.62720964 15.6035634,10.6109304 C20.7998898,11.3852848 4.83101507,17.6306199 0.778348766,19.172178 L0.778348766,0.126541529 L0.778348766,0.126541529 Z" id="path-1"></path>
        <path d="M17.7342234,0.721055719 C17.8539437,1.3305516 17.9168382,1.96166379 17.9168382,2.60802875 C17.9168382,7.75474968 13.9291788,11.9331913 9.01756278,11.9331913 C4.10582563,11.9331913 0.118166204,7.75474968 0.118166204,2.60802875 C0.118166204,1.96166379 0.181060671,1.3305516 0.30078125,0.721055719 L17.7342234,0.721055719 L17.7342234,0.721055719 Z" id="path-3"></path>
        <path d="M1.14373435,0.00904338601 C1.02411051,0.618269217 0.961268571,1.249105 0.961268571,1.8952 C0.961268571,7.04313736 4.948928,11.2215789 9.86102857,11.2215789 C14.77216,11.2215789 18.7601829,7.04313736 18.7601829,1.8952 C18.7601829,1.249105 18.6973352,0.618269217 18.5777032,0.00904338601 L1.14373435,0.00904338601 L1.14373435,0.00904338601 Z" id="path-5"></path>
        <path d="M0.0996551111,0.698219699 C0.372902772,2.07069782 0.69504213,3.57979901 1.07393143,5.23843985 C4.56187657,20.5078157 4.69840457,34.3432622 26.1299086,31.6763582 C42.614544,29.6249684 41.9134903,13.0037725 42.2279771,3.91581407 C42.2645267,2.85920856 42.2696961,1.7801781 42.2502881,0.698219699 L0.0996551111,0.698219699 L0.0996551111,0.698219699 Z" id="path-7"></path>
        <path d="M1.16336717,0.56272113 C-0.012735892,13.8246549 -1.1491035,24.6483409 17.5729829,27.8754969 C33.60624,30.6391072 37.6354514,14.856519 40.4932114,6.42555517 C41.1342498,4.53436377 41.6892796,2.53169528 42.1646317,0.56272113 L1.16336717,0.56272113 L1.16336717,0.56272113 Z" id="path-9"></path>
    </defs>
    <g id="Page-1" stroke="none" stroke-width="1" fill="none" fill-rule="evenodd">
        <g id="create-penguin" transform="translate(56.000000, 46.000000)">
            <path d="M48.0370194,164.174927 C52.9625669,162.140324 94.11528,161.926597 101.165189,162.454285 C108.215097,162.981973 132.424891,161.382366 139.566263,161.793155 C146.707634,162.203943 155.19248,161.356456 157.6432,161.713965 C160.09392,162.071474 162.187269,170.175218 158.217417,170.311093 C154.247566,170.446969 138.191291,170.881235 128.104937,171.014434 C118.017977,171.147633 99.8879794,170.787204 91.0841646,171.416221 C82.2804709,172.045238 56.2850309,170.988402 50.021824,172.625475 C43.7587383,174.262549 41.992112,166.671896 48.0370194,164.174927 L48.0370194,164.174927 Z" id="Stroke-3" stroke="#504A7F" stroke-linecap="round" stroke-linejoin="round" fill="#FFFFFF"></path>
            <path d="M24.3148251,86.7022408 C23.7243749,82.1211605 22.4011314,76.5280092 24.815024,73.7448144 C27.2812503,70.9020144 33.5690491,70.9190444 40.9387749,70.8314614 C55.5213463,70.6575117 150.000297,69.92522 161.206011,69.5420442 C166.732549,69.3522809 173.286377,67.9801463 176.64688,71.1890922 C180.100663,74.4880539 180.26784,82.4556791 178.940114,88.78246 C176.318583,101.265478 172.475931,144.379454 171.317806,151.973634 C170.650309,156.342812 171.110651,162.301866 166.899726,163.535936 C163.7912,164.446799 157.340343,164.250103 153.277211,164.527571 C143.71056,165.181037 66.0892434,167.545415 52.2531543,166.694765 C47.5333074,166.404646 41.7043977,167.714134 38.9805006,166.689047 C33.7192663,164.709184 33.9567063,159.318568 33.4867931,154.01286 C32.7737463,145.960206 25.508688,95.9650004 24.3148251,86.7022408 Z M109.840471,122.868569 C118.733447,114.799128 125.000001,109 125.000001,109 L125.000001,127.5 C125.000001,127.5 114.27224,120.0681 109.53301,115.734807 C104.793781,111.401636 88.4106629,106.092643 82.965776,119.767277 C89.6021029,131.427136 100.947495,130.938009 109.840471,122.868569 Z" id="Combined-Shape" fill="#FFFFFF"></path>
            <path d="M24.3148251,86.7022408 C23.7243749,82.1211605 22.4011314,76.5280092 24.815024,73.7448144 C27.2812503,70.9020144 33.5690491,70.9190444 40.9387749,70.8314614 C55.5213463,70.6575117 150.000297,69.92522 161.206011,69.5420442 C166.732549,69.3522809 173.286377,67.9801463 176.64688,71.1890922 C180.100663,74.4880539 180.26784,82.4556791 178.940114,88.78246 C176.318583,101.265478 172.475931,144.379454 171.317806,151.973634 C170.650309,156.342812 171.110651,162.301866 166.899726,163.535936 C163.7912,164.446799 157.340343,164.250103 153.277211,164.527571 C143.71056,165.181037 66.0892434,167.545415 52.2531543,166.694765 C47.5333074,166.404646 41.7043977,167.714134 38.9805006,166.689047 C33.7192663,164.709184 33.9567063,159.318568 33.4867931,154.01286 C32.7737463,145.960206 25.508688,95.9650004 24.3148251,86.7022408 L24.3148251,86.7022408 Z" id="Stroke-2" stroke="#504A7F" stroke-linecap="round" stroke-linejoin="round"></path>
            <path d="M55.1718491,70.7998341 C55.9885943,68.6747286 56.3069577,67.0897186 58.475536,57.031048 C60.6441143,46.9723774 61.9867406,28.0629525 66.2183817,17.8887209 C70.4500229,7.71570578 81.4420411,-0.332203851 102.533134,0.057054172 C123.623863,0.447528626 129.673737,9.24962567 134.163291,16.4338691 C138.651634,23.6193289 142.825006,30.6466526 145.538606,44.951885 C148.252206,59.2559009 150.968229,66.9887548 153.525554,69.8729135" id="Stroke-5" stroke="#504A7F" stroke-linecap="round" stroke-linejoin="round"></path>
            <path d="M100.891406,43.6977443 C108.354775,42.7331142 110.208624,53.0861612 117.363563,54.1529715 C123.297989,55.0373171 101.62747,63.0572488 101.62747,63.0572488 C101.62747,63.0572488 82.4873829,55.5105089 85.2278766,54.4351836 C92.858544,51.4427625 94.1896617,44.5638434 100.891406,43.6977443 L100.891406,43.6977443 Z" id="Fill-6" fill="#FFC000"></path>
            <g id="Group-9" transform="translate(101.760000, 43.542041)">
                <mask id="mask-2" fill="white">
                    <use xlink:href="#path-1"></use>
                </mask>
                <g id="Clip-8"></g>
                <path d="M2.20080229,-2.39028755 C0.638544,1.19696842 0.74624,4.58716252 1.931744,8.15252272 C2.30837714,9.28502028 1.06145371,10.0854321 0.854905143,11.1254809 C0.528788571,12.7688796 1.33838629,13.9330044 1.52785371,15.4511107 C1.68521829,16.7125499 1.52785371,18.0931995 1.52785371,19.3704524 C1.52785371,19.8314798 0.740425143,21.5612452 0.989131429,21.8981967 C1.311008,22.3336791 3.28975543,22.0806614 3.37201143,22.0806614 C5.85677257,22.0806614 8.37460571,22.1986552 10.774688,21.4043255 C12.6600343,20.7815127 16.6652594,17.6966429 17.6393691,16.1335286 C18.1272114,15.3501469 17.8963131,14.1896714 18.4476343,13.5656421 C20.1509029,11.636382 23.3514971,9.04903261 21.2738971,6.1320303 C19.6578514,3.86338588 15.2362583,3.21624442 12.9282446,2.21268858 C12.2456046,1.9146629 8.68957714,-0.355197946 8.21724114,-0.355197946" id="Fill-7" fill="#DFA700" mask="url(#mask-2)"></path>
            </g>
            <path d="M30.7945143,166.741111 C34.1356343,180.082199 20.3569669,195.597051 64.2559886,195.158041 C74.166928,195.059024 95.1429349,188.540168 102.210288,188.677868 C126.447703,189.150087 136.166994,199.030064 151.415246,195.969887 C171.110651,192.017337 172.139154,176.84187 166.753143,165.411673" id="Stroke-10" stroke="#504A7F" stroke-linecap="round" stroke-linejoin="round"></path>
            <g id="Group-13" transform="translate(73.767347, 30.161297)">
                <mask id="mask-4" fill="white">
                    <use xlink:href="#path-3"></use>
                </mask>
                <g id="Clip-12"></g>
                <path d="M-4.35261094,10.7058121 C1.99248849,6.82174685 14.2808565,2.61167805 19.3804862,10.5939004 C24.4801159,18.5773392 25.4366599,8.83737356 23.2211993,3.06175764 C21.0057388,-2.71385828 21.9294531,5.83400462 20.2742782,4.78544082 C12.5991513,-0.0802844673 -4.01304751,2.59099872 -4.01304751,2.59099872 C-4.01304751,2.59099872 -7.0406498,-1.33442516 -6.10433665,2.18957638 C-5.16802351,5.71236149 -10.6977104,14.5886608 -4.35261094,10.7058121 L-4.35261094,10.7058121 Z" id="Stroke-11" stroke="#504A7F" stroke-linecap="round" stroke-linejoin="round" mask="url(#mask-4)"></path>
            </g>
            <path d="M82.7849097,23.4429463 C87.6965257,23.4429463 91.6841851,27.6226044 91.6841851,32.7693253 C91.6841851,37.9160462 87.6965257,42.0944878 82.7849097,42.0944878 C77.8731726,42.0944878 73.8855131,37.9160462 73.8855131,32.7693253 C73.8855131,27.6226044 77.8731726,23.4429463 82.7849097,23.4429463 L82.7849097,23.4429463 Z" id="Stroke-14" stroke="#504A7F" stroke-linecap="round" stroke-linejoin="round"></path>
            <g id="Group-17" transform="translate(110.240000, 31.377728)">
                <mask id="mask-6" fill="white">
                    <use xlink:href="#path-5"></use>
                </mask>
                <g id="Clip-16"></g>
                <path d="M23.2303543,9.99298331 C16.8861029,6.11013453 4.59737143,1.90006573 -0.502258286,9.88228806 C-5.60200914,17.8657268 -6.558432,8.1245448 -4.34297143,2.35014531 C-2.12751086,-3.4254706 -3.05122514,5.1223923 -1.39605029,4.07261207 C6.27907657,-0.793113222 22.8911543,1.87938639 22.8911543,1.87938639 C22.8911543,1.87938639 25.9185143,-2.04603748 24.98208,1.47674763 C24.0456457,5.00074917 29.5758171,13.8770485 23.2303543,9.99298331 L23.2303543,9.99298331 Z" id="Stroke-15" stroke="#504A7F" stroke-linecap="round" stroke-linejoin="round" mask="url(#mask-6)"></path>
            </g>
            <path d="M120.101029,23.9477653 C115.188928,23.9477653 111.201269,28.1262069 111.201269,33.2729279 C111.201269,38.4208652 115.188928,42.5993068 120.101029,42.5993068 C125.01216,42.5993068 129.000183,38.4208652 129.000183,33.2729279 C129.000183,28.1262069 125.01216,23.9477653 120.101029,23.9477653 L120.101029,23.9477653 Z" id="Stroke-18" stroke="#504A7F" stroke-linecap="round" stroke-linejoin="round"></path>
            <path d="M82.8807337,34.7375112 C82.6283931,35.1608293 82.3532777,35.5695502 82.1238331,36.0050326 C81.9014149,36.4271343 83.1490651,36.2580503 83.2173897,36.2580503 C83.4104914,36.2580503 84.6360937,36.2933268 84.7315543,36.0050326 C84.9649966,35.2995024 84.920416,34.0137345 84.0586057,33.7242239 C83.0082971,33.3726752 81.4930423,34.8214449 82.0396389,35.9210988 C82.2929486,36.4295671 83.2173897,36.2264231 83.2173897,35.7520149" id="Stroke-19" stroke="#000000" stroke-linecap="round" stroke-linejoin="round"></path>
            <path d="M120.005326,35.2423302 C120.257303,35.6644318 120.532297,36.0743692 120.761257,36.5098516 C120.98416,36.9319533 119.73651,36.7628693 119.668064,36.7628693 C119.475083,36.7628693 118.24936,36.7981458 118.153899,36.5098516 C117.920578,35.8043214 117.965038,34.5173371 118.826969,34.2290429 C119.877278,33.8762778 121.392411,35.3262639 120.846057,36.4247014 C120.592869,36.9343861 119.668064,36.7312421 119.668064,36.2556175" id="Stroke-20" stroke="#000000" stroke-linecap="round" stroke-linejoin="round"></path>
            <path d="M49.1470514,205.376551 C27.7155474,208.043455 27.5790194,194.208008 24.0910743,178.938632 C20.603008,163.669135 21.9245554,161.073271 21.9245554,161.073271 L35.5891063,169.185286 L41.8779954,144.547808 L55.3656777,166.30648 L63.5523909,157.781121 C63.5523909,157.781121 65.5594857,168.528048 65.24512,177.616007 C64.9306331,186.703965 65.6316869,203.325161 49.1470514,205.376551 L49.1470514,205.376551 Z" id="Fill-21" fill="#FFC000"></path>
            <g id="Group-24" transform="translate(23.017143, 173.700193)">
                <mask id="mask-8" fill="white">
                    <use xlink:href="#path-7"></use>
                </mask>
                <g id="Clip-23"></g>
                <path d="M-13.5335954,9.14500904 C-9.58349029,7.69928041 -6.50149486,8.48959584 -2.36180114,9.01022845 C-1.37909029,9.13381787 -0.366699429,8.82192488 0.599657143,9.14500904 C1.316096,9.38452436 2.02405486,9.92194372 2.75321371,10.0915142 C5.81037486,10.8022751 9.20007314,9.87863877 12.309568,10.2261732 C13.4156023,10.3498843 14.2846811,11.3685239 15.4057371,11.5783583 C17.9670606,12.0576322 20.6078537,11.1471334 23.0781989,10.7672418 C25.6029371,10.3788353 27.4956731,7.09313268 29.94288,6.17132103 C34.1131017,4.60078655 38.6965417,4.77424965 42.9994149,3.33314347 C44.6131589,2.79268303 46.6615634,1.16205684 47.8453714,0.765135302 C47.9623954,0.72584457 49.0823611,0.636558511 49.1911474,0.765135302 C49.5527589,1.19258927 49.4648091,2.27983558 49.4602057,2.79292632 C49.4359771,5.50690624 48.7388,7.94597268 48.4977257,10.6115386 C47.8714171,17.5336411 47.4098629,21.2952117 43.13352,26.5803625 C41.876784,28.133502 40.7136914,29.7489228 38.9679017,30.8010142 C36.4566103,32.3146197 33.5776503,32.4434398 30.8848869,33.4733922 C27.8112503,34.6489514 25.014304,36.1728966 21.5975909,36.3122996 C18.4344297,36.4412413 12.56736,37.0428883 9.66090057,36.2071999 C6.47229943,35.290254 2.66332571,32.2210761 0.434418286,29.7972151 C-1.27854171,27.9342505 -3.38679086,25.5181746 -3.70757714,22.9310685 C-3.82872,21.9537876 -4.08663314,17.3901022 -4.831904,17.3901022" id="Fill-22" fill="#DFA700" mask="url(#mask-8)"></path>
            </g>
            <path d="M155.67584,205.224983 C134.830789,201.631889 138.603177,188.621791 139.638949,173.314219 C140.67472,158.006647 142.645714,155.948567 142.645714,155.948567 L153.169394,167.439099 L166.01296,146.128317 L172.523177,170.362913 L182.602263,164.697628 C182.602263,164.697628 181.453829,175.344078 178.596069,183.775042 C175.738309,192.206006 171.709097,207.988594 155.67584,205.224983 L155.67584,205.224983 Z" id="Fill-25" fill="#FFC000"></path>
            <g id="Group-28" transform="translate(138.102857, 177.349487)">
                <mask id="mask-10" fill="white">
                    <use xlink:href="#path-9"></use>
                </mask>
                <g id="Clip-27"></g>
                <path d="M-1.25867429,0.56272113 C1.20779429,5.62319707 6.16980571,9.03528693 11.6636343,10.3410043 C14.2851657,10.9640604 16.98544,10.1074495 19.47008,10.3410043 C21.4180571,10.5240772 22.0213486,12.679107 24.3157943,12.3687953 C27.9488686,11.8772354 30.23968,9.92340344 34.2773714,9.66527671 C37.7784,9.44145335 41.2879086,9.05049232 44.7756114,8.71950136 C45.6078629,8.64043332 46.3395657,8.20592406 47.1984686,8.31394316 C48.3202514,8.45504919 50.8848457,8.73446347 50.5638171,10.3410043 C49.3305829,16.5195023 45.1753829,23.5737092 39.5264914,26.8304607 C37.1884343,28.1782666 34.4772571,28.8288141 31.9889829,29.8041488 C27.9512914,31.386361 24.8415543,33.0014168 20.4125714,33.3179323 C17.35856,33.5362817 14.5068571,32.4455077 11.6636343,31.6964293 C9.12569143,31.0280003 6.36484571,30.6933601 3.85718857,29.6686383 C2.24477714,29.010184 1.26230857,27.3040175 0.222902857,26.0193443 C-1.62331429,23.7375625 -3.76875429,21.9045221 -5.16189714,19.2618251 C-7.00569143,15.7671395 -4.89296,11.7534027 -4.89296,8.13147846" id="Fill-26" fill="#DFA700" mask="url(#mask-10)"></path>
            </g>
            <path d="M15.3263886,124.512332 C14.0665029,125.97278 11.3890034,128.749649 11.3890034,131.034715" id="Stroke-29" stroke="#504A7F" stroke-linecap="round" stroke-linejoin="round" opacity="0.200000003"></path>
            <path d="M11.6081509,113.170083 C8.095008,115.060174 5.051536,116.7307 3.22118857,120.416243" id="Stroke-30" stroke="#504A7F" stroke-linecap="round" stroke-linejoin="round" opacity="0.200000003"></path>
            <path d="M0.0616617143,140.870901 C0.339442286,142.045 3.50224,152.473588 5.056624,151.839097" id="Stroke-31" stroke="#504A7F" stroke-linecap="round" stroke-linejoin="round" opacity="0.200000003"></path>
            <path d="M186.960983,127.494657 C188.830217,129.069206 190.690971,130.506906 192.068366,132.545158 C193.026606,133.964855 193.616571,137.281577 194.691109,136.202359" id="Stroke-32" stroke="#504A7F" stroke-linecap="round" stroke-linejoin="round" opacity="0.200000003"></path>
            <path d="M190.741851,114.214755 C191.060457,114.690866 196.21024,120.884204 196.21024,122.856404" id="Stroke-33" stroke="#504A7F" stroke-linecap="round" stroke-linejoin="round" opacity="0.200000003"></path>
            <path d="M209.276709,114.061971 C209.276709,114.856787 210.150149,125.856976 211.540869,124.460269" id="Stroke-34" stroke="#504A7F" stroke-linecap="round" stroke-linejoin="round" opacity="0.200000003"></path>
            <path d="M204.781097,134.868907 C204.553349,138.760149 204.56304,142.624022 204.56304,146.519156" id="Stroke-35" stroke="#504A7F" stroke-linecap="round" stroke-linejoin="round" opacity="0.200000003"></path>
        </g>
    </g>
</svg>