<?xml version="1.0" encoding="UTF-8" standalone="no"?>
<svg width="320px" height="300px" viewBox="0 0 320 300" version="1.1" xmlns="http://www.w3.org/2000/svg" xmlns:xlink="http://www.w3.org/1999/xlink">
    <!-- Generator: Sketch 39.1 (31720) - http://www.bohemiancoding.com/sketch -->
    <title>easy-penguin</title>
    <desc>Created with Sketch.</desc>
    <defs>
        <polygon id="path-1" points="0.0778539823 4.71007917 8.57808407 0.242854839 13.8174027 7.99663065 22.9265221 14.7114145 6.42371681 27.7994613 4.91060177 18.9341419 0.0778539823 20.292045 0.0778539823 4.71007917"></polygon>
        <path d="M0.0617743363,2.07401539 C4.66179354,1.40129615 9.43378709,0.877231 13.0189159,0.443743548 L24.4173496,15.0001984 L3.2149356,22.8321422 L2.89271453,22.8321422 L4.4149823,16.8429484 L0.0617743363,16.4668617 L0.0617743363,10.1063794 L2.90929646,8.60427581 C2.90929646,8.60427581 1.75514998,8.33105454 0.0617743363,7.86994812 L0.0617743363,2.07401539 L0.0617743363,2.07401539 Z" id="path-3"></path>
        <path d="M43.0730973,16.5385161 C22.259115,7.41977419 0.720530973,0.799693548 0.720530973,0.799693548 L29.2049115,31.9054355 L41.8060619,28.3205323 C41.8060619,28.3205323 47.1774779,26.6215645 43.0730973,16.5385161 L43.0730973,16.5385161 Z" id="path-5"></path>
    </defs>
    <g id="Page-1" stroke="none" stroke-width="1" fill="none" fill-rule="evenodd">
        <g id="easy-penguin" transform="translate(47.000000, 55.000000)">
            <polyline id="Fill-1" fill="#FFC000" points="17.7373761 118.760081 1.03164159 127.539639 8.30055752 130.574613 0 141.404719 14.0698938 137.451368 15.5830088 146.316687 32.0858142 133.22864 22.9766947 126.513856"></polyline>
            <g id="Group-4" transform="translate(9.159292, 118.517226)">
                <mask id="mask-2" fill="white">
                    <use xlink:href="#path-1"></use>
                </mask>
                <g id="Clip-3"></g>
                <path d="M0.0778539823,-0.439577419 C1.32005752,1.82171613 3.63369469,4.66179677 4.54239823,7.15669839 C4.85350885,8.01075484 4.84058407,9.25053387 5.28633628,10.0049081 C5.92260177,11.0818016 6.95526106,12.3060339 7.39439823,13.4717371 C7.70937611,14.3080113 7.72932301,15.8530355 8.38665487,16.5673742 C10.4231726,18.7804016 12.5648186,21.2163677 14.3388717,23.872529 C15.2822788,25.28505 16.1944425,27.7000839 17.3156416,28.8255484 C17.3312124,28.8411968 19.8597876,26.8075161 20.7879292,26.1013065 C21.2620752,25.7405806 21.7624779,25.4133871 22.2757035,25.1105806 C23.7673451,24.2307145 25.7587788,23.8748661 27.1302301,22.8483726 C27.8579867,22.3036258 28.4769513,21.3957145 29.2208894,20.7769935 C29.756708,20.3312177 31.215885,19.9391952 31.4531106,19.1675468 C31.608615,18.6615145 31.5368673,17.9495129 31.5766593,17.4340306 C31.6246947,16.8123629 32.0800133,16.0214081 31.8736239,15.4038048 C31.2581195,13.5615629 28.4291195,12.4971677 26.9885664,11.4902855 C25.642354,10.54935 24.6225177,9.38395161 23.3921195,8.27139194 C20.0242478,5.22605323 17.3416947,4.00771452 15.5795487,0.470264516" id="Fill-2" fill="#DFA700" mask="url(#mask-2)"></path>
            </g>
            <path d="M74.0808628,165.702905 C67.4275531,166.507374 56.6866549,167.623795 50.5431106,169.42336 C55.2032566,171.78779 63.9712434,173.863437 63.9712434,173.863437 L50.7630354,180.830932 L65.4769292,182.10211 L63.9212743,188.222661 L85.4792965,180.25936" id="Fill-5" fill="#FFC000"></path>
            <g id="Group-8" transform="translate(61.061947, 165.259161)">
                <mask id="mask-4" fill="white">
                    <use xlink:href="#path-3"></use>
                </mask>
                <g id="Clip-7"></g>
                <path d="M0.0617743363,-0.96633871 C2.30081416,2.96252419 5.46687611,6.07543548 8.49473451,9.43445323 C10.7388628,11.9239694 12.6365664,14.5647871 15.0673407,16.8635758 C16.5320133,18.2487629 18.5471593,19.3322613 20.1515619,20.5785435 C21.0425575,21.270629 21.5186372,22.5290032 22.6322035,22.807321 C23.5351062,23.0330032 25.0650133,21.6542177 25.7325221,21.3212323 C26.8080265,20.7846145 30.679354,17.8198548 30.8167434,16.7402177 C30.9750973,15.4956629 30.8374027,14.1388258 30.8374027,12.8789274 C30.8374027,11.1328113 27.1191372,7.63499032 26.2280398,5.96752258 C25.5636858,4.72439032 25.601646,3.08009032 24.8638142,1.88126129 C24.4262035,1.17017419 23.1315885,-0.582953226 22.6322035,-1.21427419 C21.9288717,-2.1033871 20.9575796,-3.68997097 20.0273009,-4.43316774 C16.6140398,-7.16035645 12.6504071,-5.37176613 8.86670354,-5.17656774 C7.1465885,-5.08785968 4.98469027,-5.59033548 3.40990265,-4.80517258" id="Fill-6" fill="#DFA700" mask="url(#mask-4)"></path>
            </g>
            <path d="M120.379558,54.7368387 L122.249071,51.0239032 C134.387168,28.4353548 142.68854,13.7909032 162.135752,5.38040323 C181.581947,-3.02908065 192.971018,1.84630645 206.12885,7.83130645 C219.286681,13.8163065 224.483053,35.8246452 227.882168,51.5329839 C230.007124,61.3559032 229.350708,76.6415323 226.975398,91.9805081" id="Stroke-9" stroke="#504A7F" stroke-linecap="round" stroke-linejoin="round"></path>
            <path d="M218.407389,126.84481 C212.110885,145.461513 203.371903,163.171016 188.865619,172.447563 C172.186549,183.114073 153.249204,186.50774 123.946593,187.961821 C94.6432699,189.415902 93.6386991,190.563315 81.4763805,175.677634 C69.3139602,160.792055 70.0666504,154.478235 55.3320973,147.036716 C40.5975442,139.595197 20.3887876,127.937453 17.6681726,118.778676 C25.7169513,99.0034839 34.6475664,88.7836645 56.4579779,90.4944194" id="Stroke-10" stroke="#504A7F" stroke-linecap="round" stroke-linejoin="round"></path>
            <path d="M148.585088,4.07772581 C155.286637,6.50627419 157.081858,9.67558065 161.341947,11.4812419 C165.601018,13.2879194 175.919469,14.5275968 183.256062,18.7079516 C190.592655,22.8893226 189.650265,22.4666129 188.141018,25.6318548 C196.177788,29.2858548 203.653805,33.7700323 207.625885,37.3976129 C209.984912,41.0668548 207.694071,40.5435484 205.072478,40.3454032 C202.451903,40.1482742 201.985796,34.4325484 186.943186,28.4140161 C182.68615,35.2545968 175.919469,38.6962258 163.881106,33.012 C156.838628,29.6862097 162.04823,20.9952581 157.683319,16.8911129 C155.028142,14.3944839 147.105354,18.6378387 143.264558,20.7310645 C135.639956,18.4752581 142.809646,6.46766129 148.585088,4.07772581 L148.585088,4.07772581 Z" id="Fill-11" fill="#3A385A"></path>
            <path d="M148.585088,4.07772581 C155.286637,6.50627419 157.081858,9.67558065 161.341947,11.4812419 C165.601018,13.2879194 175.919469,14.5275968 183.256062,18.7079516 C190.592655,22.8893226 189.650265,22.4666129 188.141018,25.6318548 C196.177788,29.2858548 203.653805,33.7700323 207.625885,37.3976129 C209.984912,41.0668548 207.694071,40.5435484 205.072478,40.3454032 C202.451903,40.1482742 201.985796,34.4325484 186.943186,28.4140161 C182.68615,35.2545968 175.919469,38.6962258 163.881106,33.012 C156.838628,29.6862097 162.04823,20.9952581 157.683319,16.8911129 C155.028142,14.3944839 147.105354,18.6378387 143.264558,20.7310645 C135.639956,18.4752581 142.809646,6.46766129 148.585088,4.07772581 L148.585088,4.07772581 Z" id="Stroke-12" stroke="#3A385A" stroke-linecap="round" stroke-linejoin="round"></path>
            <path d="M163.35292,23.4898548 C163.334602,23.1718065 163.324425,22.8507097 163.319336,22.5275806 C163.275575,19.4639516 164.074469,16.6462258 166.731681,16.8585968 C169.387876,17.0709677 171.83646,17.6603226 175.865531,19.1713065" id="Stroke-13" stroke="#FFFFFF" stroke-linecap="round" stroke-linejoin="round"></path>
            <path d="M156.037699,18.2009032 C135.223717,9.08216129 113.685133,2.46208065 113.685133,2.46208065 L142.169513,33.5678226 L154.770664,29.9829194 C154.770664,29.9829194 160.14208,28.2839516 156.037699,18.2009032 L156.037699,18.2009032 Z" id="Fill-14" fill="#FFC000"></path>
            <g id="Group-17" transform="translate(112.964602, 1.662387)">
                <mask id="mask-6" fill="white">
                    <use xlink:href="#path-5"></use>
                </mask>
                <g id="Clip-16"></g>
                <path d="M-2.69181416,-0.0894193548 C0.51699115,1.83309677 4.01278761,3.21401613 7.17172566,5.20562903 C7.96756637,5.70759677 10.1261062,6.83753226 10.6502212,7.36083871 C11.2832301,7.99083871 11.8500885,8.91653226 12.8983186,9.33619355 C13.6707522,9.64509677 16.1936283,10.2852581 16.7167257,10.7120323 C18.7694248,12.387629 22.0362389,15.8038548 24.4278319,16.9978065 C27.2936726,18.4275 30.3834071,19.5909677 33.1240708,21.2330323 C36.7562389,23.4075484 39.2323009,23.318129 42.5316814,26.1409355 C42.9784513,26.5240161 45.0087611,28.1000323 44.9385398,28.2961452 C44.7238053,28.9017581 41.5496018,29.0592581 40.9776549,29.2492742 C37.5011947,30.405629 34.2537168,32.4541452 30.6897345,33.1674677 C30.0913274,33.287371 28.0915487,33.8523387 27.6142478,33.4855161 C25.4363717,31.8119516 23.4559292,27.5757097 21.8866372,25.2254032 C21.0236283,23.931871 19.644646,23.0945806 18.599469,22.0479677 C18.3765929,21.8244194 17.9165929,21.8244194 17.9623894,21.5185645" id="Fill-15" fill="#DFA700" mask="url(#mask-6)"></path>
            </g>
            <path d="M59.8709336,98.316479 L62.4021549,103.747994 L151.100841,123.815729 L175.251858,114.568548 C175.251858,114.568548 175.965265,116.738797 176.434425,118.120326 C168.332522,126.795934 156.634071,133.801432 139.523496,137.713224 C75.4743982,152.356863 56.354885,134.658232 43.9669425,125.551176 C35.303677,119.182181 47.5473097,108.314884 59.8709336,98.316479 L59.8709336,98.316479 Z" id="Fill-18" fill="#FFFFFF"></path>
            <path d="M59.8709336,98.316479 L62.4021549,103.747994 L151.100841,123.815729 L175.251858,114.568548 C175.251858,114.568548 175.965265,116.738797 176.434425,118.120326 C168.332522,126.795934 156.634071,133.801432 139.523496,137.713224 C75.4743982,152.356863 56.354885,134.658232 43.9669425,125.551176 C35.303677,119.182181 47.5473097,108.314884 59.8709336,98.316479 L59.8709336,98.316479 Z" id="Stroke-19" stroke="#504A7F" stroke-linecap="round" stroke-linejoin="round"></path>
            <path d="M152.474735,69.8517581 L191.186991,64.7782258 L210.333982,101.022532 L183.229602,111.60135 C183.229602,111.60135 180.034027,110.141985 178.482035,109.289656 C176.846593,108.391398 173.415929,106.211598 173.415929,106.211598 L175.251858,114.568548 L151.100841,123.815729 L62.4021549,103.747994 L56.4579779,90.4944194 L39.0984735,51.7880323 L70.7066814,6.64954839 L131.336106,34.6815 L120.553584,54.5569839 L152.474735,69.8517581 Z" id="Fill-20" fill="#FFFFFF"></path>
            <path d="M152.474735,69.8517581 L191.186991,64.7782258 L210.333982,101.022532 L183.229602,111.60135 C183.229602,111.60135 180.034027,110.141985 178.482035,109.289656 C176.846593,108.391398 173.415929,106.211598 173.415929,106.211598 L175.251858,114.568548 L151.100841,123.815729 L62.4021549,103.747994 L56.4579779,90.4944194 L39.0984735,51.7880323 L70.7066814,6.64954839 L131.336106,34.6815 L120.553584,54.5569839 L152.474735,69.8517581 Z" id="Stroke-21" stroke="#504A7F" stroke-linecap="round" stroke-linejoin="round"></path>
            <path d="M113.685133,54.5000806 L49.4056283,53.4768387" id="Stroke-22" stroke-opacity="0.3" stroke="#504A7F" stroke-linecap="round" stroke-linejoin="round"></path>
            <path d="M150.054646,77.5387742 L151.299292,116.83604" id="Stroke-23" stroke-opacity="0.3" stroke="#504A7F" stroke-linecap="round" stroke-linejoin="round"></path>
            <path d="M127.29177,66.2272258 L66.8339292,99.8028726" id="Stroke-24" stroke-opacity="0.3" stroke="#504A7F" stroke-linecap="round" stroke-linejoin="round"></path>
            <path d="M217.359159,77.4910161 C239.189823,99.93375 230.874204,129.249479 204.025265,130.942045 C187.543628,131.981037 183.369027,128.21821 178.590929,123.216924 C175.240664,117.368594 173.415929,106.211598 173.415929,106.211598 C173.415929,106.211598 197.163938,122.476471 196.709027,106.438906" id="Stroke-25" stroke="#504A7F" stroke-linecap="round" stroke-linejoin="round"></path>
            <path d="M149.057301,7.08140323 C146.054071,9.1736129 145.800664,10.4224355 144.639469,12.3327581" id="Stroke-26" stroke="#FFFFFF" stroke-linecap="round" stroke-linejoin="round"></path>
        </g>
    </g>
</svg>