<?xml version="1.0" encoding="UTF-8" standalone="no"?>
<svg width="320px" height="300px" viewBox="0 0 320 300" version="1.1" xmlns="http://www.w3.org/2000/svg" xmlns:xlink="http://www.w3.org/1999/xlink">
    <!-- Generator: Sketch 39.1 (31720) - http://www.bohemiancoding.com/sketch -->
    <title>enjoy-penguin</title>
    <desc>Created with Sketch.</desc>
    <defs>
        <polygon id="path-1" points="14.9654551 2.83008576 7.96538672 0.65141323 0.00259903551 17.6430516 14.9654551 23.8653126 14.9654551 20.1284606 13.9231031 17.7185483 14.9654551 17.6819133 14.9654551 2.83008576"></polygon>
        <path d="M17.0749005,0.280093564 C12.3443336,1.88654593 7.1683365,3.8185688 0.709543226,6.82018537 L1.83624893,27.3056811 C7.7802559,26.516044 12.8979368,25.858064 17.0749005,25.3322579 L17.0749005,0.280093564 L17.0749005,0.280093564 Z" id="path-3"></path>
        <path d="M0.0464592706,0.891560979 C0.602657143,8.23017795 1.91341075,15.3299473 4.13003826,21.3011855 C12.5339661,43.9401672 34.3706482,63.6056359 60.6739049,76.4429223 C88.6371258,90.0903412 126.087918,88.980255 149.298545,84.9344719 C160.502172,82.9817003 175.46156,77.331707 189.727829,67.3280228 L189.727829,0.891560978 L0.0464592706,0.891560978 L0.0464592706,0.891560979 Z" id="path-5"></path>
        <polygon id="path-7" points="3.26035837 0.171464636 44.4520567 6.70931229 46.7754438 18.2482451 36.9471691 24.8605096 0.0457135205 0.171464636 3.26035837 0.171464636"></polygon>
    </defs>
    <g id="Page-1" stroke="none" stroke-width="1" fill="none" fill-rule="evenodd">
        <g id="enjoy-penguin" transform="translate(161.656108, 148.630300) rotate(-10.000000) translate(-161.656108, -148.630300) translate(10.156108, 71.130300)">
            <polyline id="Fill-1" fill="#FFC000" points="258.482927 83.2532131 276.221508 88.7740961 267.987136 92.200996 278.713472 99.8187085 264.440643 100.320348 267.453755 107.286647 250.520139 100.244851"></polyline>
            <g id="Group-4" transform="translate(250.517540, 82.601800)">
                <mask id="mask-2" fill="white">
                    <use xlink:href="#path-1"></use>
                </mask>
                <g id="Clip-3"></g>
                <path d="M14.9397073,-1.93011327 C14.774555,2.15307931 15.3385195,6.56645138 14.4405803,10.548801 C13.7163569,13.7597829 11.6696917,16.4703451 10.9283414,19.7631943 C10.637184,21.0543641 10.2579453,22.4352626 10.1050265,23.7519143 C9.9533311,25.0643642 10.1221535,26.6019488 8.97342744,27.5123822 C5.88079765,29.9627044 2.37834549,27.0237545 -0.489187821,25.6889402 C-3.8876552,24.1074401 -9.19699589,23.4708009 -10.2967879,18.5937408 C-10.4900773,17.7391506 -10.3114681,16.7499676 -10.2613107,15.8880581 C-10.0998285,13.0977975 -10.0753615,12.1256927 -9.850265,9.50607895 C-9.64596548,7.13179565 -9.50283349,3.57233605 -8.41038159,1.41437725 C-7.07692967,-1.21811292 -2.85514747,-1.75661994 -0.489187821,-2.1182451 C3.85859946,-2.78334804 7.73784355,-4.2592612 11.9559557,-5.42315746 C12.8685751,-5.67472278 13.7249203,-4.10040637 14.872423,-4.17007479" id="Fill-2" fill="#DFA700" mask="url(#mask-2)"></path>
            </g>
            <path d="M258.836475,51.4703198 C268.295421,47.0744326 275.003051,44.972588 281.589569,42.8277768 C276.352406,48.4402859 275.537655,51.7396411 275.537655,51.7396411 L292.753865,53.2459156 L277.439965,63.0050508 L288.061093,68.417636 C288.061093,68.417636 277.684635,69.6015924 259.963181,71.9558156" id="Fill-5" fill="#FFC000"></path>
            <g id="Group-8" transform="translate(258.126932, 44.650134)">
                <mask id="mask-4" fill="white">
                    <use xlink:href="#path-3"></use>
                </mask>
                <g id="Clip-7"></g>
                <path d="M3.02901556,-4.59052502 C3.16725416,-2.76789629 3.70675168,-1.46534091 4.26337611,0.196399869 C4.49703603,0.891864139 4.42730506,1.67515941 4.67564519,2.36181347 C4.91909191,3.03653986 5.46470619,3.52435431 5.70448286,4.18511991 C6.39078243,6.08175439 6.13143215,8.09631012 7.14314292,9.88315586 C8.53776236,12.3449991 10.9049454,14.0098573 12.3900927,16.3792611 C13.1852705,17.6488799 13.1999507,19.3100785 13.7272147,20.7100883 C14.2789457,22.1767846 15.2943266,23.4089939 15.7836667,24.9266539 C16.1629053,26.1011224 16.1213114,27.1747479 16.3831084,28.3360689 C16.6179917,29.3759445 17.2675907,30.8903515 17.0192506,31.9924407 C16.9409562,32.3373943 16.2363064,32.6664894 15.9904129,32.7905101 C14.5566463,33.5125405 13.1008593,33.3208846 11.5667779,33.3603272 C9.03321927,33.4253872 6.48987381,33.8702349 3.95509181,33.8158827 C2.41611702,33.7828106 0.69241632,33.0694548 -0.776827497,32.676384 C-1.7188073,32.4242765 -3.33607651,32.5623934 -4.17040148,31.9924407 C-7.27037136,29.8773131 -8.30165574,27.137745 -8.90232078,23.217338 C-9.45649851,19.6017641 -9.88344779,15.7311009 -9.62287416,12.0485695 C-9.50543252,10.3978075 -9.00141216,8.78228647 -8.79955935,7.14806065 C-8.55366592,5.15437834 -9.33049342,2.88730849 -8.1817674,1.10805309 C-7.30951857,-0.243568367 -5.29710718,-0.618883231 -3.96487861,-0.829514974 C-3.299376,-0.934830846 -2.79657899,-0.756051393 -2.38675661,-1.21106475" id="Fill-6" fill="#DFA700" mask="url(#mask-4)"></path>
            </g>
            <g id="Group-12" transform="translate(29.178490, 66.336800)">
                <mask id="mask-6" fill="white">
                    <use xlink:href="#path-5"></use>
                </mask>
                <g id="Clip-10"></g>
                <path d="M-33.6530162,16.6747419 C-21.2735666,7.15334678 -18.2759911,10.0859262 -4.13932103,10.0859262 C-1.51755882,10.0859262 1.44429481,11.2034672 4.52591444,10.519795 C18.1760581,7.49192985 22.8120667,-4.12385508 41.2264261,3.36617719 C44.4022437,4.65788923 46.9918318,7.06985311 50.0610956,9.01487597 C51.7452821,10.082131 53.5841001,10.1587121 55.1575733,10.8970075 C58.5384245,12.4833871 62.0555568,15.5885111 65.3523638,17.6734129 C71.8216853,21.7646024 81.1562158,24.2284788 88.460474,25.5796936 C90.9769057,26.0451437 93.6006253,26.3033506 95.5959098,28.2163856 C100.212834,32.6403299 108.603794,34.831903 119.72405,32.3579966 C133.016975,29.4007486 158.318308,32.3337347 169.675893,39.8869293 C175.888066,44.0175615 183.190244,61.3822105 185.649179,68.8788843 C187.371656,74.1332924 189.727829,79.6761331 189.727829,85.1994559 C189.727829,85.1994559 156.951825,101.504169 143.120626,104.891355 C129.289426,108.278541 53.5286823,105.905885 40.5975017,99.2426564 C27.6663211,92.5794283 -9.15248859,61.9495879 -12.8906804,49.1491688 C-16.6287498,36.3488853 -33.6530162,16.6747419 -33.6530162,16.6747419 L-33.6530162,16.6747419 Z" id="Fill-9" fill="#FFFFFF" mask="url(#mask-6)"></path>
                <path d="M-33.6530162,16.6747419 C-21.2735666,7.15334678 -18.2759911,10.0859262 -4.13932103,10.0859262 C-1.51755882,10.0859262 1.44429481,11.2034672 4.52591444,10.519795 C18.1760581,7.49192985 22.8120667,-4.12385508 41.2264261,3.36617719 C44.4022437,4.65788923 46.9918318,7.06985311 50.0610956,9.01487597 C51.7452821,10.082131 53.5841001,10.1587121 55.1575733,10.8970075 C58.5384245,12.4833871 62.0555568,15.5885111 65.3523638,17.6734129 C71.8216853,21.7646024 81.1562158,24.2284788 88.460474,25.5796936 C90.9769057,26.0451437 93.6006253,26.3033506 95.5959098,28.2163856 C100.212834,32.6403299 108.603794,34.831903 119.72405,32.3579966 C133.016975,29.4007486 158.318308,32.3337347 169.675893,39.8869293 C175.888066,44.0175615 183.190244,61.3822105 185.649179,68.8788843 C187.371656,74.1332924 189.727829,79.6761331 189.727829,85.1994559 C189.727829,85.1994559 156.951825,101.504169 143.120626,104.891355 C129.289426,108.278541 53.5286823,105.905885 40.5975017,99.2426564 C27.6663211,92.5794283 -9.15248859,61.9495879 -12.8906804,49.1491688 C-16.6287498,36.3488853 -33.6530162,16.6747419 -33.6530162,16.6747419 L-33.6530162,16.6747419 Z" id="Stroke-11" stroke="#504A7F" stroke-linecap="round" stroke-linejoin="round" mask="url(#mask-6)"></path>
            </g>
            <path d="M138.110142,52.2946842 C125.896212,48.5022285 115.499324,43.3809223 112.181353,41.8727502 C91.3846411,32.4202102 98.3912581,13.5419675 79.6442697,4.00796696 C60.8972813,-5.52603358 45.1074979,8.30328224 35.9883994,22.841481 C28.6608976,34.5224614 25.8325115,67.4987991 33.308528,87.6379859 C41.7124559,110.276968 63.549138,129.942436 89.8523947,142.779723 C117.815616,156.427142 155.266408,155.317055 178.477035,151.271272 C201.688885,147.225489 241.022047,127.309675 256.912145,85.6857794 C263.711527,67.8757405 258.201556,39.7031348 251.733703,32.0230732 C247.615906,39.3901691 242.989194,47.0429869 229.205706,49.1174521 C223.135441,50.0308673 204.758271,54.6127177 183.604096,56.2614465" id="Stroke-13" stroke="#504A7F" stroke-linecap="round" stroke-linejoin="round"></path>
            <polygon id="Fill-14" fill="#FFC000" points="45.4061177 26.9619475 -3.41060513e-13 19.7551973 37.9012301 45.1131448 47.7295048 38.5008803"></polygon>
            <g id="Group-17" transform="translate(0.954061, 20.252635)">
                <mask id="mask-8" fill="white">
                    <use xlink:href="#path-7"></use>
                </mask>
                <g id="Clip-16"></g>
                <path d="M-2.76914594,0.173493328 C-1.01314879,0.147740412 0.652075757,0.363251655 2.30629015,1.04502622 C3.35041971,1.4760487 4.26169341,2.16324493 5.30912602,2.54953867 C10.663486,4.52844694 15.8427845,6.93431145 21.1795283,9.04469513 C24.1281697,10.2117088 26.9415086,11.4627584 30.1157359,11.8964917 C33.2143601,12.3207371 36.1915056,12.5308267 39.3378404,12.5308267 C40.4667482,12.5308267 41.7326712,12.7138079 42.8409043,12.4508571 C45.0853852,11.9181784 47.2211103,11.2133617 49.2751156,10.0748118 C49.4735431,9.96502302 50.8553173,9.23580888 51.1837869,9.59906053 C51.3716935,9.80779469 51.2158387,10.9111038 51.2551083,11.2106509 C51.4849758,12.9726925 51.593487,14.1925675 51.3983626,16.0427112 C51.1136889,18.7399902 50.1162914,21.9219663 48.6101024,24.1220786 C47.8137013,25.2852971 46.5975687,26.1552035 45.5360675,26.9731974 C44.6191664,27.6797761 43.5007795,28.7359168 42.3511971,28.8821662 C37.4729651,29.502676 32.208399,28.1356027 27.4813731,27.0604863 C26.0408781,26.7330176 24.6469926,26.3582449 23.2635057,25.7933073 C22.8933198,25.6420428 21.4512344,25.161141 21.0475288,24.7635973 C20.4291252,24.1547441 19.9665764,23.3751085 19.4031012,22.7040417 C18.0917919,21.1421951 16.5928207,19.713586 15.3998094,18.0308363 C14.0557143,16.1348795 12.8894944,14.0068754 11.3963952,12.2489 C10.0746875,10.6928817 8.52886191,9.81186094 7.10696175,8.4469564 C6.21513932,7.5903331 5.04476,5.94214648 3.89003957,5.51654566 C3.04568313,5.20479984 2.10982008,5.202089 1.24466669,4.96218026 C0.482886398,4.75073527 -0.602470067,3.93206363 -1.35397421,3.93206363" id="Fill-15" fill="#DFA700" mask="url(#mask-8)"></path>
            </g>
            <path d="M42.5579133,14.6412104 C44.3864552,14.4094341 46.2950041,15.3555149 46.8315656,17.2178574" id="Stroke-18" stroke="#504A7F" stroke-linecap="round" stroke-linejoin="round"></path>
            <path d="M53.5418871,20.6253748 C57.1540738,17.281562 63.8280619,17.7424036 66.4256018,25.2758092" id="Stroke-19" stroke="#504A7F" stroke-linecap="round" stroke-linejoin="round"></path>
            <path d="M125.5341,55.2778206 C133.699964,53.6841218 144.847133,50.8476414 152.288773,46.405399 C159.730414,41.9632921 178.726598,27.4038133 185.103924,22.3725068 C194.210544,36.2655272 180.924959,62.1939695 178.726598,67.56535 C176.528238,72.936595 170.876359,74.3555807 166.708404,78.458969 C162.540449,82.5622217 143.9076,84.1559206 139.501092,83.8170665" id="Stroke-20" stroke="#504A7F" stroke-linecap="round" stroke-linejoin="round"></path>
            <path d="M222.784339,145.320993 C239.391321,141.762889 256.397115,140.984473 273.449396,140.984473 C281.308199,140.984473 288.809783,144.901221 296.23919,142.167346" id="Stroke-21" stroke="#504A7F" stroke-linecap="round" stroke-linejoin="round" opacity="0.200000003"></path>
            <path d="M243.331732,129.537031 C255.548109,125.636955 255.714485,131.011589 266.225512,129.142063 C270.612446,128.361885 274.900289,126.50903 279.035214,125.595615 C285.926346,124.073347 295.369388,124.807712 302.162653,124.807712" id="Stroke-22" stroke="#504A7F" stroke-linecap="round" stroke-linejoin="round" opacity="0.200000003"></path>
            <path d="M107.257735,18.4241782 C116.187214,17.3439111 124.315643,18.0473724 133.679167,18.0473724" id="Stroke-23" stroke="#504A7F" stroke-linecap="round" stroke-linejoin="round" opacity="0.200000003"></path>
            <path d="M114.852416,29.4925103 L130.179162,29.4925103" id="Stroke-24" stroke="#504A7F" stroke-linecap="round" stroke-linejoin="round" opacity="0.200000003"></path>
        </g>
    </g>
</svg>