<?xml version="1.0" encoding="UTF-8"?>
<svg width="275px" height="270px" viewBox="0 0 275 270" version="1.1" xmlns="http://www.w3.org/2000/svg" xmlns:xlink="http://www.w3.org/1999/xlink">
    <!-- Generator: Sketch 40.1 (33804) - http://www.bohemiancoding.com/sketch -->
    <title>04 Forbidden</title>
    <desc>Created with Sketch.</desc>
    <defs>
        <path d="M23.4977209,9.83617928 C26.2565208,5.34607202 28.4945027,1.56717973 28.6108568,0.942267925 L14.8285398,1.78246038 C9.96910398,1.96203019 5.89557955,0.0664603774 5.89557955,0.0664603774 L0.944861238,9.83617928 L23.4977209,9.83617928 L23.4977209,9.83617928 Z" id="path-1"></path>
        <path d="M6.30432976,10.5283476 C3.12346852,6.67969274 0.642765307,3.56491764 0.466992614,3.00710943 C3.14961818,3.05555094 13.7612881,3.28368679 16.616625,3.23038868 L26.11575,0.794490566 L31.9010944,10.5283476 L6.30432976,10.5283476 L6.30432976,10.5283476 Z" id="path-3"></path>
        <path d="M0.504203797,0.173120794 C6.8082122,0.809001933 8.95514647,9.90025144 15.7317903,10.9061509 C21.0689696,11.6999611 4.66685497,18.0935459 0.504203796,19.6716939 L0.504203797,0.173120794 L0.504203797,0.173120794 Z" id="path-5"></path>
    </defs>
    <g id="Page-1" stroke="none" stroke-width="1" fill="none" fill-rule="evenodd">
        <g id="04-Forbidden" transform="translate(-662.000000, -396.000000)">
            <g id="Page-1" transform="translate(701.000000, 400.000000)">
                <path d="M54.9858568,236.445249 C54.6742795,238.11866 39.1489216,262.408653 39.1489216,262.408653 L38.0149744,252.599185 L27.8049705,263.871985 L31.2601932,246.711362 L22.8590545,254.142091 L32.2705795,235.569442 C32.2705795,235.569442 36.344104,237.465011 41.2035398,237.285442" id="Fill-1" fill="#FFC000"></path>
                <g id="Group-4" transform="translate(26.375000, 235.502981)">
                    <mask id="mask-2" fill="white">
                        <use xlink:href="#path-1"></use>
                    </mask>
                    <g id="Clip-3"></g>
                    <path d="M-6.87050284,-0.396535849 C-2.41123977,2.4130717 2.24014602,5.55579245 7.32803864,7.13045283 C11.7437506,8.49715094 14.7847398,7.73553585 19.0077068,8.44995472 C21.4262881,8.85915472 23.4924784,8.97521509 25.8522034,8.92042264 C28.2643142,8.86450943 31.3479835,10.6508679 33.4352028,9.37681887 C36.3396903,7.60378491 35.2777892,1.23727547 32.6706937,-0.502509434 C26.9129847,-4.34458113 10.762108,-10.8155698 3.97783636,-9.23244151 C1.07745511,-8.55563019 -3.49790284,-8.63682264 -4.86366648,-5.77852453" id="Fill-2" fill="#DFA700" mask="url(#mask-2)"></path>
                </g>
                <path d="M122.627989,236.488087 C119.772652,236.541385 109.160982,236.313249 106.478356,236.264808 C106.989895,237.888158 127.02292,261.167604 127.02292,261.167604 L126.963193,251.292883 L138.460693,261.246555 L132.95583,244.630494 L142.193648,250.989158 L132.127114,234.052189" id="Fill-5" fill="#FFC000"></path>
                <g id="Group-8" transform="translate(106.011364, 233.257698)">
                    <mask id="mask-4" fill="white">
                        <use xlink:href="#path-3"></use>
                    </mask>
                    <g id="Clip-7"></g>
                    <path d="M-5.40581591,9.97297358 C1.96851136,11.0579887 10.6641801,10.5213962 17.9393352,8.64126792 C21.5105284,7.71863774 24.6213239,5.01238868 28.192517,4.09187547 C30.2692841,3.55677736 34.5372955,3.7439434 36.021767,1.94326415 C36.9363409,0.834588679 35.1283466,-1.72807925 34.5074318,-2.56092453 C31.5148466,-6.57584151 27.4123295,-10.1364792 22.9265625,-11.8677962 C15.8758824,-14.5891132 4.199325,-4.59646415 -0.0605982955,-0.223777358 C-0.713616477,0.446558491 0.274372159,1.22149811 -0.111988636,1.83081509 C-0.714611932,2.78121509 -5.89993466,2.88606792 -5.38441364,4.04966038" id="Fill-6" fill="#DFA700" mask="url(#mask-4)"></path>
                </g>
                <path d="M131.933,114.258453 C144.806716,119.628113 159.717381,123.952981 162.549449,124.51834 C161.647318,133.224113 162.517097,146.71414 162.517097,146.71414 C162.517097,146.71414 140.023557,149.479042 130.922614,149.410675 L123,130" id="Stroke-9" stroke="#504A7F" stroke-linecap="round" stroke-linejoin="round" fill="#3A385A"></path>
                <polygon id="Fill-10" fill="#FFFFFF" points="171.488631 82.2073585 166.274938 81.7216981 151.308278 242.686981 156.521972 243.172517"></polygon>
                <polygon id="Stroke-11" stroke="#504A7F" stroke-linecap="round" stroke-linejoin="round" points="171.488631 82.2073585 166.274938 81.7216981 151.308278 242.686981 156.521972 243.172517"></polygon>
                <path d="M176.236949,0.423396226 C201.311205,2.75830189 219.774398,25.0264528 217.440057,50.1201509 C215.10696,75.2126038 192.856063,93.6901132 167.783051,91.3552075 C142.708795,89.0190566 124.245602,66.7509057 126.579943,41.6584528 C128.91304,16.5647547 151.163937,-1.91150943 176.236949,0.423396226 L176.236949,0.423396226 Z" id="Fill-12" fill="#FFFFFF"></path>
                <path d="M176.236949,0.423396226 C201.311205,2.75830189 219.774398,25.0264528 217.440057,50.1201509 C215.10696,75.2126038 192.856063,93.6901132 167.783051,91.3552075 C142.708795,89.0190566 124.245602,66.7509057 126.579943,41.6584528 C128.91304,16.5647547 151.163937,-1.91150943 176.236949,0.423396226 L176.236949,0.423396226 Z" id="Stroke-13" stroke="#504A7F" stroke-linecap="round" stroke-linejoin="round"></path>
                <path d="M175.68696,6.34596226 C197.493636,8.37701887 213.551563,27.7449057 211.52208,49.5684906 C209.492597,71.3920755 190.14096,87.4624528 168.33304,85.4313962 C146.526364,83.4003396 130.468438,64.0336981 132.49792,42.2088679 C134.527403,20.385283 153.87904,4.31615094 175.68696,6.34596226 L175.68696,6.34596226 Z" id="Fill-14" fill="#FF0400"></path>
                <path d="M17.8087403,115.122679 C4.80536648,125.644075 -0.0157443182,178.817536 0.0789482955,202.299713 C16.8881938,199.623725 19.137921,176.015898 24.4402097,167.760792 L25.9262295,143.348416" id="Stroke-22" stroke="#504A7F" stroke-linecap="round" stroke-linejoin="round" fill="#3A385A"></path>
                <polygon id="Fill-15" fill="#FFFFFF" points="198.438074 42.0581887 146.742875 37.2439245 145.581926 49.7191698 197.277125 54.533434"></polygon>
                <path d="M67.5,26 C48.897692,27.9115094 36.759046,31.0833585 29,46 C21.240954,60.9166415 14.5796102,86.2844151 16.9328648,107.291094 C19.2859949,128.297774 23.8178017,143.898679 24.2365148,165.158525 C24.7632347,191.905958 23.2145563,203.452098 26.2870267,225.386264 C28.4761557,241.013694 40.4661568,237.398264 61.7774699,235.570438 C83.0889074,233.742736 77.268858,235.66346 95.2446517,235.814887 C113.220445,235.966313 124.468335,238.573064 133.874136,232.99843 C143.278693,227.423796 134.595841,204.366634 131.702801,180.899026 C128.809761,157.431419 130.525676,129.13834 131.852119,104.50166 C132.892369,85.1835849 120.916056,61.8407547 113.153003,47.4789057 C105.389951,33.1183019 85.905629,24.5716604 72,26 L67.5,26 Z" id="Stroke-16" stroke="#FFFFFF" stroke-linecap="round" stroke-linejoin="round" fill="#3A385A"></path>
                <path d="M74.3733295,106.59 C85.1740114,106.018415 94.4280057,97.5592075 101.831948,101.251472 C109.23589,104.944981 112.579622,116.044189 114.516776,143.832679 C116.453931,171.621917 120.304847,199.5642 120.078878,207.117962 C119.852786,214.671725 121.050318,229.795687 113.445916,230.439623 C105.841514,231.083558 83.4090705,227.823781 66.3774653,229.724581 C49.3458602,231.625381 39.6726551,230.726038 39.2279358,220.197045 C38.7832165,209.668053 39.9898318,202.58314 38.7157744,184.9254 C37.4415926,167.26766 30.2254182,111.715585 38.2673222,104.832906 C46.3092261,97.9502264 62.2389875,107.233811 74.3733295,106.59 L74.3733295,106.59 Z" id="Stroke-17" stroke="#504A7F" stroke-linecap="round" stroke-linejoin="round" fill="#FFFFFF"></path>
                <path d="M72.4715136,73.8191321 C80.1376335,72.8316226 82.0418136,83.4314717 89.3908812,84.5223396 C95.4861739,85.4289057 73.2276858,93.6390566 73.2276858,93.6390566 C73.2276858,93.6390566 53.5679562,85.9120755 56.3828528,84.8124906 C64.2206886,81.7478491 65.587821,74.7057736 72.4715136,73.8191321 L72.4715136,73.8191321 Z" id="Fill-18" fill="#FFC000"></path>
                <g id="Group-21" transform="translate(73.659091, 73.616189)">
                    <mask id="mask-6" fill="white">
                        <use xlink:href="#path-5"></use>
                    </mask>
                    <g id="Clip-20"></g>
                    <path d="M1.9651517,-2.40218868 C0.360478977,1.26890566 0.471223295,4.74075472 1.68891307,8.38943396 C2.07564716,9.54879245 0.794994886,10.369434 0.582838636,11.4341509 C0.247868182,13.115283 1.07944602,14.3070189 1.27405739,15.8611321 C1.43569432,17.1537358 1.27405739,18.5671321 1.27405739,19.873434 C1.27405739,20.3466415 0.465250568,22.1161887 0.720584659,22.4611321 C1.0512,22.9081887 3.08366932,22.6479245 3.16815852,22.6479245 C5.72050398,22.6479245 8.30669489,22.768717 10.7719381,21.9567925 C12.708346,21.3179623 16.8224352,18.1611698 17.8229915,16.5597358 C18.3240784,15.7577736 18.0869114,14.5697736 18.6527028,13.9321887 C20.4025875,11.9559245 23.6902006,9.30845283 21.555946,6.32101887 C19.8962744,3.99856604 15.3546375,3.33732075 12.9839625,2.30871698 C12.2826648,2.00486792 8.63021761,-0.320075472 8.14493352,-0.320075472" id="Fill-19" fill="#DFA700" mask="url(#mask-6)"></path>
                </g>
                <path d="M166.629881,144.819962 C167.276926,136.036981 168.305977,126 168.305977,126 C161.815614,134.297321 151,137.63717 151,137.63717 C151,137.63717 160.652176,143.952 166.629881,144.819962 L166.629881,144.819962 Z" id="Stroke-24" stroke="#FFFFFF" stroke-linecap="round" stroke-linejoin="round" fill="#504A7F"></path>
                <path d="M56.1655949,56.4424528 C56.1655949,56.4424528 63.2455165,56.1709811 64.547571,56.9816604 C65.84975,57.7910943 67.2435108,60.8258491 68.1361847,65.9850566 C69.0288585,71.1442642 62.1867261,72.8054717 57.6699756,75.6011321 C53.153225,78.3980377 48.5531051,78.5387547 45.9140307,78.1651698 C43.2749563,77.7915849 40.1779727,76.3221509 40.4574466,69.6561509 C40.7370449,62.9913962 42.1711216,60.5543774 45.3993807,58.9915472 C48.6276398,57.428717 52.6283716,56.0775849 68.1108006,56.3116981 C83.593354,56.5458113 88.1496739,55.0452453 94.9405403,56.1 C101.731407,57.1547547 103.374529,62.7697358 103.220109,68.1904528 C103.065565,73.6099245 99.7422398,78.4540755 94.7464267,78.0879623 C89.7504892,77.7218491 77.5133665,72.2015094 75.8387631,67.9824906 C74.1641597,63.7634717 75.3486261,62.2417358 76.2475216,59.184566 C77.1462926,56.1261509 81.9700165,56.3478113 81.9700165,56.3478113" id="Fill-25" fill="#000000"></path>
                <path d="M56.1655949,56.4424528 C56.1655949,56.4424528 63.2455165,56.1709811 64.547571,56.9816604 C65.84975,57.7910943 67.2435108,60.8258491 68.1361847,65.9850566 C69.0288585,71.1442642 62.1867261,72.8054717 57.6699756,75.6011321 C53.153225,78.3980377 48.5531051,78.5387547 45.9140307,78.1651698 C43.2749563,77.7915849 40.1779727,76.3221509 40.4574466,69.6561509 C40.7370449,62.9913962 42.1711216,60.5543774 45.3993807,58.9915472 C48.6276398,57.428717 52.6283716,56.0775849 68.1108006,56.3116981 C83.593354,56.5458113 88.1496739,55.0452453 94.9405403,56.1 C101.731407,57.1547547 103.374529,62.7697358 103.220109,68.1904528 C103.065565,73.6099245 99.7422398,78.4540755 94.7464267,78.0879623 C89.7504892,77.7218491 77.5133665,72.2015094 75.8387631,67.9824906 C74.1641597,63.7634717 75.3486261,62.2417358 76.2475216,59.184566 C77.1462926,56.1261509 81.9700165,56.3478113 81.9700165,56.3478113" id="Stroke-26" stroke="#000000" stroke-linecap="round" stroke-linejoin="round"></path>
                <path d="M27.0217966,67.254 C20.9029864,63.2030943 13.5990875,63.4670943 10.7023148,65.859283 C8.72832841,67.4893585 8.60812727,69.4195472 9.71370398,70.0359623 C13.2321381,71.9997736 16.4572864,69.5976226 12.6475574,68.6113585 C7.67103125,67.3224906 5.34726705,73.3558868 9.36616591,75.0980377 C13.7087119,76.9809057 14.6884881,73.8465283 10.804971,72.8615094 C6.8925858,71.8677736 3.90211591,75.6310189 6.85314091,78.4777358 C10.640721,82.1301509 15.3332938,80.2323396 12.1742188,78.3009057 C9.6382983,76.7505283 2.70881477,79.7989811 7.75589375,83.8810189 C10.7304364,86.2856604 14.7487131,85.1599245 11.7131989,83.2857736 C7.9903233,80.9869811 6.03052216,84.8784906 8.72969716,87.8397736 C11.196558,90.5457736 14.4739676,89.6616226 17.2770432,89.4947547" id="Stroke-27" stroke="#000000" stroke-linecap="round" stroke-linejoin="round"></path>
                <path d="M27.6271574,65.9763396 C28.4338489,65.9763396 29.0887335,66.6326038 29.0887335,67.4395472 C29.0887335,68.2464906 28.4338489,68.9027547 27.6271574,68.9027547 C26.8205903,68.9027547 26.1657057,68.2464906 26.1657057,67.4395472 C26.1657057,66.6326038 26.8205903,65.9763396 27.6271574,65.9763396 L27.6271574,65.9763396 Z" id="Fill-28" fill="#000000"></path>
                <path d="M27.6271574,65.9763396 C28.4338489,65.9763396 29.0887335,66.6326038 29.0887335,67.4395472 C29.0887335,68.2464906 28.4338489,68.9027547 27.6271574,68.9027547 C26.8205903,68.9027547 26.1657057,68.2464906 26.1657057,67.4395472 C26.1657057,66.6326038 26.8205903,65.9763396 27.6271574,65.9763396 L27.6271574,65.9763396 Z" id="Stroke-29" stroke="#000000" stroke-linecap="round" stroke-linejoin="round"></path>
                <path d="M43.8799438,71.4269434 C44.2151631,70.3136604 44.471617,69.0546792 45.056571,68.0298113 C45.4247648,67.3835094 45.8134898,66.783283 46.135146,66.1083396 C46.3439426,65.67 46.4963716,65.2030189 46.7042972,64.7671698 C46.8171568,64.530566 46.961,64.2628302 47.145408,64.0785283 C47.350596,63.8730566 47.3799619,63.2529057 47.7686869,63.2466792 C47.8141045,63.2466792 48.0454233,63.9863774 48.0690653,64.0810189 C48.3158136,65.0710189 48.2893097,66.0074717 48.8496261,66.915283 C49.0082767,67.1718113 49.2648551,67.3610943 49.4151688,67.6176226 C49.451254,67.6786415 49.6375284,68.2888302 49.7969256,68.178 C50.6836267,67.5603396 51.5556449,66.5018491 52.2996227,65.7023774 C52.6781443,65.2951698 52.796479,64.754717 53.2583699,64.4234717 C53.5678318,64.2018113 53.9458557,63.9502642 54.1400938,63.6078113 C54.2670142,63.3849057 54.5019415,62.7647547 54.611317,62.9976226 C54.959104,63.7373208 54.7824108,64.5069057 55.8639722,64.2740377 C56.6421688,64.1059245 56.6869642,62.9116981 57.6243091,62.9042264 C58.0652955,62.9004906 58.4878659,63.8369434 58.7679619,64.0922264 C59.0587591,64.3562264 59.3933563,64.5828679 59.7003295,64.8281887 C60.3088011,65.3150943 61.317321,65.5653962 62.0197386,65.876717 C62.3492341,66.0236604 62.7625966,66.1780755 63.0628506,66.3748302 C63.1721017,66.4458113 63.3550165,66.7372075 63.4300489,66.6350943" id="Stroke-30" stroke="#FFFFFF" stroke-linecap="round" stroke-linejoin="round"></path>
                <path d="M79.0809585,66.4756981 C80.1059034,65.480717 80.8924369,64.3076604 81.9404017,63.3400755 C82.525729,62.7983774 82.8544778,62.0823396 83.6451176,61.8071321 C83.6619159,61.8009057 84.0510142,63.0038491 84.1249267,63.1420755 C84.4238119,63.6999623 85.6996114,65.604 86.4744483,65.6376226 C88.827454,65.7372453 90.0791136,62.2392453 92.1281324,61.6166038 C92.7565131,61.4260755 92.8291812,62.0736226 93.0208062,62.5318868 C93.4431278,63.540566 93.8737864,64.4956981 94.8125,65.1233208 C94.905575,65.1855849 95.0502892,64.7273208 95.0795307,64.662566 C95.1875375,64.4259623 95.448471,64.1993208 95.630017,64.0262264 C95.8167892,63.8481509 96.4256341,63.368717 96.2347557,63.5430566 C96.1359568,63.632717 96.8019159,64.4396604 96.9086784,64.622717 C97.4320386,65.520566 97.746229,66.4159245 98.1413,67.3486415 C98.2409699,67.584 98.6300682,68.0123774 98.5286562,68.2651698" id="Stroke-31" stroke="#FFFFFF" stroke-linecap="round" stroke-linejoin="round"></path>
            </g>
        </g>
    </g>
</svg>