<?xml version="1.0" encoding="UTF-8" standalone="no"?>
<svg width="320px" height="300px" viewBox="0 0 320 300" version="1.1" xmlns="http://www.w3.org/2000/svg" xmlns:xlink="http://www.w3.org/1999/xlink">
    <!-- Generator: Sketch 39.1 (31720) - http://www.bohemiancoding.com/sketch -->
    <title>improve-penguin</title>
    <desc>Created with Sketch.</desc>
    <defs>
        <path d="M19.9285253,10.032238 C20.4341261,5.06396044 20.8152573,0.649410787 20.6471242,0.0218079254 L0.816840919,0.964323077 L1.02005371,10.032238 L19.9285253,10.032238 L19.9285253,10.032238 Z" id="path-1"></path>
        <path d="M1.85612206,12.2017412 C1.10757397,6.60545556 0.512976491,1.60472963 0.683481485,0.967733333 L21.6497938,4.54560606 L21.47822,12.2017412 L1.85612206,12.2017412 L1.85612206,12.2017412 Z" id="path-3"></path>
        <path d="M12.3612223,17.1365348 C15.2141472,15.7179775 17.1879484,12.6785497 17.1879484,9.16145455 C17.1879484,4.28939394 13.4003794,0.333939394 8.73510049,0.333939394 C4.06993663,0.333939394 0.282367603,4.28939394 0.282367603,9.16145455 C0.282367603,12.678549 2.25616807,15.7179762 5.1090487,17.1365339 L12.3612237,17.1365339 L12.3612223,17.1365348 Z" id="path-5"></path>
        <path d="M9.36252632,0.62429503 C11.6077857,4.0293328 13.2032795,7.61749301 14.3006378,11.3450544 C13.2411692,14.2975973 10.6444461,16.3860606 7.612649,16.3860606 C3.63948138,16.3860606 0.414231203,12.8013939 0.414231203,8.38533333 C0.414231203,3.97042424 3.63948138,0.385757576 7.612649,0.385757576 C8.21607298,0.385757576 8.80226209,0.468489231 9.36252632,0.62429503 L9.36252632,0.62429503 L9.36252632,0.62429503 Z" id="path-7"></path>
        <path d="M49.7599835,118.478242 C74.2520938,131.288848 88.6374229,122.577636 93.2480464,115.965636 C94.3146917,114.436424 95.5401257,112.516848 96.5584441,110.319758 C98.5789718,123.100424 102.040104,133.330485 100.895215,149.62903 C99.8527328,164.459048 102.304751,189.60503 79.1457752,197.571558 C50.0253216,199.623558 29.4823306,203.100903 11.6447295,195.332321 C9.68023802,192.119133 6.03845536,184.171261 3.30245827,173.680958 C7.80054887,174.600558 13.4763218,174.513733 18.3727648,170.596739 C15.9045221,160.842139 14.797144,155.38223 14.797144,155.38223 C14.797144,155.38223 17.9105518,154.634552 21.1211888,153.315606 C23.2246778,146.229758 25.7291657,95.8290909 24.6255848,78.2431515 C23.7239415,63.8745455 17.1181045,58.8113333 9.68207905,57.610303 C9.85502058,57.6183636 10.0050643,57.6218182 10.1249612,57.6195152 C10.7610363,50.048303 9.98032552,45.2338182 5.30779755,42.6475152 C20.1347432,3.48448485 54.7781644,-4.77648485 70.6975298,2.76939394 C109.73675,21.2753939 98.2705997,54.1177576 95.6436835,84.1849697 C95.4273628,86.6549697 95.2984908,88.9913939 95.24326,91.2161212 C92.1837023,86.982 86.7940941,82.726 77.9226425,78.7970303 C85.1935508,89.8216364 65.5548494,105.296848 50.9196008,99.4655758 L49.7599835,118.478242 Z M3.16426613,48.9992727 C5.48223491,51.4381818 4.70578153,57.0748485 4.70578153,57.0748485 C4.70578153,57.0748485 5.59361708,57.1946061 6.67073327,57.3224242 C5.98644633,57.2982424 5.30077863,57.2993939 4.61718208,57.3224242 C3.23422518,57.3696364 1.97404181,57.7530909 0.826621378,58.4347879 C1.48870092,55.1287879 2.27240334,51.9851515 3.16426613,48.9992727 L3.16426613,48.9992727 Z" id="path-9"></path>
        <polygon id="path-11" points="4.1402574 0.260242424 0.174552426 1.62018182 12.3419036 11.02 50.3774181 13.984 26.6208762 0.260242424 4.1402574 0.260242424"></polygon>
    </defs>
    <g id="Page-1" stroke="none" stroke-width="1" fill="none" fill-rule="evenodd">
        <g id="improve-penguin" transform="translate(86.000000, 26.000000)">
            <path d="M116.150429,198.707067 C116.557757,200.227527 113.74133,223.974418 113.74133,223.974418 L108.885274,216.243721 L104.861018,229.723933 L100.903269,214.028667 L96.8564604,223.581406 L96.3201461,199.649582" id="Fill-1" fill="#FFC000"></path>
            <g id="Group-4" transform="translate(95.503305, 198.685259)">
                <mask id="mask-2" fill="white">
                    <use xlink:href="#path-1"></use>
                </mask>
                <g id="Clip-3"></g>
                <path d="M-7.27942301,9.12994732 C-2.43936153,9.69361399 2.69376853,10.4584503 7.56593292,9.74094126 C11.7945431,9.11820186 14.0278246,7.26886853 17.835645,6.17895944 C20.0165722,5.55472308 21.78626,4.8267352 23.7331466,3.8389655 C25.7237577,2.82931702 29.0076906,3.08852308 30.2411791,1.19243823 C31.9579373,-1.44625874 28.533626,-6.3334042 25.665075,-6.7440345 C19.3305593,-7.65062238 3.27748933,-6.60124662 -1.75127747,-2.5720951 C-3.90113742,-0.849658741 -7.75049594,0.909165501 -7.75049594,3.8389655" id="Fill-2" fill="#DFA700" mask="url(#mask-2)"></path>
            </g>
            <path d="M50.1610974,197.4784 C49.7541152,198.998861 53.7062261,225.381224 53.7062261,225.381224 L58.5622815,217.650527 L62.5865377,231.130739 L66.5442867,215.435358 L70.5910954,224.988212 L71.1274097,201.056273" id="Fill-5" fill="#FFC000"></path>
            <g id="Group-8" transform="translate(49.477616, 196.510667)">
                <mask id="mask-4" fill="white">
                    <use xlink:href="#path-3"></use>
                </mask>
                <g id="Clip-7"></g>
                <path d="M-7.25008163,3.16447879 C-1.42253899,6.8476 6.12924103,9.6555697 12.983962,10.7953394 C16.3480947,11.3547455 19.9917184,10.2339758 23.3553908,10.7953394 C25.3107922,11.1216788 28.848902,12.8808485 30.7781838,11.9155333 C31.9661069,11.3211212 31.3980348,8.47687879 31.185166,7.54000606 C30.1589082,3.02353333 28.0242367,-1.52529697 24.8806821,-4.67123636 C19.9392491,-9.61641818 6.32600086,-5.54903636 1.08724184,-3.4504 C0.284208631,-3.12866667 0.829152791,-2.10301212 0.274313108,-1.7328 C-0.591084914,-1.1554303 -5.01369339,-3.01178788 -5.01369339,-1.83470909" id="Fill-6" fill="#DFA700" mask="url(#mask-4)"></path>
            </g>
            <g id="Group-12" transform="translate(86.298167, 22.631879)">
                <mask id="mask-6" fill="white">
                    <use xlink:href="#path-5"></use>
                </mask>
                <g id="Clip-10"></g>
                <path d="M0.282367603,15.0664242 C5.22966894,10.0285455 12.5713417,9.35030303 19.1123976,15.4947879 C25.6534535,21.6392727 27.2887462,8.90236364 23.9141427,4.11551515 C20.5395391,-0.671333333 21.3888282,4.39187879 19.5613782,4.04987879 C7.28920347,1.75260606 11.9176618,-8.54193939 11.9176618,-8.54193939 C11.9176618,-8.54193939 -4.97445649,7.10484848 -3.29820089,10.1218182 C-1.62194529,13.1387879 -4.66493373,20.1031515 0.282367603,15.0664242 L0.282367603,15.0664242 Z" id="Stroke-9" stroke="#504A7F" stroke-linecap="round" stroke-linejoin="round" mask="url(#mask-6)"></path>
                <path d="M5.07928,8.57648485 C4.88666249,8.97606061 4.67667028,9.36412121 4.50142747,9.77636364 C4.33159268,10.1759394 5.28409432,10.0158788 5.33633347,10.0158788 C5.48373074,10.0158788 6.419433,10.0492727 6.49238372,9.77636364 C6.67050314,9.10848485 6.63655919,7.89018182 5.9785069,7.61727273 C5.1767394,7.28333333 4.0198837,8.65593939 4.43710657,9.69575758 C4.63052953,10.1782424 5.33633347,9.98593939 5.33633347,9.53569697" id="Stroke-11" stroke="#000000" stroke-linecap="round" stroke-linejoin="round" mask="url(#mask-6)"></path>
            </g>
            <path d="M95.0332678,22.9658182 C99.6985467,22.9658182 103.486116,26.9212727 103.486116,31.7933333 C103.486116,36.6653939 99.6985467,40.6208485 95.0332678,40.6208485 C90.3681039,40.6208485 86.5805349,36.6653939 86.5805349,31.7933333 C86.5805349,26.9212727 90.3681039,22.9658182 95.0332678,22.9658182 L95.0332678,22.9658182 Z" id="Stroke-13" stroke="#504A7F" stroke-linecap="round" stroke-linejoin="round"></path>
            <path d="M87.7401521,100.218667 C102.375401,106.049939 122.014102,90.5747273 114.743194,79.5501212 C144.220347,92.603697 135.260295,109.27303 130.068598,116.718727 C125.457974,123.330727 111.072645,132.041939 86.5805349,119.231333" id="Stroke-14" stroke="#504A7F" stroke-linecap="round" stroke-linejoin="round"></path>
            <path d="M41.4377335,58.0755152 C50.6946502,57.7646061 60.3425552,61.410303 61.4461361,78.9962424 C62.5497171,96.5821818 60.0452292,146.982848 57.9417402,154.068697 C46.0488171,158.892164 35.6526495,157.823212 27.4430473,152.41823 C27.0433142,128.844182 21.5919165,58.7445455 41.4377335,58.0755152 L41.4377335,58.0755152 Z" id="Stroke-15" stroke="#504A7F" stroke-linecap="round" stroke-linejoin="round"></path>
            <path d="M30.3787959,154.117406 C20.5685353,157.210261 12.5900972,154.034958 5.08848514,149.618667 C3.50807803,126.094364 -6.80719944,59.2143636 12.9801649,57.5515758 C20.1284147,56.9504848 27.6297966,58.7088485 31.5708613,67.6664848 C23.7799778,87.8041818 27.1328342,134.122727 27.4430473,152.41823 C28.3926724,153.043503 29.3716388,153.610739 30.3787959,154.117406 L30.3787959,154.117406 Z" id="Stroke-16" stroke="#504A7F" stroke-linecap="round" stroke-linejoin="round"></path>
            <path d="M14.3519605,57.1830909 C14.5246719,46.2275758 16.3360129,40.5333333 30.9502048,41.0837576 C45.5643968,41.6341818 47.9210271,46.7630303 46.9455126,58.3726061 C45.7441271,58.3979394 41.5263329,57.8279394 41.5263329,57.8279394 C41.5263329,57.8279394 42.5791705,50.1853333 38.5733247,48.8472727 C34.5675939,47.5092121 28.0779717,46.5269697 24.358981,47.6082424 C21.5860482,48.4131515 19.4547136,51.0409091 19.8401788,57.8244848" id="Stroke-17" stroke="#504A7F" stroke-linecap="round" stroke-linejoin="round"></path>
            <path d="M11.0887392,153.152552 L7.66247181,167.813412 C7.66247181,167.813412 20.8083292,174.632109 30.7448152,167.704594 C28.2764575,159.202958 27.4430473,154.932679 27.4430473,154.932679" id="Stroke-18" stroke="#504A7F" stroke-linecap="round" stroke-linejoin="round"></path>
            <path d="M36.7009997,156.420091 L32.1109727,171.47477 C32.1109727,171.47477 45.2568301,179.298509 55.1933161,171.34983 C52.7250735,161.59523 51.8915483,156.695533 51.8915483,156.695533" id="Stroke-19" stroke="#504A7F" stroke-linecap="round" stroke-linejoin="round"></path>
            <path d="M7.66247181,195 C7.26515504,197.628564 6.40804165,200.454152 6.07665668,203.106091 C5.38120852,208.671018 7.20923383,214.276824 6.4197782,219.804442" id="Stroke-20" stroke="#504A7F" stroke-linecap="round" stroke-linejoin="round" opacity="0.200000003"></path>
            <path d="M21.2699668,191.757788 C21.2699668,209.807212 20.8887792,243.21255 19,246.999998" id="Stroke-21" stroke="#504A7F" stroke-linecap="round" stroke-linejoin="round" opacity="0.200000003"></path>
            <path d="M33.0169267,192.748982 C32.8492781,194.933982 33.9822004,196.813139 33.9822004,198.832667 C33.9822004,204.030145 33.0225648,209.660939 33.7554088,214.808327 C34.4447586,219.650333 34.4370493,224.874067 34.4370493,229.811073" id="Stroke-22" stroke="#504A7F" stroke-linecap="round" stroke-linejoin="round" opacity="0.200000003"></path>
            <g id="Group-32" transform="translate(36.820551, 0.753091)">
                <g id="Group-27" transform="translate(82.846241, 19.575758)">
                    <mask id="mask-8" fill="white">
                        <use xlink:href="#path-7"></use>
                    </mask>
                    <g id="Clip-25"></g>
                    <path d="M-0.976895254,12.7115758 C4.34482506,9.73836364 11.1152039,9.06127273 14.8191213,16.1776364 C18.5230386,23.2928485 23.1635787,12.7587879 21.6734971,7.69212121 C20.184566,2.62545455 19.5551647,7.22921212 18.161737,6.42775758 C8.81046756,1.0409697 8.71036169,-6.59242424 8.71036169,-6.59242424 C8.71036169,-6.59242424 -2.52450905,2.25581818 -1.95033858,5.32460606 C-1.37731875,8.39224242 -6.29873063,15.6859394 -0.976895254,12.7115758 L-0.976895254,12.7115758 Z" id="Stroke-24" stroke="#504A7F" stroke-linecap="round" stroke-linejoin="round" mask="url(#mask-8)"></path>
                    <path d="M3.98122212,7.22345455 C3.77755844,7.64836364 3.55433385,8.06060606 3.36908045,8.49818182 C3.18958026,8.92193939 4.19754286,8.75266667 4.25392433,8.75266667 C4.40926103,8.75266667 5.40111463,8.78836364 5.47820766,8.49818182 C5.66691299,7.78884848 5.63124308,6.49569697 4.93395388,6.20551515 C4.08477992,5.85084848 2.8581953,7.30751515 3.30119256,8.4129697 C3.50600688,8.92539394 4.25392433,8.72042424 4.25392433,8.24369697" id="Stroke-26" stroke="#000000" stroke-linecap="round" stroke-linejoin="round" mask="url(#mask-8)"></path>
                </g>
                <mask id="mask-10" fill="white">
                    <use xlink:href="#path-9"></use>
                </mask>
                <g id="Clip-29"></g>
                <path d="M90.4588896,19.9615152 C94.4309066,19.9615152 97.6561568,23.5461818 97.6561568,27.9610909 C97.6561568,32.3771515 94.4309066,35.9618182 90.4588896,35.9618182 C86.485722,35.9618182 83.2604718,32.3771515 83.2604718,27.9610909 C83.2604718,23.5461818 86.485722,19.9615152 90.4588896,19.9615152 L90.4588896,19.9615152 Z" id="Stroke-28" stroke="#504A7F" stroke-linecap="round" stroke-linejoin="round" mask="url(#mask-10)"></path>
                <path d="M54.7306429,100.504242 C54.8073907,97.4653939 54.8790757,94.7259394 54.9330409,92.4229091 C55.2292162,79.7838788 55.7606978,73.0544242 69.0389941,67.526 C82.3169452,61.9964242 86.5110361,67.0435152 102.24837,70.5233939 C117.985704,74.0032727 107.756494,76.6241212 108.897931,82.8457576 C110.038218,89.0662424 114.454383,188.087333 85.9690836,191.914509 C57.4835544,195.74157 53.5396131,188.497042 52.0718539,181.19137 C50.6039796,173.885812 55.2292162,163.232685 54.5186946,147.047333 C54.1900712,139.560182 54.1907616,130.016424 54.3157213,120.669576 C76.0444492,130.188 88.9308367,122.156182 93.2480464,115.965636 C98.4397441,108.519939 107.399795,91.8506061 77.9226425,78.7970303 C84.5768065,88.8866061 68.6916152,102.704788 54.7306429,100.504242 L54.7306429,100.504242 Z" id="Fill-30" fill="#FFFFFF" mask="url(#mask-10)"></path>
                <path d="M54.7306429,100.504242 C54.8073907,97.4653939 54.8790757,94.7259394 54.9330409,92.4229091 C55.2292162,79.7838788 55.7606978,73.0544242 69.0389941,67.526 C82.3169452,61.9964242 86.5110361,67.0435152 102.24837,70.5233939 C117.985704,74.0032727 107.756494,76.6241212 108.897931,82.8457576 C110.038218,89.0662424 114.454383,188.087333 85.9690836,191.914509 C57.4835544,195.74157 53.5396131,188.497042 52.0718539,181.19137 C50.6039796,173.885812 55.2292162,163.232685 54.5186946,147.047333 C54.1900712,139.560182 54.1907616,130.016424 54.3157213,120.669576 C76.0444492,130.188 88.9308367,122.156182 93.2480464,115.965636 C98.4397441,108.519939 107.399795,91.8506061 77.9226425,78.7970303 C84.5768065,88.8866061 68.6916152,102.704788 54.7306429,100.504242 L54.7306429,100.504242 Z" id="Stroke-31" stroke="#504A7F" stroke-linecap="round" stroke-linejoin="round" mask="url(#mask-10)"></path>
            </g>
            <path d="M86.5805349,119.231333 C111.072645,132.041939 125.457974,123.330727 130.068598,116.718727 C131.135243,115.189515 132.360677,113.269939 133.378995,111.072848 C135.399523,123.853515 138.860655,134.083576 137.715766,150.382121 C136.673284,165.212139 139.125303,190.358121 115.966327,198.324648 C86.845873,200.376648 66.3028819,203.853994 48.4652809,196.085412 C46.5007894,192.872224 42.8590067,184.924352 40.1230096,174.434048 C44.6211003,175.353648 50.2968732,175.266824 55.1933161,171.34983 C52.7250735,161.59523 51.6176954,156.135321 51.6176954,156.135321 C51.6176954,156.135321 54.7311031,155.387642 57.9417402,154.068697 C60.0452292,146.982848 62.5497171,96.5821818 61.4461361,78.9962424 C60.5444929,64.6276364 53.9386558,59.5644242 46.5026304,58.3633939 C46.675572,58.3714545 46.8256157,58.3749091 46.9455126,58.3726061 C47.5815876,50.8013939 46.8008769,45.9869091 42.1283489,43.4006061 C56.9552946,4.23757576 91.5987158,-4.02339394 107.518081,3.52248485 C146.557301,22.0284848 135.091151,54.8708485 132.464235,84.9380606 C132.247914,87.4080606 132.119042,89.7444848 132.063811,91.9692121 C129.004254,87.7350909 123.614645,83.4790909 114.743194,79.5501212 C122.014102,90.5747273 102.375401,106.049939 87.7401521,100.218667" id="Stroke-33" stroke="#504A7F" stroke-linecap="round" stroke-linejoin="round"></path>
            <path d="M41.5263329,57.8279394 C41.5263329,57.8279394 38.7945932,58.5061818 37.6471728,59.1878788 C38.3092523,55.8818788 39.0929547,52.7382424 39.9848175,49.7523636 C42.3027863,52.1912727 41.5263329,57.8279394 41.5263329,57.8279394 Z" id="Path" stroke="#504A7F" stroke-linecap="round" stroke-linejoin="round"></path>
            <path d="M33.4237404,155.54137 C34.0168965,159.010655 34.8607775,162.600848 34.8607775,162.600848" id="Stroke-34" stroke="#504A7F" stroke-linecap="round" stroke-linejoin="round"></path>
            <polygon id="Fill-35" fill="#FFC000" points="101.431069 46.1308485 119.503401 39.9333939 151.633934 58.4946667 113.59842 55.5306667"></polygon>
            <g id="Group-38" transform="translate(101.256516, 44.510667)">
                <mask id="mask-12" fill="white">
                    <use xlink:href="#path-11"></use>
                </mask>
                <g id="Clip-37"></g>
                <path d="M-9.11665346,0.260242424 C-4.13391234,1.69042424 0.845722039,2.95363636 5.91970908,3.41539394 C8.54351856,3.65375758 11.3418805,3.00430303 13.9400306,3.41539394 C17.5657043,3.98884848 20.3663675,6.47612121 23.8827301,7.3570303 C30.2388778,8.94842424 34.7137255,8.43715152 41.3943542,10.7424848 C43.5621642,11.4898182 54.5082237,14.936303 55.6047858,16.033697 C57.38598,17.8162424 51.7110125,19.7715152 51.0286816,20.1687879 C46.9864755,22.5270909 37.6202477,23.2214545 32.7265663,23.2214545 C25.6282544,23.2214545 12.5044894,21.092303 6.39193266,18.2353939 C4.98550266,17.5778788 4.92210227,16.0728485 3.95084516,15.0813939 C3.15448568,14.2672727 1.3340546,13.9241212 0.213214005,13.3506667 C-0.762185414,12.8509091 -1.1632993,11.362 -1.92145746,10.6031515 C-3.0103102,9.51381818 -5.81005288,8.98181818 -6.48455935,7.85563636 C-7.08059203,6.86187879 -6.57615048,5.83242424 -7.29863873,5.10927273" id="Fill-36" fill="#DFA700" mask="url(#mask-12)"></path>
            </g>
        </g>
    </g>
</svg>