<?xml version="1.0" encoding="UTF-8" standalone="no"?><!DOCTYPE svg PUBLIC "-//W3C//DTD SVG 1.1//EN" "http://www.w3.org/Graphics/SVG/1.1/DTD/svg11.dtd"><svg width="100%" height="100%" viewBox="0 0 1600 553" version="1.1" xmlns="http://www.w3.org/2000/svg" xmlns:xlink="http://www.w3.org/1999/xlink" xml:space="preserve" style="fill-rule:evenodd;clip-rule:evenodd;stroke-linejoin:round;stroke-miterlimit:1.41421;"><path id="mountain-1" d="M1600,0.825l0,552.175l-1600,0l0,-333.202c7.581,-7.898 15.813,-14.873 26.563,-21.322c0.672,-0.403 1.05,-1.172 1.662,-1.661c5.749,-4.595 11.117,-9.122 15.798,-14.131c1.692,-1.809 5.18,-5.315 6.652,-3.322c2.564,3.472 2.235,7.852 6.651,11.097c6.937,5.101 16.328,8.84 22.45,14.96c24.754,24.745 13.222,46.002 59.324,46.002c4.483,0 10.675,1.008 14.97,-0.832c3.555,-1.525 8.712,-17.67 19.121,-23.27c11.053,-5.945 22.78,-7.486 33.258,-14.962c11.765,-8.396 15.753,-21.322 29.934,-28.257c8.874,-4.339 20.225,-6.004 28.702,-11.09c13.841,-8.304 16.05,-20.392 33.657,-22.154c2.243,-0.224 6.826,-1.992 9.146,-0.832c13.879,6.936 22.077,23.584 30.762,35.738c16.451,23.016 41.252,31.31 62.364,48.207c3.542,2.834 16.859,22.292 18.288,26.595c1.078,3.243 1.415,9.865 3.329,12.758c6.031,9.123 22.155,21.922 31.595,27.424c9.509,5.542 21.644,5.004 29.931,9.975c11.797,7.078 23.085,15.516 35.756,19.947c7.744,2.708 17.027,-1.49 24.581,1.526c9.104,3.634 14.03,10.63 21.98,15.927c15.537,10.351 27.995,11.831 46.561,10.803c2.827,-0.157 19.484,-6.105 24.695,-6.105c9.071,0 19.705,1.753 29.1,3.322c31.193,5.21 62.183,14.959 94.788,14.959c21.767,0 45.852,-10.123 67.349,-5.816c21.489,4.305 41.887,10.397 63.771,13.587c20.332,2.963 42.455,-7.179 62.358,-1.661c17.636,4.888 36.538,0.657 54.879,2.493c14.711,1.473 28.228,4.267 43.208,4.267c9.169,0 19.899,-8.253 28.293,-11.748c6.349,-2.644 15.949,-2.412 21.62,-5.816c21.922,-13.156 39.453,-35.052 60.696,-49.869c11.741,-8.19 31.166,-12.013 38.086,-25.855c1.033,-2.053 8.728,-27.255 10.471,-28.996c8.071,-8.072 30.122,-12.225 43.822,-19.407c8.437,-4.425 20.469,-5.408 28.271,-11.637c9.47,-7.565 18.273,-18.005 26.603,-26.595c6.554,-6.761 17.531,-10.571 24.946,-16.624c9.427,-7.709 13.527,-15.905 24.945,-21.609c6.296,-3.147 7.996,13.435 15.25,15.253c15.658,3.921 42.218,-5.703 54.874,-13.297c6.231,-3.735 14.367,-0.735 20.791,-4.988c13.872,-9.18 44.371,-52.177 57.371,-56.517c9.471,-3.16 22.481,-9.185 29.1,-17.452c8.911,-11.13 8.771,-27.446 16.003,-39.492c6.801,-11.344 20.361,-17.4 28.895,-26.997c4.501,-5.063 10.652,-16.111 16.78,-21.499Z" style="fill:#dae8f8;"/></svg>