<?xml version="1.0" encoding="UTF-8" standalone="no"?><!DOCTYPE svg PUBLIC "-//W3C//DTD SVG 1.1//EN" "http://www.w3.org/Graphics/SVG/1.1/DTD/svg11.dtd"><svg width="100%" height="100%" viewBox="0 0 1600 623" version="1.1" xmlns="http://www.w3.org/2000/svg" xmlns:xlink="http://www.w3.org/1999/xlink" xml:space="preserve" style="fill-rule:evenodd;clip-rule:evenodd;stroke-linejoin:round;stroke-miterlimit:1.41421;"><path id="mountain-2" d="M1600,623l-1600,0l0,-479.241c0,0 7.174,-20.583 12.26,-30.754c7.576,-15.153 15.757,-29.201 24.151,-43.883c9.495,-16.606 15.563,-35.271 24.115,-52.361c1.864,-3.726 4.445,-15.099 9.147,-16.62c0.327,-0.106 2.494,15.311 2.494,16.914c0,8.487 5.005,15.868 6.652,24.101c3.934,19.65 8.738,38.494 13.303,57.346c1.953,8.061 -1.357,17.664 0.828,25.767c2.461,9.117 5.775,18.106 8.318,27.428c1.067,3.906 5.519,28.966 8.314,30.749c11.951,7.623 21.581,-49.045 28.561,-44.88c6.747,4.024 12.965,36.715 17.46,45.713c1.314,2.629 0.107,10.825 4.157,11.632c5.958,1.188 13.05,-4.099 15.799,-9.143c0.29,-0.534 4.684,-7.887 4.989,-7.476c6.799,9.156 0.325,24.184 6.941,32.994c2.175,2.896 6.524,1.358 9.146,3.326c3.143,2.358 5.438,9.053 9.147,8.31c18.159,-3.638 16.322,-34.214 24.944,-45.713c3.295,-4.394 7.583,-7.952 10.808,-12.465c2.441,-3.415 6.271,-19.204 12.47,-18.285c2.236,0.331 3.351,15.048 3.617,16.914c1.706,11.912 6.041,21.049 8.318,32.41c1.378,6.875 -1.694,14.819 0,21.613c3.398,13.622 -0.352,21.739 8.353,28.006c3.905,2.81 7.443,-10.76 16.67,-6.945c6.987,2.889 9.824,-7.012 12.225,-1.425c4.052,9.429 5.92,34.532 9.77,36.401c7.373,3.577 18.191,-6.775 26.077,-3.065c7.107,3.343 17.536,22.825 24.267,25.865c7.58,3.425 13.559,-1.744 18.608,-0.977c8.934,1.359 14.298,6.58 15.765,5.784c8.144,-4.417 10.759,-15.763 18.293,-20.779c16.173,-10.768 27.957,-25.624 46.565,-34.077c4.048,-1.839 29.4,-20.743 32.713,-18.285c2.706,2.007 13.765,41.115 19.126,49.035c19.305,28.515 33.122,32.077 58.328,50.991c6.965,5.227 11.084,14.637 20.662,17.163c11.831,3.118 25.5,-6.422 36.581,-9.143c37.048,-9.094 49.044,-28.772 88.137,2.494c16.438,13.147 32.988,25.638 48.222,40.726c4.415,4.372 7.197,15.134 9.981,17.453c10.272,8.554 25.012,11.721 36.585,18.285c1.539,0.872 3.079,1.766 4.62,2.679c21.62,-13.861 43.79,-27.76 66.054,-37.259c26.557,-11.331 85.952,-20.569 101.559,-43.664c1.484,-2.196 4.812,2.876 5.138,3.275c3.242,3.97 38.18,31.232 42.967,28.38c8.095,-4.821 13.466,-13.822 20.751,-19.647c24.348,-19.475 47.69,-37.648 67.707,-62.223c14.787,-18.15 22.632,-42.479 37.139,-61.131c17.499,-22.509 37.623,-39.914 54.594,-61.129c3.39,-4.238 9.632,8.824 13.495,10.914c9.987,5.416 23.02,8.748 31.662,16.378c6.177,5.452 11.213,17.079 18.574,20.735c2.163,1.079 6.425,-1.275 7.641,-2.182c12.731,-9.536 14.066,-22.793 22.933,-34.931c15.045,-20.578 35.019,-36.87 48.051,-60.042c11.386,-20.245 18.059,-65.592 26.593,-77.887c4.304,-6.194 11.881,-12.398 15.292,-17.466c0.334,-0.502 5.628,6.796 6.931,15.284c2.862,18.56 5.467,37.976 5.467,56.766c0,0.365 -0.302,0.876 0,1.093c3.497,2.603 10.008,-11.294 11.299,-13.101c2.863,-4.01 8.491,-5.219 10.924,-7.64c0.656,-0.656 2.044,-1.864 2.561,-1.093c4.767,7.053 -0.624,23.076 1.087,31.656c3.088,15.396 13.969,50.556 21.846,62.223c1.066,1.573 4.563,-0.962 5.209,-1.609c2.529,-2.527 5.521,-1.89 8.286,-3.848c6.178,-4.381 9.374,-17.496 13.097,-24.017c0.646,-1.139 1.313,-2.289 2.185,-3.275c1.173,-1.339 5.596,-8.008 5.844,-7.639c3.648,5.394 4.466,17.049 9.825,25.104c12.871,19.311 42.778,27.882 61.159,42.577c13.883,11.097 36.643,36.077 36.643,36.077l0,394.739Z" style="fill:#f0f6fb;"/></svg>