<?xml version="1.0" encoding="UTF-8" standalone="no"?>
<svg width="320px" height="300px" viewBox="0 0 320 300" version="1.1" xmlns="http://www.w3.org/2000/svg" xmlns:xlink="http://www.w3.org/1999/xlink">
    <!-- Generator: Sketch 39.1 (31720) - http://www.bohemiancoding.com/sketch -->
    <title>open-penguin</title>
    <desc>Created with Sketch.</desc>
    <defs>
        <path d="M0.826851324,9.74967441 C6.11426077,22.5532511 11.4718676,32.1910477 11.4718676,32.1910477 L14.9675998,21.6049485 L24.500211,33.669863 L24.3249663,22.6963911 L30.6307861,24.8365333 L24.0202797,0.949545177 C24.0202797,0.949545177 -4.46055812,-3.0540017 0.826851324,9.74967441 L0.826851324,9.74967441 Z" id="path-1"></path>
        <path d="M29.8035365,10.3272792 C24.5163262,23.1308559 19.1584206,32.7686525 19.1584206,32.7686525 L15.6624893,22.1824539 L6.1295794,34.2473684 L6.30482403,23.2738965 L0,25.4141381 L6.60951073,1.52714995 C6.60951073,1.52714995 35.0907468,-2.47639692 29.8035365,10.3272792 L29.8035365,10.3272792 Z" id="path-3"></path>
        <path d="M78.3561759,6.82499575 C49.3820643,-3.82501946 31.5011373,0.569578002 21.913563,13.8219583 C12.3259888,27.0743386 7.77142053,32.8367185 4.82123684,62.5472192 C1.87105315,92.2567259 -2.15847818,111.447429 2.50213298,143.942202 C7.16264456,176.436776 -1.7756284,193.371533 8.82896216,212.032121 C19.4335527,230.692808 40.5809999,203.165193 64.981824,212.95776 C89.382648,222.750327 108.097978,228.94322 110.798339,210.614041 C113.499695,192.284961 118.662442,157.808494 115.712159,139.271265 C112.761875,120.734632 116.450974,95.2000426 114.238511,79.0023576 C112.025051,62.8046725 103.524691,29.8158677 97.8630944,21.8089727 C92.2024935,13.8020778 87.1711802,10.0655268 78.3561759,6.82499575 L78.3561759,6.82499575 Z" id="path-5"></path>
        <mask id="mask-6" maskContentUnits="userSpaceOnUse" maskUnits="objectBoundingBox" x="-1" y="-1" width="118.219329" height="223.519028">
            <rect x="-0.623905234" y="-0.138887888" width="118.219329" height="223.519028" fill="white"></rect>
            <use xlink:href="#path-5" fill="black"></use>
        </mask>
        <mask id="mask-8" maskContentUnits="userSpaceOnUse" maskUnits="objectBoundingBox" x="-1" y="-1" width="118.219329" height="223.519028">
            <rect x="-0.623905234" y="-0.138887888" width="118.219329" height="223.519028" fill="white"></rect>
            <use xlink:href="#path-5" fill="black"></use>
        </mask>
        <path d="M24.9031996,0.218636821 C30.6494314,-0.379767991 31.5575172,11.6350476 40.6981181,11.8149666 C49.8387189,11.9958797 48.8410193,12.5555174 48.8410193,12.5555174 C48.8410193,12.5555174 38.2148219,22.5445041 28.2467876,24.0693429 C18.279749,25.5941817 6.9655172,18.7115324 0.645160121,16.6857035 C19.4745987,12.895475 18.1403498,0.923402621 24.9031996,0.218636821 L24.9031996,0.218636821 Z" id="path-9"></path>
        <path d="M7.81332189,0.218686144 C11.8499227,0.218686144 15.127794,3.63317207 15.127794,7.83890423 C15.127794,12.0446364 11.8499227,15.4601163 7.81332189,15.4601163 C3.77572532,15.4601163 0.498252361,12.0446364 0.498252361,7.83890423 C0.498252361,3.63317207 3.77572532,0.218686144 7.81332189,0.218686144 L7.81332189,0.218686144 Z" id="path-11"></path>
        <path d="M8.18173391,0.706753856 C12.2183348,0.706753856 15.496206,4.12123979 15.496206,8.32796597 C15.496206,12.5336981 12.2183348,15.9481841 8.18173391,15.9481841 C4.14413734,15.9481841 0.866266094,12.5336981 0.866266094,8.32796597 C0.866266094,4.12123979 4.14413734,0.706753856 8.18173391,0.706753856 L8.18173391,0.706753856 Z" id="path-13"></path>
    </defs>
    <g id="Page-1" stroke="none" stroke-width="1" fill="none" fill-rule="evenodd">
        <g id="open-penguin" transform="translate(46.000000, 28.000000)">
            <path d="M171.147541,76.7394731 C189.79118,72.3031265 202.075983,69.8821513 210.41703,64.817579 C218.758077,59.7540008 227.277356,61.9299279 231.964155,56.7609827 C229.221974,79.6683563 216.673064,94.8849358 204.882884,101.494227 C193.092704,108.104513 176.021756,112.30886 172.415301,109.718423" id="Stroke-2" stroke="#504A7F" stroke-linecap="round" stroke-linejoin="round"></path>
            <path d="M60.2185816,72.2509952 C41.8079378,66.4190334 38.5605906,64.6147973 23.4175622,58.6615641 C8.27443433,52.7083308 9.61007725,51.8355743 1.19524807,46.3475461 C-1.64998798,65.3026647 3.25785751,76.0491006 13.5957974,86.7965305 C23.9337373,97.5439605 37.8360137,98.0916699 43.2529648,98.1503175 C48.6699159,98.2089652 58.1167966,97.6234827 58.1167966,97.6234827" id="Stroke-4" stroke="#504A7F" stroke-linecap="round" stroke-linejoin="round"></path>
            <g id="Fill-6" transform="translate(73.262295, 206.752632)">
                <mask id="mask-2" fill="white">
                    <use xlink:href="#path-1"></use>
                </mask>
                <use id="Mask" fill="#FFC000" xlink:href="#path-1"></use>
                <path d="M0.6102848,15.9775576 C13.6468925,16.961844 23.8629578,16.5929603 31.6065801,16.961844 C39.3502024,17.3307278 41.8573955,-6.11242683 41.8573955,-6.11242683 L11.139102,-5.80855249 L-1.77682593,0.763264344 C-1.77682593,0.763264344 -12.4263229,14.9931717 0.6102848,15.9775576 L0.6102848,15.9775576 Z" fill="#DFA700" mask="url(#mask-2)"></path>
            </g>
            <g id="Fill-10" transform="translate(125.508197, 206.752632)">
                <mask id="mask-4" fill="white">
                    <use xlink:href="#path-3"></use>
                </mask>
                <use id="Mask" fill="#FFC000" xlink:href="#path-3"></use>
                <path d="M1.01245564,17.8613979 C13.9477003,19.7580032 24.1636659,20.106907 31.8624814,21.0183312 C39.5612968,21.929656 43.7133998,-1.27960387 43.7133998,-1.27960387 L13.0485758,-3.13197491 L-0.297896292,2.51728461 C-0.297896292,2.51728461 -11.922789,15.9646932 1.01245564,17.8613979 L1.01245564,17.8613979 Z" fill="#DFA700" mask="url(#mask-4)"></path>
            </g>
            <g id="Stroke-16" transform="translate(57.049180, 0.000000)">
                <mask id="mask-7" fill="white">
                    <use xlink:href="#path-5"></use>
                </mask>
                <g id="Mask" stroke="#504A7F" mask="url(#mask-6)" stroke-width="2" stroke-linecap="round" stroke-linejoin="round">
                    <use mask="url(#mask-8)" xlink:href="#path-5"></use>
                </g>
                <path d="M58.485824,68.8155594 C73.838648,68.982556 73.7848798,69.2400093 82.4555064,74.499411 C92.3847081,80.5222263 103.232948,97.5598649 104.943575,105.948467 C106.655197,114.337068 110.348279,138.122169 111.177704,150.741154 C112.008124,163.359643 113.370253,164.858836 110.054545,181.925997 C106.739833,198.993258 102.806785,215.723742 102.331833,224.401407 C101.857875,233.078972 77.3246222,228.302967 63.7441587,227.474444 C50.1636952,226.645922 32.6740815,231.950154 26.1096763,227.089159 C19.5456695,222.228164 10.5507407,208.543083 11.3143493,200.054383 C12.0778583,191.565682 10.2736351,182.205915 11.3143493,162.573367 C12.3549639,142.941216 11.1035579,142.623127 11.3143493,123.750513 C11.5250411,104.878893 17.1123579,92.1344605 26.5436059,81.2697353 C35.974854,70.404016 43.1329999,68.6475686 58.485824,68.8155594 L58.485824,68.8155594 Z" stroke="#514C80" stroke-linecap="round" stroke-linejoin="round" fill="#FFFFFF" mask="url(#mask-7)"></path>
            </g>
            <g id="Fill-20" transform="translate(87.475410, 32.710526)">
                <mask id="mask-10" fill="white">
                    <use xlink:href="#path-9"></use>
                </mask>
                <use id="Mask" fill="#FFC000" xlink:href="#path-9"></use>
                <path d="M-2.15078838,17.8775429 C6.75940561,16.5057844 12.5574142,16.8874911 17.7171739,14.5405912 C22.8779292,12.1926972 24.7588219,11.0058279 24.7588219,11.0058279 C24.7588219,11.0058279 36.7103069,16.207576 43.2222382,17.4371886 C49.7341696,18.6658071 57.3055344,19.7701721 48.8738777,21.5375538 C40.4412254,23.3039414 30.0609678,27.5017213 28.0595945,27.5017213 C26.0582211,27.5017213 11.3466331,25.4033284 11.3466331,25.4033284 C11.3466331,25.4033284 -11.0605841,19.2483075 -2.15078838,17.8775429 L-2.15078838,17.8775429 Z" fill="#DFA700" mask="url(#mask-10)"></path>
            </g>
            <g id="Group-25" transform="translate(87.622318, 20.270217)">
                <mask id="mask-12" fill="white">
                    <use xlink:href="#path-11"></use>
                </mask>
                <g id="Clip-24"></g>
                <path d="M-0.48317985,11.9590947 C3.79796693,7.61022247 10.1515807,4.8955322 15.8111858,10.1996652 C21.4717867,15.5037982 22.886688,4.50984937 19.9662759,0.377675274 C17.0468596,-3.75549285 8.43995835,-7 6.83188968,-7 C5.2228253,-7 -2.245185,-1.61535072 -2.245185,-1.61535072 C-2.245185,-1.61535072 -5.03217212,2.95717774 -3.58162448,5.56153091 C-2.13107685,8.16588408 -4.7644262,16.3079668 -0.48317985,11.9590947 L-0.48317985,11.9590947 Z" id="Stroke-23" stroke="#504A7F" stroke-linecap="round" stroke-linejoin="round" fill="#FFFFFF" mask="url(#mask-12)"></path>
            </g>
            <path d="M95.4356395,20.4889036 C99.4722403,20.4889036 102.750112,23.9033896 102.750112,28.1091217 C102.750112,32.3148539 99.4722403,35.7303338 95.4356395,35.7303338 C91.3980429,35.7303338 88.12057,32.3148539 88.12057,28.1091217 C88.12057,23.9033896 91.3980429,20.4889036 95.4356395,20.4889036 L95.4356395,20.4889036 Z" id="Stroke-26" stroke="#504A7F" stroke-linecap="round" stroke-linejoin="round"></path>
            <g id="Group-29" transform="translate(118.489270, 20.270217)">
                <mask id="mask-14" fill="white">
                    <use xlink:href="#path-13"></use>
                </mask>
                <g id="Clip-28"></g>
                <path d="M-1.45580409,9.63281289 C3.75971522,6.45987575 10.5842989,5.37638531 14.7762302,11.8991966 C18.9671659,18.4230019 23.0286594,8.105986 21.2085049,3.38733543 C19.3873547,-1.33230917 11.8349084,-6.57680051 10.2746337,-6.96844752 C8.714359,-7.36108855 0.156247413,-3.95952498 0.156247413,-3.95952498 C0.156247413,-3.95952498 -3.66528048,-0.2050815 -2.89559808,2.67362338 C-2.12591568,5.55332228 -6.67032769,12.8067441 -1.45580409,9.63281289 L-1.45580409,9.63281289 Z" id="Stroke-27" stroke="#504A7F" stroke-linecap="round" stroke-linejoin="round" fill="#FFFFFF" mask="url(#mask-14)"></path>
            </g>
            <path d="M126.671004,20.9769713 C130.707605,20.9769713 133.985476,24.3914573 133.985476,28.5981835 C133.985476,32.8039156 130.707605,36.2184015 126.671004,36.2184015 C122.633408,36.2184015 119.355536,32.8039156 119.355536,28.5981835 C119.355536,24.3914573 122.633408,20.9769713 126.671004,20.9769713 L126.671004,20.9769713 Z" id="Stroke-30" stroke="#504A7F" stroke-linecap="round" stroke-linejoin="round"></path>
            <path d="M95.0174421,26.1876657 C94.8103348,26.5325934 94.584309,26.8675808 94.3961202,27.2234428 C94.2129099,27.5683705 95.2384893,27.4302006 95.2942489,27.4302006 C95.4535622,27.4302006 96.4602232,27.4590275 96.5388841,27.2234428 C96.7310558,26.6469066 96.6942146,25.5952251 95.9862661,25.3596405 C95.1229871,25.0713724 93.8773562,26.2562537 94.3264206,27.1538609 C94.5345236,27.5703586 95.2942489,27.4043559 95.2942489,27.015691" id="Stroke-31" stroke="#000000" stroke-linecap="round" stroke-linejoin="round"></path>
            <path d="M125.785805,25.872174 C125.578697,26.2171016 125.352672,26.5520891 125.164483,26.9079511 C124.981272,27.2518847 126.006852,27.1147089 126.062611,27.1147089 C126.221925,27.1147089 127.228586,27.1435357 127.307247,26.9079511 C127.499418,26.3314149 127.462577,25.2797333 126.754629,25.0441487 C125.89135,24.7558806 124.645719,25.9397679 125.094783,26.8383691 C125.302886,27.2548668 126.062611,27.0878701 126.062611,26.7001992" id="Stroke-32" stroke="#000000" stroke-linecap="round" stroke-linejoin="round"></path>
        </g>
    </g>
</svg>