<?xml version="1.0" encoding="UTF-8" standalone="no"?>
<svg width="332px" height="557px" viewBox="0 0 332 557" version="1.1" xmlns="http://www.w3.org/2000/svg" xmlns:xlink="http://www.w3.org/1999/xlink">
    <!-- Generator: Sketch 39.1 (31720) - http://www.bohemiancoding.com/sketch -->
    <title>sad-penguin</title>
    <desc>Created with Sketch.</desc>
    <defs>
        <path d="M36.6000283,18.5020402 C37.3052253,13.5486646 37.9378009,8.37626606 38.2983528,3.74580347 C33.5093575,4.70398296 29.7274576,2.2478152 29.7274576,2.2478152 L22.5144776,1.58838541 L10.5745008,1.25935191 C10.5745008,1.25935191 6.65045823,1.08067747 2.60846759,0.42518458 C0.0448111144,2.07257031 0.41431039,9.96714745 1.4543932,18.5020402 L36.6000283,18.5020402 L36.6000283,18.5020402 Z" id="path-1"></path>
        <path d="M0.88854235,11.7369147 C5.25727788,8.01779988 9.98359072,4.02899938 14.5092796,0.0417916467 L61.0420731,3.01899222 C57.6121454,10.729495 37.5776716,20.5206919 24.6154735,26.1864583 L13.2902223,26.1864583 C13.5203284,25.431243 13.9029467,24.642601 14.5092796,23.8693899 C15.7482839,22.2893203 14.0267203,24.0193778 10.0635915,26.1864583 L0.88854235,26.1864583 L0.88854235,22.1947617 C2.73724217,20.1529926 4.20817649,18.8769537 4.20817649,18.8769537 C4.20817649,18.8769537 2.81924261,19.1273621 0.88854235,19.4635828 L0.88854235,11.7369147 L0.88854235,11.7369147 Z" id="path-3"></path>
        <path d="M152.559566,174.475631 C144.953754,174.19292 135.887752,174.023932 124.811772,171.801826 C116.301363,170.094274 108.292989,169.822628 96.7295389,169.649253 C90.1183967,169.550074 81.2167931,166.763358 73.5306598,167.87114 C63.4525996,169.323551 50.0562662,171.846494 42.556128,172.219137 C29.402193,172.158417 14.8301589,171.132705 10.7435597,165.460246 C6.28330697,159.677251 2.29560269,143.219519 2.18823968,130.308929 C2.04095577,112.595479 2.88020186,55.4087583 10.1896573,55.6752558 C5.86444,41.19657 1.74956348,8.38407058 1.08134213,3.81121648 C0.918473986,2.69646203 0.751754739,1.60656959 0.5818194,0.540270471 L152.559566,0.540270471 L152.559566,174.475631 L152.559566,174.475631 Z" id="path-5"></path>
        <path d="M23.4950227,0.404288757 C23.5095264,0.606612668 23.5168852,0.810584771 23.5168852,1.01602156 C23.5168852,6.44287887 18.3817577,10.8476579 12.0568664,10.8476579 C5.73197521,10.8476579 0.596998842,6.44287887 0.596998842,1.01602156 C0.596998842,0.810584771 0.604357491,0.606612668 0.618860774,0.404288757 L23.4950227,0.404288757 L23.4950227,0.404288757 Z" id="path-7"></path>
        <path d="M0.108213886,0.881286179 C0.10390408,0.976823317 0.101182992,1.07271905 0.100072834,1.16895476 C0.0376208277,6.59429788 5.12148635,11.0596445 11.4460751,11.1323256 C15.5387045,11.1793586 19.1543896,9.37615732 21.213515,6.62747592 L21.213515,0.881286179 L0.108213886,0.881286179 L0.108213886,0.881286179 Z" id="path-9"></path>
        <path d="M0.331281352,4.55021732 C1.44833666,4.87749753 2.64287844,5.06128752 3.88529954,5.07556521 C4.53238937,5.08300164 5.16755602,5.04418388 5.78653217,4.9626881 L5.78653217,0.0575392238 L0.331281352,0.0575392238 L0.331281352,4.55021732 L0.331281352,4.55021732 Z" id="path-11"></path>
        <path d="M17.5960419,0.260263631 C17.4459352,0.216131122 17.3666479,0.193350428 17.3666479,0.193350428 C17.3666479,0.193350428 1.39118271,3.64873224 0.805222603,13.5242801 C0.171603502,24.2013887 1.60974683,29.7899548 6.39226476,46.8516042 L14.1289058,46.8516042 C15.2891666,45.353613 16.4442446,43.8700771 17.5960419,42.3999261 L17.5960419,0.260263631 L17.5960419,0.260263631 Z" id="path-13"></path>
        <path d="M120.370548,0.201387283 L91.9042519,12.6450015 C97.393375,21.5423825 99.8203839,32.4430371 101.119325,41.9809205 C102.507484,52.1699057 102.144566,62.777413 100.721628,72.127234 L140.722668,52.6386155 L140.722668,52.0743562 L129.844224,0.201387283 L120.370548,0.201387283 L120.370548,0.201387283 Z M49.5518112,31.1590039 C57.3832626,48.8962267 67.80806,70.1032161 75.5669279,84.383543 L22.3693107,110.302238 L17.1735457,108.432819 L0.898220143,52.4288322 L49.5518112,31.1590039 L49.5518112,31.1590039 Z" id="path-15"></path>
    </defs>
    <g id="Page-1" stroke="none" stroke-width="1" fill="none" fill-rule="evenodd">
        <g id="sad-penguin" transform="translate(1.000000, 1.000000)">
            <path d="M232.204392,511.213448 C231.021886,526.400018 226.913361,547.415917 226.913361,547.415917 L220.479141,538.819557 C220.479141,538.819557 218.162519,549.032012 213.37806,555.921728 C210.82403,551.259385 206.775991,537.855169 206.775991,537.855169 C206.775991,537.855169 201.615006,543.127427 198.153683,546.544197 C197.385508,536.81386 191.63327,511.029474 196.514507,507.892829 C200.556497,508.548322 204.48054,508.726997 204.48054,508.726997 L216.420517,509.05603 L223.633497,509.71546 C223.633497,509.71546 227.415396,512.171628 232.204392,511.213448 L232.204392,511.213448 Z" id="Fill-1" fill="#FFC000"></path>
            <g id="Group-4" transform="translate(193.906039, 507.467645)">
                <mask id="mask-2" fill="white">
                    <use xlink:href="#path-1"></use>
                </mask>
                <g id="Clip-3"></g>
                <path d="M-16.1392316,18.5020402 C-16.1392316,18.5020402 13.2011142,11.6377623 24.2519439,12.8267043 C35.3042856,14.0156464 50.1748191,5.87157495 50.1748191,5.87157495 L44.7401336,-14.2349011 L13.2782341,-9.18810552 L-16.1392316,18.5020402 Z" id="Fill-2" fill="#DFA700" mask="url(#mask-2)"></path>
            </g>
            <path d="M76.8578229,498.424296 C68.1435754,506.101694 58.6854987,513.784997 52.4685754,519.537557 C55.6274674,519.229874 66.5567198,517.259458 66.5567198,517.259458 C66.5567198,517.259458 60.1161487,522.846668 57.250766,529.345572 C71.060069,528.002182 79.1860882,519.282719 76.8578229,522.251894 C74.2466335,525.58175 75.7844952,529.197787 75.7844952,529.197787 C75.7844952,529.197787 118.248382,512.961278 123.390616,501.401496" id="Fill-5" fill="#FFC000"></path>
            <g id="Group-8" transform="translate(62.348543, 498.382504)">
                <mask id="mask-4" fill="white">
                    <use xlink:href="#path-3"></use>
                </mask>
                <g id="Clip-7"></g>
                <path d="M0.88854235,1.24148446 C0.88854235,1.24148446 23.5849322,23.1023012 49.4450531,25.8216352 C75.3053251,28.5409692 80.9064989,15.166128 80.9064989,15.166128 L75.0269373,-18.6505823 L0.88854235,1.24148446 Z" id="Fill-6" fill="#DFA700" mask="url(#mask-4)"></path>
            </g>
            <g id="Group-11" transform="translate(63.860698, 334.849973)">
                <mask id="mask-6" fill="white">
                    <use xlink:href="#path-5"></use>
                </mask>
                <g id="Clip-10"></g>
                <path d="M146.872603,123.764145 C153.793737,151.592839 159.734994,168.175946 130.740932,173.299663 C116.275656,170.00963 106.0929,169.847468 82.1393047,173.29967 C77.3658846,173.987566 57.9944757,170.680114 53.6819605,171.504287 C25.6916667,176.853618 14.2236335,179.072209 7.54187367,165.037939 C4.00675743,157.612653 -6.72883823,142.811144 -6.86069816,126.958331 C-7.00798207,109.244881 -5.8069782,65.8835295 1.50247723,66.1500269 C-6.09821928,65.8729302 2.17069868,54.8000539 1.50247733,50.2271998 C-4.05181965,12.210429 2.51244574,52.4197471 -17.0583195,13.5943987 C9.39501978,1.4990482 13.5641827,0.587505759 23.5802445,19.6072476 C32.1452424,6.50496067 55.8759464,-3.27670738 86.0343681,1.99570255 C89.1218865,2.53626842 104.388605,-0.0348263723 106.994048,0.666243644 L118.129558,5.79329132 C124.739188,7.56640793 125.251809,12.6752853 129.349749,16.2563449 L131.661834,25.0659029 C138.729647,31.2543978 138.99125,42.8379521 139.310315,60.1390882 L118.84632,69.0849233 L135.121645,125.08891 L140.31741,126.958329 L146.872603,123.764145 Z" id="Fill-9" stroke="#FFFFFF" fill="#FFFFFF" mask="url(#mask-6)"></path>
            </g>
            <path d="M257.66606,436.425782 C256.190196,450.995622 254.280344,465.004303 251.841238,477.010771 C248.426792,493.814041 239.453663,504.904424 235.446452,510.610044 C227.500077,513.357087 226.893703,509.838109 219.880328,509.474704 C211.598254,509.045582 201.478912,509.221077 188.67247,506.651799 C180.162061,504.944247 172.153688,504.672601 160.590237,504.499227 C153.979095,504.400047 145.077492,501.613332 137.391358,502.721113 C127.313298,504.173524 113.916965,506.696468 106.416826,507.06911 C93.2628914,507.008391 78.6908574,505.982679 74.6042582,500.31022 C70.1440054,494.527225 66.1563011,478.069493 66.0489381,465.158902 C65.9016542,447.445452 66.7409003,390.258732 74.0503557,390.525229 C69.7251384,376.046544 65.6102619,343.234044 64.9420406,338.66119 C59.3801828,300.592937 49.3272243,291.518395 60.0722962,260.912071 C60.0722962,260.912071 83.96843,218.398156 99.0845374,214.064543 C108.62049,211.33143 115.031574,204.914293 138.668373,206.369429 C174.678987,208.584689 191.674098,216.655323 202.895801,223.602427 C207.899522,226.698946 227.596855,250.483844 232.602089,257.338582 C250.208111,281.442974 261.036653,307.61575 261.963605,329.75321 C262.164721,334.563792 262.249402,342.407296 262.143551,352.213191 C257.362117,349.204496 251.496467,347.204251 244.277438,346.674284 C218.455877,344.773975 218.832404,346.070122 220.559285,354.192238 C223.423307,367.659445 244.532992,412.336229 257.66606,436.425782 L257.66606,436.425782 Z" id="Stroke-12" stroke="#FFFFFF" stroke-linecap="round" stroke-linejoin="round"></path>
            <path d="M65.263676,347.694848 C50.1911186,351.540891 37.3116397,350.708086 30.1834917,346.740908 C26.6083033,341.403388 21.9256126,336.191546 21.8223324,327.530379 C21.7532269,321.738601 22.5811318,317.140006 22.6770025,313.539262 C16.8350936,313.422669 7.27479524,321.894563 3.09519849,331.011502 C0.793244742,336.032556 -2.22879727,353.483597 3.17806459,365.915098 C4.53114099,369.025244 9.32845312,371.617537 11.8892878,373.906993 C15.6648367,377.283637 21.584924,378.396567 28.1968223,378.849309 C37.4410802,379.482241 49.1611897,377.704582 68.1718527,369.166064" id="Stroke-13" stroke="#FFFFFF" stroke-linecap="round" stroke-linejoin="round"></path>
            <path d="M90.6220637,217.28674 C82.4857619,212.789595 87.789646,210.394147 93.8468857,210.551622 C81.3551235,202.421936 88.0114791,196.766436 112.541962,208.243997" id="Stroke-14" stroke="#FFFFFF" stroke-linecap="round" stroke-linejoin="round"></path>
            <g id="Group-19" transform="translate(110.737507, 293.966841)">
                <mask id="mask-8" fill="white">
                    <use xlink:href="#path-7"></use>
                </mask>
                <g id="Clip-16"></g>
                <path d="M12.6531092,0.404288757 C19.3070454,0.404288757 24.7092196,4.80906776 24.7092196,10.2359251 C24.7092196,15.6627824 19.3070454,20.0675614 12.6531092,20.0675614 C5.99917302,20.0675614 0.596998842,15.6627824 0.596998842,10.2359251 C0.596998842,4.80906776 5.99917302,0.404288757 12.6531092,0.404288757 L12.6531092,0.404288757 Z" id="Fill-15" fill="#FFFFFF" mask="url(#mask-8)"></path>
                <path d="M9.92548379,6.59732626 C11.4309854,6.59732626 12.6531092,7.89952975 12.6531092,9.50457125 C12.6531092,11.1080986 11.4309854,12.4118162 9.92548379,12.4118162 C8.42013337,12.4118162 7.1980096,11.1080986 7.1980096,9.50457125 C7.1980096,7.89952975 8.42013337,6.59732626 9.92548379,6.59732626 L9.92548379,6.59732626 Z" id="Fill-17" fill="#000000" mask="url(#mask-8)"></path>
                <path d="M-36.2567922,3.70976574 C-42.9102747,3.63405624 -48.3629549,7.97675344 -48.4254069,13.4020966 C-48.4878589,18.8289539 -43.1367955,23.2958147 -36.483313,23.3730384 C-29.8298305,23.4502621 -24.3771503,19.1075649 -24.3146983,13.6807075 C-24.2522463,8.25536442 -29.6033096,3.78698944 -36.2567922,3.70976574 L-36.2567922,3.70976574 Z" id="Stroke-18" stroke="#FFFFFF" stroke-linecap="round" stroke-linejoin="round" mask="url(#mask-8)"></path>
            </g>
            <path d="M122.794374,285.151226 C129.119265,285.151226 134.254392,289.556005 134.254392,294.982862 C134.254392,300.40972 129.119265,304.814499 122.794374,304.814499 C116.469482,304.814499 111.334506,300.40972 111.334506,294.982862 C111.334506,289.556005 116.469482,285.151226 122.794374,285.151226 L122.794374,285.151226 Z" id="Stroke-20" stroke="#FFFFFF" stroke-linecap="round" stroke-linejoin="round"></path>
            <g id="Group-26" transform="translate(63.510515, 296.995221)">
                <mask id="mask-10" fill="white">
                    <use xlink:href="#path-9"></use>
                </mask>
                <g id="Clip-22"></g>
                <path d="M6.40197931,1.55355904 C0.0524399479,3.54623321 -3.78707312,9.36829415 -2.16664769,14.5453101 C-0.546222265,19.7238402 5.9242895,22.3100769 12.2739801,20.3189169 C18.6235194,18.3262428 22.4628813,12.5041818 20.8426071,7.3256517 C19.2221817,2.14863575 12.7515187,-0.439115129 6.40197931,1.55355904 L6.40197931,1.55355904 Z" id="Fill-21" fill="#FFFFFF" mask="url(#mask-10)"></path>
                <g id="Group-25" mask="url(#mask-10)">
                    <g transform="translate(7.560776, 6.056760)">
                        <mask id="mask-12" fill="white">
                            <use xlink:href="#path-11"></use>
                        </mask>
                        <g id="Clip-24" stroke="none" fill="none"></g>
                        <path d="M3.05890676,0.0575392238 C4.56425719,0.0575392238 5.78653217,1.35974271 5.78653217,2.96478421 C5.78653217,4.56982572 4.56425719,5.87202921 3.05890676,5.87202921 C1.55355634,5.87202921 0.331281352,4.56982572 0.331281352,2.96478421 C0.331281352,1.35974271 1.55355634,0.0575392238 3.05890676,0.0575392238 L3.05890676,0.0575392238 Z" id="Fill-23" stroke="none" fill="#000000" fill-rule="evenodd" mask="url(#mask-12)"></path>
                    </g>
                </g>
            </g>
            <path d="M75.1831111,288.464274 C68.8585223,288.391593 63.6731912,292.737318 63.610588,298.164176 C63.548136,303.589519 68.6320015,308.054865 74.9565903,308.127547 C81.2810279,308.200228 86.4665102,303.854502 86.5289622,298.429159 C86.5915655,293.002302 81.5075487,288.538469 75.1831111,288.464274 L75.1831111,288.464274 Z" id="Stroke-27" stroke="#FFFFFF" stroke-linecap="round" stroke-linejoin="round"></path>
            <path d="M101.319351,396.633472 C115.099167,396.203442 144.790938,397.34817 156.555807,402.658435" id="Stroke-28" stroke="#262940" stroke-linecap="round" stroke-linejoin="round"></path>
            <path d="M96.3488976,311.978132 C96.3488976,311.978132 116.106414,317.654831 122.311996,323.387554 C110.24651,336.691229 99.256167,350.54304 87.440943,366.012006 C81.0067229,342.958461 79.0704083,337.392299 79.7874723,325.309062 C80.3734324,315.433514 96.3488976,311.978132 96.3488976,311.978132 L96.3488976,311.978132 Z" id="Fill-29" fill="#FFC000"></path>
            <g id="Group-32" transform="translate(78.982250, 311.784782)">
                <mask id="mask-14" fill="white">
                    <use xlink:href="#path-13"></use>
                </mask>
                <g id="Clip-31"></g>
                <path d="M17.5960419,0.264517363 C15.0904008,9.10284497 13.4609025,20.0307549 12.0961825,30.5240923 C11.4563896,35.4436959 9.77895596,42.349917 9.47864195,46.3594924 L9.08593527,46.8516042 C2.65171522,23.7980599 -3.61873842,22.3686644 0.805222603,13.5242801 C5.22918363,4.67989569 17.3666479,0.193350428 17.3666479,0.193350428 L17.5960419,0.264517363 Z" id="Fill-30" fill="#DFA700" mask="url(#mask-14)"></path>
            </g>
            <path d="M275.665242,446.34615 C280.328729,453.923763 284.251259,461.560429 282.426088,469.60411 C278.335708,487.61949 271.589984,490.370016 266.487973,503.636441 C260.375842,519.528472 267.469361,539.605573 303.118418,534.249882 C339.638477,528.763366 333.074211,512.22629 316.552404,513.380103 C301.408171,514.437916 302.675357,508.992586 308.944752,508.645988" id="Stroke-33" stroke="#FFFFFF" stroke-linecap="round" stroke-linejoin="round"></path>
            <g id="Group-37" transform="translate(181.808798, 351.506065)">
                <mask id="mask-16" fill="white">
                    <use xlink:href="#path-15"></use>
                </mask>
                <g id="Clip-35"></g>
                <polygon id="Stroke-34" stroke="#FFFFFF" stroke-linecap="round" stroke-linejoin="round" mask="url(#mask-16)" points="-4.04199064 50.5694068 14.7828285 57.2266949 36.3491848 110.738476 21.8491294 116.769495 11.0266352 111.723759"></polygon>
                <path d="M129.844224,0.201387283 L120.77583,5.23304098 L108.451765,10.7643774 L100.092572,13.5444304 L67.7354766,28.4001495 L41.4511962,40.8740475 L28.9668435,45.457501 L18.8928661,50.9085853 L7.19937054,54.7416062 L22.3693107,110.302238 C29.3962956,105.73968 25.1365546,109.728663 39.314521,102.13939 C42.6337015,100.362337 49.5699571,97.4488837 54.7400154,94.8883882 L66.3291723,88.7404736 L95.2521633,74.2330182 L124.336955,60.8200195 L140.722668,52.2562145 L129.844224,0.201387283 Z" id="Fill-36" fill="#FFFFFF" mask="url(#mask-16)"></path>
            </g>
            <path d="M231.360609,382.665068 C239.192061,400.402291 249.616858,421.609281 257.375726,435.889608 L204.178109,461.808302 L198.982344,459.938883 L182.707018,403.934897 L231.360609,382.665068 Z M273.71305,364.151066 L306.457257,349.837427 L311.653022,351.707452 L322.638829,404.092373 L282.530426,423.633299 C283.953364,414.283478 284.316282,403.67597 282.928123,393.486985 C281.629182,383.949102 279.202173,373.048447 273.71305,364.151066 L273.71305,364.151066 Z" id="Stroke-38" stroke="#FFFFFF" stroke-linecap="round" stroke-linejoin="round"></path>
            <path d="M220.559285,354.192238 C224.254992,371.569083 258.323847,440.901425 266.447145,450.932783 C275.187401,459.304135 287.148548,424.463832 282.928123,393.486985 C280.271267,373.985731 272.89951,348.779008 244.277438,346.674284 C218.455877,344.773975 218.832404,346.070122 220.559285,354.192238 L220.559285,354.192238 Z" id="Stroke-39" stroke="#FFFFFF" stroke-linecap="round" stroke-linejoin="round"></path>
            <g id="Group-5" opacity="0.400000006" transform="translate(55.000000, 0.000000)" stroke="#FFFFFF" stroke-linecap="round" stroke-linejoin="round">
                <path d="M75.061973,95.947581 C61.164402,94.8942629 45.699492,91.7187998 31.6261628,92.6558005 C27.4337027,92.9349621 14.3030529,93.0486946 11.3317179,91.5003817 C-1.73504335,84.6906482 -1.35947177,67.1538721 2.23471204,55.3037209 C4.28832813,48.5340523 9.38040107,41.1931363 15.451495,37.2176685 C19.4575918,34.5953589 27.5661357,30.0667375 32.607253,33.0793563 C37.273316,35.867095 42.3756059,44.3866933 42.7399259,44.0739289 C44.4067188,42.6432257 49.8986772,25.509683 52.6823558,21.580742 C63.0306202,6.97257775 82.3281967,-2.10017402 100.10939,0.741846085 C111.384297,2.54347229 124.50473,11.1819727 127.100364,22.6379373 C128.021187,26.7077515 129.098498,31.2195715 128.781642,35.3837319 C128.656193,37.0431925 129.332584,38.5320543 129.194202,40.3582364 C129.14635,40.9915196 129.001501,42.8913694 129.049353,42.2580861 C129.807221,32.2780592 151.917317,23.5387504 158.412222,32.8958334 C163.071948,39.6073434 161.027256,51.5104835 161.187624,51.6991761 C161.632516,52.216142 173.656238,48.1540824 176.756255,47.916278 C181.74577,47.5324308 187.985897,51.0245356 191.137647,54.733766 C196.832005,61.4362291 195.070543,82.8412027 187.490567,87.6709567 C185.958018,88.6480223 182.053574,89.4687057 180.073546,89.7814701 C175.00126,90.5853521 170.314375,93.1675968 165.265369,93.6225268 C159.086026,94.1782652 152.663545,94.6525814 146.450578,94.8671222 C140.597145,95.0700314 133.939285,92.9569332 128.189315,93.8667932 C123.186867,94.657751 117.872736,95.6722966 112.734493,96.1298115 C106.746557,96.6622864 100.489617,94.2092831 94.5016822,94.7482201 C91.4572762,95.0209196 82.0308692,96.0936239 80.1427944,95.9501658 L75.061973,95.947581 Z" id="Stroke-40"></path>
                <path d="M64.5927859,115.388084 C64.3153751,116.93252 62.2604657,122.346445 62.7358793,123.769394 C63.3116523,125.492183 65.9071571,124.087328 66.1642633,123.055981 C66.8644508,120.244979 65.2572786,118.055628 65.2572786,115.52508" id="Stroke-41"></path>
                <path d="M104.033234,132.1003 C103.746123,133.092874 101.782908,136.818906 102.319624,138.146216 C102.4399,138.446056 104.506578,138.448641 104.562189,138.338786 C104.801448,137.860592 104.807915,137.886441 105.132531,137.625373 C105.622688,137.231186 104.418634,133.709356 104.418634,132.721951" id="Stroke-42"></path>
                <path d="M130.75003,133.94716 C130.063293,135.551047 127.708211,139.763027 128.750603,141.848984 C128.952356,142.25351 131.304852,142.596 131.46522,142.276774 C132.944744,139.327483 130.321951,137.209215 130.321951,135.416636" id="Stroke-43"></path>
                <path d="M79.1380369,143.05093 C78.5084631,144.933978 78.5604533,145.011523 78.2310522,146.333664 C78.1856577,146.515894 77.8700948,147.60023 78.0886609,147.761782 C78.7323317,148.239975 80.0120427,147.30039 80.2809178,146.762745 C80.8414299,145.640929 79.5667627,144.428644 79.5667627,143.664827" id="Stroke-44"></path>
                <path d="M72.1440509,159.43875 C71.5682779,160.547641 70.6352981,161.540216 70.4294062,162.771887 C70.2664516,163.748953 69.8113427,164.388698 69.5722132,165.3425 C69.2702299,166.545738 69.4912533,169.106012 71.2867285,167.911821 C72.7509921,166.936048 73.0255577,164.698878 72.4296094,162.915345 C72.0676174,161.831009 73.0988873,160.866868 71.4720571,160.866868" id="Stroke-45"></path>
                <path d="M44.7385771,136.358806 C44.0533918,137.204046 43.1263611,138.395652 42.5455443,138.929419 C42.4922608,138.978531 42.4829491,140.753017 42.5455443,140.785327 C45.4707089,142.247048 44.6956399,138.152678 44.6956399,137.43668" id="Stroke-46"></path>
                <path d="M116.112568,160.56315 C115.847443,161.168001 112.942712,167.157051 113.969585,168.178058 C115.066295,169.268856 116.755333,167.575793 116.755333,166.311811 C116.755333,164.543788 115.877189,162.996767 115.877189,161.325675" id="Stroke-47"></path>
                <path d="M99.294617,115.155449 C98.7708343,115.933483 98.217306,116.692131 97.723269,117.489551 C96.6006928,119.297639 97.8862236,119.644006 98.9661212,118.917669 C99.2040867,118.757409 98.9661212,116.511193 98.9661212,116.09762" id="Stroke-48"></path>
            </g>
        </g>
    </g>
</svg>