<?xml version="1.0" encoding="UTF-8" standalone="no"?>
<svg width="368px" height="495px" viewBox="0 0 368 495" version="1.1" xmlns="http://www.w3.org/2000/svg" xmlns:xlink="http://www.w3.org/1999/xlink">
    <!-- Generator: Sketch 39.1 (31720) - http://www.bohemiancoding.com/sketch -->
    <title>super-penguin</title>
    <desc>Created with Sketch.</desc>
    <defs>
        <path d="M182.352015,0.831932279 C166.023575,2.90446815 145.225951,5.26706886 126.787564,14.177921 C114.096343,20.3128677 104.236957,28.3625429 90.3067992,45.9603112 C71.0278871,70.3167407 53.0328141,89.2641371 32.899561,101.17934 C22.1930423,107.515678 16.1767638,116.866888 0.429197838,116.219127 C7.31708728,132.393624 17.2593696,138.378277 28.3800688,143.823381 C32.9548251,146.064244 50.0943557,149.453344 54.8771034,150.362615 C68.3475781,152.925105 68.6558857,151.169686 87.4755651,145.847823 C94.9354681,143.737714 109.269144,146.354309 114.109859,146.261128 C126.424143,146.025168 137.113542,151.485301 143.704687,154.713587 C149.022355,157.318159 149.041877,157.956903 165.448408,156.948439 C210.177791,154.198084 197.144173,89.7646117 197.144173,89.7646117 C197.144173,89.7646117 166.930627,-6.12661817 182.352015,0.831932279 L182.352015,0.831932279 Z" id="path-1"></path>
        <path d="M17.8844833,57.8172987 L22.2646326,41.9619793 L28.0553494,46.9005963 L36.663334,0.186629781 C36.663334,0.186629781 29.0104573,12.0837972 20.5196085,16.7458757 C6.92584076,24.2109125 0.0523680478,24.0485964 0.0523680478,24.0485964 L2.60082407,55.8024309 L11.3259446,45.5209096 L16.0725745,57.8172987 L17.8844833,57.8172987 L17.8844833,57.8172987 Z" id="path-3"></path>
        <polygon id="path-5" points="1.90972949 25.7304024 0.370737333 3.48829278 37.2129716 0.488451165 29.6597911 25.7304024 1.90972949 25.7304024"></polygon>
        <path d="M181.303834,271.899567 C176.272183,277.506893 171.433316,279.783389 157.959028,285.957347 C153.54691,287.978784 137.757596,284.461935 132.720754,286.459325 C125.366723,289.376505 102.882644,289.184131 95.4024671,292.188481 C87.2780433,295.449832 75.1229443,302.457979 68.7615656,305.636669 C65.9232734,307.055432 62.4182078,313.167834 60.0409503,314.292024 C47.998482,319.983607 41.7512356,316.992783 28.5494225,314.509948 C24.985789,304.568088 23.0950959,288.124568 23.9811236,272.351352 C24.7800503,258.12014 28.3061403,236.644821 27.0822207,214.030283 C26.3463671,200.400241 22.8788451,189.894784 18.8947238,170.301129 C16.9229367,160.610258 11.4986449,145.815448 7.23069437,132.797097 C10.0629796,131.467007 12.3441256,130.263163 15.1568882,128.594914 C16.5279785,127.781831 21.3365561,126.435208 22.8593224,126.253354 C25.2170572,125.972307 28.9368719,124.935288 31.2480527,124.356661 C34.4617804,123.552595 33.6973938,122.551646 36.8510518,121.442486 C37.9353094,121.060743 39.1382047,120.869871 40.2524972,120.59183 C40.9042532,120.428011 42.2047617,120.103378 42.2047617,120.103378 C42.2047617,120.103378 40.940295,119.97563 40.3395982,119.778746 C39.1171803,119.378968 37.8752398,119.257231 36.5867452,118.650048 C33.5246935,117.205736 29.9880913,114.930305 26.4139455,113.807619 C17.9200933,111.139924 8.81803557,109.900009 2.18784504,111.885375 C-1.56500799,89.7322364 0.373740816,66.5586102 8.7759868,47.9674074 C16.1750692,31.5975301 24.7349981,21.8164834 55.0581707,11.7664128 C69.0799349,7.11786067 86.2418414,0.662790658 99.0877417,0.870194537 C125.892333,1.30454034 145.948096,17.2070074 163.970501,44.0688156 C168.209933,50.3852105 177.031215,66.4303574 181.303834,75.7054514 L181.303834,271.899563 L181.303834,271.899567 Z" id="path-7"></path>
        <path d="M25.0828858,0.12957524 C33.3892231,7.04684247 27.2771689,21.2203484 20.0677771,23.2172111 C12.5891024,25.2897469 -0.729846568,20.3721709 0.92056779,8.52460003 C1.45363159,4.6984639 3.41139284,1.95243374 6.02745799,0.12957524 L25.0828858,0.12957524 L25.0828858,0.12957524 Z" id="path-9"></path>
        <path d="M20.5367757,0.138279015 C25.9169162,5.08167597 24.3509921,14.3883338 20.5541486,18.5749375 C16.0098776,23.5841921 1.66073363,22.4690205 0.304660689,12.2491192 C-0.182428673,8.57614074 1.87093661,3.37292137 5.53107955,0.138279015 L20.5367757,0.138279015 L20.5367757,0.138279015 Z" id="path-11"></path>
        <path d="M0.755967669,34.6589058 L23.4977556,20.7494055 L55.8287572,0.425328245 L34.428935,30.2854752 L19.8620385,51.1551148 C19.8620385,51.1551148 8.05427517,58.1554621 0.755967669,57.1922662 L0.755967669,34.6589058 L0.755967669,34.6589058 Z" id="path-13"></path>
    </defs>
    <g id="Page-1" stroke="none" stroke-width="1" fill="none" fill-rule="evenodd">
        <g id="super-penguin" transform="translate(1.000000, -1.000000)">
            <g id="Stroke-1" transform="translate(0.000000, 113.000000)">
                <mask id="mask-2" fill="white">
                    <use xlink:href="#path-1"></use>
                </mask>
                <use id="Mask" stroke="#3A385A" stroke-linecap="round" stroke-linejoin="round" xlink:href="#path-1"></use>
                <path d="M188.069146,7.969331 C188.069146,7.969331 158.692071,-1.98004351 128.418456,8.75235579 C78.0336632,26.6146392 44.0746233,91.2014096 16.3362488,106.52525 C36.0165765,94.0870287 68.7958481,93.6797356 85.8027748,74.0289695 C109.382526,46.7854179 135.264897,30.532769 162.925481,24.2565472 C190.587567,17.9803255 188.069146,7.969331 188.069146,7.969331 L188.069146,7.969331 Z" stroke="#3A385A" stroke-linecap="round" stroke-linejoin="round" mask="url(#mask-2)"></path>
            </g>
            <path d="M290.815324,296.031732 C290.815324,296.031732 297.688797,296.194048 311.282565,288.729011 C319.773413,284.066932 327.42629,272.169765 327.42629,272.169765 L318.818306,318.883731 L313.027589,313.945114 L307.891631,332.536317 L302.088901,317.504045 L293.36378,327.785566 L290.815324,296.031732 Z" id="Fill-4" fill="#FFC000"></path>
            <g id="Group-7" transform="translate(290.762956, 271.983135)">
                <mask id="mask-4" fill="white">
                    <use xlink:href="#path-3"></use>
                </mask>
                <g id="Clip-6"></g>
                <path d="M38.618602,2.94149435 C37.1514002,13.5476478 6.89430418,45.0189321 -12.189832,55.8715655 C-31.2739682,66.724199 -20.8413671,28.6385344 -20.8413671,28.6385344 L31.1549447,-5.95583149 C31.1549447,-5.95583149 40.0858039,-7.66616203 38.618602,2.94149435 L38.618602,2.94149435 Z" id="Fill-5" fill="#DFA700" mask="url(#mask-4)"></path>
            </g>
            <polyline id="Fill-8" fill="#FFC000" points="166.489115 321.135116 169.1487 359.572465 175.520591 351.141046 178.426461 368.911651 186.953352 349.898126 190.583062 360.738736 203.331349 318.135274"></polyline>
            <g id="Group-11" transform="translate(166.118378, 317.646823)">
                <mask id="mask-6" fill="white">
                    <use xlink:href="#path-5"></use>
                </mask>
                <g id="Clip-10"></g>
                <path d="M52.7064429,24.9545943 C42.2603261,27.9844945 1.47902286,22.5078297 -6.94875273,1.98536612 C-14.6316643,-16.721562 9.90079149,-16.0512568 9.90079149,-16.0512568 L58.7464488,14.8940032 C58.7464488,14.8940032 63.1525596,21.9246941 52.7064429,24.9545943 L52.7064429,24.9545943 Z" id="Fill-9" fill="#DFA700" mask="url(#mask-6)"></path>
            </g>
            <g id="Group-15" transform="translate(139.087023, 9.546857)">
                <mask id="mask-8" fill="white">
                    <use xlink:href="#path-7"></use>
                </mask>
                <g id="Clip-13"></g>
                <path d="M135.318767,-12.8650522 C122.861818,-13.9682004 61.1867794,-4.16310685 48.5556282,0.0225438999 C-29.2942218,25.8262918 -6.08074591,92.7846804 10.1530841,140.959492 C13.8593832,151.956406 17.2007589,161.973412 18.8947238,170.301129 C36.8165117,258.435754 11.3559794,294.325643 20.0720894,318.63999 C34.3416411,321.324217 60.7047203,317.122035 79.4554697,314.583591 C72.9754534,311.292182 72.0038264,298.933616 71.7335128,285.713873 C71.6283909,280.516753 72.7607043,273.431956 73.1376415,267.647192 C73.6842756,259.253346 73.9185473,251.609461 77.1472924,239.883627 C78.3351703,235.570228 79.0995569,225.332292 79.8113826,221.463758 C81.7170931,211.111599 79.7152711,202.853017 79.1626301,195.251214 C78.7331319,189.332689 77.5737871,177.330317 76.614174,172.044524 C73.9230525,157.221158 70.4014678,149.799706 70.4360078,127.007823 C70.4405131,123.148308 69.375778,120.695531 69.4463599,117.743784 C69.8893738,99.125528 72.9634395,96.071581 79.6702188,89.8735115 C95.8034322,74.9659819 96.0392056,77.5435011 106.109887,69.7192649 C110.702214,66.151317 120.528111,68.3155314 140.441209,65.2690991 C157.826875,62.6104218 152.429614,47.6893659 163.89241,52.3890176 C170.788409,55.2175256 179.738791,66.3677385 180.964212,64.9715196 C185.783302,59.4783227 137.763603,-11.1426983 135.318767,-12.8650522 L135.318767,-12.8650522 Z" id="Fill-12" fill="#3A385A" mask="url(#mask-8)"></path>
            </g>
            <path d="M146.317718,142.343954 C150.585668,155.362305 156.00996,170.157115 157.981747,179.847986 C161.965868,199.441641 165.43339,209.947098 166.169244,223.57714 C167.393164,246.191678 163.867074,267.666997 163.068147,281.898209 C162.182119,297.671425 164.072812,314.114945 167.636446,324.056805 C180.838259,326.53964 187.085505,329.530464 199.127974,323.838881 C201.505231,322.714692 205.010297,316.602289 207.848589,315.183526 C214.209968,312.004836 226.365067,304.996689 234.48949,301.735338 C241.969667,298.730988 264.453747,298.923362 271.807777,296.006182 C276.844619,294.008792 292.633934,297.525641 297.046051,295.504204 C316.139198,286.755668 317.893232,285.832871 327.42629,272.169765 C335.002578,244.170241 339.890748,219.03229 338.761438,184.272602 C338.398017,173.102851 338.835023,155.78613 336.684529,143.782255 C334.036958,128.991954 327.059865,101.204342 321.688134,88.201021 C318.243138,79.8612809 307.792516,60.6704104 303.057524,53.6156726 C285.03512,26.7538644 264.979356,10.8513974 238.174765,10.4170516 C225.328865,10.2096477 208.166958,16.6647177 194.145194,21.3132699 C163.822021,31.3633405 155.262092,41.1443872 147.86301,57.5142644 C139.460764,76.1054672 137.522015,99.2790934 141.274868,121.432232 C147.905059,119.446866 157.007117,120.686781 165.500969,123.354476 C169.075115,124.477162 172.611717,126.752593 175.673769,128.196905 C176.962263,128.804088 178.204204,128.925825 179.426622,129.325603 C180.027318,129.522487 181.291785,129.650235 181.291785,129.650235 C181.291785,129.650235 179.991276,129.974868 179.339521,130.138687 C178.225228,130.416728 177.022333,130.6076 175.938075,130.989343 C172.784417,132.098503 173.548804,133.099452 170.335076,133.903518 C168.023895,134.482145 164.304081,135.519164 161.946346,135.800211 C160.423579,135.982065 155.615002,137.328688 154.243911,138.141771 C151.431149,139.81002 149.150003,141.013864 146.317718,142.343954 L146.317718,142.343954 Z" id="Stroke-16" stroke="#3A385A" stroke-linecap="round" stroke-linejoin="round"></path>
            <g id="Group-21" transform="translate(205.738642, 36.599537)">
                <mask id="mask-10" fill="white">
                    <use xlink:href="#path-9"></use>
                </mask>
                <g id="Clip-18"></g>
                <path d="M24.5820133,0.205900953 C13.6478305,0.850656491 7.28945523,7.12086653 1.26897191,14.3153765 C-4.7515114,21.5098864 5.19903049,26.0968186 7.65888374,24.9515884 C10.118737,23.8078613 9.79586247,22.3410048 9.79586247,22.3410048 C9.79586247,22.3410048 14.4617746,3.47626937 27.9308978,3.27638012 C41.4000209,3.07649088 35.3164645,-0.426831172 24.5820133,0.205900953 L24.5820133,0.205900953 Z" id="Fill-17" fill="#FFFFFF" mask="url(#mask-10)"></path>
                <path d="M24.5820133,0.205900953 C13.6478305,0.850656491 7.28945523,7.12086653 1.26897191,14.3153765 C-4.7515114,21.5098864 5.19903049,26.0968186 7.65888374,24.9515884 C10.118737,23.8078613 9.79586247,22.3410048 9.79586247,22.3410048 C9.79586247,22.3410048 14.4617746,3.47626937 27.9308978,3.27638012 C41.4000209,3.07649088 35.3164645,-0.426831172 24.5820133,0.205900953 L24.5820133,0.205900953 Z" id="Stroke-19" stroke="#FFFFFF" stroke-linecap="round" stroke-linejoin="round" mask="url(#mask-10)"></path>
                <path d="M18.9670003,1.25043498 C20.3380907,2.47532021 19.8034706,4.97017847 17.4247114,5.90950764 C13.6433252,7.40191381 11.50935,6.83831631 10.7374546,5.79979399 C11.4612942,5.44810915 12.9420118,4.15859807 14.5804122,3.18620452 C16.4095338,2.09958855 18.3963384,1.33459888 18.9670003,1.25043498 L18.9670003,1.25043498 Z" id="Fill-20" fill="#000000" mask="url(#mask-10)"></path>
            </g>
            <path d="M229.835592,35.9893487 C239.580395,42.5766763 233.283592,57.7457151 225.806419,59.816748 C218.327744,61.8892839 205.008795,56.9717079 206.659209,45.124137 C208.309624,33.278069 223.616879,31.7856629 229.835592,35.9893487 L229.835592,35.9893487 Z" id="Stroke-22" stroke="#FFFFFF" stroke-linecap="round" stroke-linejoin="round"></path>
            <g id="Group-27" transform="translate(247.212441, 20.994383)">
                <mask id="mask-12" fill="white">
                    <use xlink:href="#path-11"></use>
                </mask>
                <g id="Clip-24"></g>
                <path d="M0.755183261,12.9509859 C5.53072253,4.67737465 12.9283032,2.20806614 20.9190719,0.37148976 C28.9083388,-1.46658955 28.6170009,8.1190767 26.7593462,9.58292727 C24.9016914,11.0467778 23.8790052,10.2126535 23.8790052,10.2126535 C23.8790052,10.2126535 7.2712414,6.35614373 1.8529566,16.7834489 C-3.56382647,27.212257 -3.93325498,21.0743045 0.755183261,12.9509859 L0.755183261,12.9509859 Z" id="Fill-23" fill="#FFFFFF" mask="url(#mask-12)"></path>
                <path d="M0.755183261,12.9509859 C5.53072253,4.67737465 12.9283032,2.20806614 20.9190719,0.37148976 C28.9083388,-1.46658955 28.6170009,8.1190767 26.7593462,9.58292727 C24.9016914,11.0467778 23.8790052,10.2126535 23.8790052,10.2126535 C23.8790052,10.2126535 7.2712414,6.35614373 1.8529566,16.7834489 C-3.56382647,27.212257 -3.93325498,21.0743045 0.755183261,12.9509859 L0.755183261,12.9509859 Z" id="Stroke-25" stroke="#FFFFFF" stroke-linecap="round" stroke-linejoin="round" mask="url(#mask-12)"></path>
                <path d="M17.3254035,1.64597157 C18.3105462,2.92195631 17.4650655,4.99749803 15.280031,5.43484969 C11.806502,6.1292018 10.0629796,5.30559799 9.56289956,4.28511079 C10.2371817,4.0942391 11.707387,3.21202115 13.2631916,2.62888561 C14.9992053,1.97661544 16.8223199,1.62793645 17.3254035,1.64597157 L17.3254035,1.64597157 Z" id="Fill-26" fill="#000000" mask="url(#mask-12)"></path>
            </g>
            <path d="M247.517101,33.2435017 C248.873174,43.463403 263.222318,44.5785746 267.766589,39.56932 C272.31086,34.5585625 273.659425,22.2135229 263.728405,18.7928619 C253.798888,15.3722008 246.652098,26.7208 247.517101,33.2435017 L247.517101,33.2435017 Z" id="Stroke-28" stroke="#FFFFFF" stroke-linecap="round" stroke-linejoin="round"></path>
            <path d="M244.569182,42.2114651 L278.79388,21.2787026 L311.124882,0.954625305 L289.72506,30.8147722 L275.158163,51.6844119 C275.158163,51.6844119 259.879441,60.7425509 253.339355,56.8334386 C246.800771,52.9258293 244.569182,42.2114651 244.569182,42.2114651 L244.569182,42.2114651 Z" id="Fill-29" fill="#FFC000"></path>
            <g id="Group-32" transform="translate(255.296125, 0.529297)">
                <mask id="mask-14" fill="white">
                    <use xlink:href="#path-13"></use>
                </mask>
                <g id="Clip-31"></g>
                <path d="M60.7454602,-3.68968496 C60.7454602,-3.68968496 -7.86462238,51.3264484 1.66393004,62.3353862 C11.1924824,73.344324 53.229242,28.2490095 53.229242,28.2490095 L72.2878485,-0.0480936532 L60.7454602,-3.68968496 Z" id="Fill-30" fill="#DFA700" mask="url(#mask-14)"></path>
            </g>
            <path d="M320.117312,84.572956 L327.220551,66.1305429 L334.34932,48.0788908 L341.934619,24.6016734 C341.934619,24.6016734 366.4025,35.246903 366.991182,61.8922898 C367.362113,78.6980157 353.858449,110.581102 332.5217,122.685673" id="Fill-33" fill="#3A385A"></path>
            <path d="M195.318054,169.948208 C195.318054,169.948208 185.926161,183.139395 181.710771,206.484355 C179.669904,217.787867 174.738183,237.573896 173.841643,244.24689 C155.822242,232.588688 134.058998,203.936894 151.021173,177.111156 C153.634204,172.978108 165.637627,159.086557 169.770421,155.658381" id="Fill-35" fill="#3A385A"></path>
            <path d="M195.318054,169.948208 C195.318054,169.948208 185.926161,183.139395 181.710771,206.484355 C179.669904,217.787867 174.738183,237.573896 173.841643,244.24689 C155.822242,232.588688 134.058998,203.936894 151.021173,177.111156 C153.634204,172.978108 165.637627,159.086557 169.770421,155.658381" id="Stroke-36" stroke="#FFFFFF" stroke-linecap="round" stroke-linejoin="round"></path>
            <path d="M280.474329,146.688915 C275.156661,133.363967 271.635076,126.916412 269.909575,127.349255 C269.70684,127.398851 269.478575,127.480009 269.224781,127.591226 C268.41384,127.842215 267.497778,127.761057 266.476593,127.349255 C265.14605,126.630856 263.603761,126.205527 261.846723,126.071767 C260.091186,125.939509 258.376197,126.152925 256.703257,126.71502 C252.798728,128.027075 250.355394,130.571529 249.374756,134.349887 L249.37776,134.563303 C249.637561,135.167479 249.895861,135.651422 250.15416,136.016633 L249.849307,136.093282 C251.133296,137.252038 252.36923,138.863176 253.560111,140.9297 C254.74949,142.994721 255.655041,144.605859 256.276762,145.763112 C256.898483,146.920366 257.777002,148.358666 258.913821,150.08102 C260.049138,151.801871 261.354151,153.933021 262.828862,156.475973 C264.303572,159.018925 265.839854,161.522801 267.440711,163.987601 C271.262644,169.904623 275.045532,174.353286 278.787873,177.332087 C280.686075,179.004844 283.233029,179.418149 286.430238,178.570498 C287.799826,178.179737 289.115352,177.515444 290.378317,176.57912 C291.641282,175.642797 292.62192,174.441959 293.32023,172.978108 L294.874533,168.078567 C295.539804,168.436264 296.307194,168.912692 297.178205,169.506348 C298.047713,170.100004 298.969783,170.705683 299.94141,171.321883 C302.194023,172.76319 303.930036,173.37939 305.149451,173.16898 C306.367363,172.960073 307.40807,172.710587 308.27007,172.423528 C309.13207,172.136469 309.943011,171.754726 310.70139,171.278298 C312.420885,170.227752 313.524665,168.75789 314.015735,166.868711 C314.799644,158.50793 314.268028,148.209877 312.419383,135.973048 C311.932819,132.992744 311.497314,130.045505 311.112868,127.134336 C310.208819,123.111001 308.555401,120.470359 306.152614,119.209404 C304.107242,118.098741 302.123441,118.116776 300.201211,119.266515 C299.340713,119.768493 298.685953,120.410242 298.235431,121.190261 C297.784908,121.971783 297.640741,122.819434 297.802929,123.733213 C297.729344,126.66392 297.775898,128.825129 297.941089,130.215336 C298.167853,132.594469 298.260961,134.360408 298.221915,135.516158 C298.18287,136.671909 298.203894,137.609735 298.287992,138.328134 C298.370588,139.048036 298.427654,139.725856 298.45919,140.361594 C298.490727,140.998835 298.471204,141.529368 298.399121,141.953193 C298.327037,142.377018 298.137818,142.507773 297.829961,142.345457 C296.640581,140.304483 295.634414,138.861673 294.812961,138.017028 C293.990007,137.172383 293.117494,136.293171 292.192421,135.377889 C290.75976,134.543765 289.511812,134.40249 288.450081,134.954064 C287.891433,135.190023 287.310259,135.514655 286.703555,135.92796 C286.096851,136.342768 285.287412,136.772605 284.275238,137.215968 C283.620479,137.905812 283.193984,138.585134 282.997256,139.25544 C282.84558,139.435791 282.695406,139.605622 282.54373,139.761926 C282.393556,139.919733 282.280925,140.091067 282.205838,140.275927 C282.130751,140.46229 282.007608,140.863571 281.836409,141.479771 C281.663709,142.094468 281.478995,142.749744 281.282267,143.444096 C281.085538,144.136945 280.91434,144.801239 280.767169,145.433971 C280.6215,146.068206 280.523887,146.48602 280.474329,146.688915 L280.474329,146.688915 Z M278.938047,177.079595 C278.938047,177.174279 278.926033,177.189309 278.900504,177.124683 C278.873472,177.060057 278.859957,176.978899 278.859957,176.884215 L278.938047,177.079595 Z" id="Fill-37" fill="#FC194E"></path>
            <g id="Group-16" opacity="0.300000012" transform="translate(70.434343, 292.944285)" stroke="#29274A" stroke-linecap="round" stroke-linejoin="round">
                <path d="M47.9539782,22.8854997 C45.0195745,32.9656288 42.3674983,42.9480677 39.9729708,53.1409164 C37.1539009,65.137277 30.2505435,76.2303787 28.2934735,88.2072012 C26.5241212,99.0342849 16.0565295,105.466811 16.0565295,119.935486" id="Stroke-38"></path>
                <path d="M82.0780596,88.4040846 C72.9925211,114.663971 65.1864666,142.695807 51.4860752,166.887216 C45.4685954,177.50945 35.7954252,189.996516 34.2447265,200.84404 C33.942576,202.957155 35.1675469,201.914124 36.4679052,200.286304" id="Stroke-39"></path>
                <path d="M172.933445,52.7757052 C166.873916,66.6402036 161.931684,80.4220411 156.803235,94.5270079 C152.054727,107.588943 144.897425,119.509106 142.898607,133.491133 C141.802335,141.152151 134.96941,157.62017 134.916849,157.62017" id="Stroke-40"></path>
                <path d="M9.9675668,0.258938813 C8.09654656,10.460805 0.511248174,25.6839492 0.511248174,34.6038189" id="Stroke-41"></path>
                <path d="M231.110927,55.5891839 C228.970944,59.2292723 225.351746,69.2011907 221.654458,72.8457878 C215.428236,78.9807345 201.633235,83.7134505 201.633235,93.4674446" id="Stroke-42"></path>
            </g>
        </g>
    </g>
</svg>