<?xml version="1.0" encoding="UTF-8" standalone="no"?>
<svg width="290px" height="160px" viewBox="0 0 290 160" version="1.1" xmlns="http://www.w3.org/2000/svg" xmlns:xlink="http://www.w3.org/1999/xlink">
    <!-- Generator: Sketch 39.1 (31720) - http://www.bohemiancoding.com/sketch -->
    <title>wdio-logo-footer</title>
    <desc>Created with Sketch.</desc>
    <defs></defs>
    <g id="Page-1" stroke="none" stroke-width="1" fill="none" fill-rule="evenodd" opacity="0.200000003">
        <g id="Home" transform="translate(-653.000000, -7641.000000)" fill="#FFFFFF">
            <g id="wdio_logo_full" transform="translate(660.000000, 7643.000000)">
                <path d="M7.53028909,66.1370196 L72.7912618,66.1370196 L72.7912618,156.519252 C60.7082618,144.385101 48.6252618,132.250951 36.5422618,120.116801 L0.293261818,156.519252 L0.293261818,66.1370196 L7.53028909,66.1370196" id="Fill-1"></path>
                <path d="M36.5422618,0.480748366 C52.6108636,0.480748366 65.6564164,13.5815261 65.6564164,29.7181503 C65.6564164,45.8552876 52.6108636,58.9560654 36.5422618,58.9560654 C20.47366,58.9560654 7.42759636,45.8552876 7.42759636,29.7181503 C7.42759636,13.5815261 20.47366,0.480748366 36.5422618,0.480748366 Z M25.6624527,29.7181503 L36.5422618,40.6440163 L47.42156,29.7181503 L25.6624527,29.7181503 Z" id="Combined-Shape"></path>
                <path d="M100.677702,53.3968572 C100.760469,53.7313801 101.093582,53.9822722 101.426695,53.9822722 L102.09292,53.9822722 C102.5088,53.9822722 102.675356,53.773452 102.800529,53.5225598 L110.167838,34.5866154 L110.376289,34.5866154 L117.826876,53.5225598 C117.910155,53.773452 118.159989,53.9822722 118.534485,53.9822722 L119.200711,53.9822722 C119.533824,53.9822722 119.866936,53.7313801 119.949704,53.3968572 L127.817193,25.306684 C127.983749,24.721269 127.650636,24.3031154 127.067689,24.3031154 L123.238425,24.3031154 C122.905313,24.3031154 122.5722,24.5955663 122.488922,24.8885304 L118.243267,41.5669585 L118.076711,41.5669585 L111.417011,24.3451873 C111.333733,24.0942951 111.125282,23.8849618 110.708891,23.8849618 L109.959898,23.8849618 C109.543507,23.8849618 109.335567,24.0942951 109.252289,24.3451873 L102.633973,41.5669585 L102.467416,41.5669585 L98.1384836,24.8885304 C98.0552055,24.5955663 97.7220927,24.3031154 97.38898,24.3031154 L93.5597164,24.3031154 C92.9767691,24.3031154 92.6436564,24.721269 92.8102127,25.306684 L100.677702,53.3968572" id="Fill-4"></path>
                <path d="M134.352231,52.7698833 C134.352231,53.1880369 134.685344,53.5641186 135.143118,53.5641186 L152.084864,53.5641186 C152.542638,53.5641186 152.875751,53.1880369 152.875751,52.7698833 L152.875751,49.34205 C152.875751,48.9244095 152.542638,48.5478147 152.084864,48.5478147 L139.76378,48.5478147 L139.76378,41.2329487 L150.044804,41.2329487 C150.461195,41.2329487 150.835691,40.8984258 150.835691,40.4387134 L150.835691,36.9688082 C150.835691,36.5511677 150.461195,36.1745729 150.044804,36.1745729 L139.76378,36.1745729 L139.76378,29.3194193 L152.084864,29.3194193 C152.542638,29.3194193 152.875751,28.9433376 152.875751,28.525184 L152.875751,25.0973507 C152.875751,24.6791971 152.542638,24.3031154 152.084864,24.3031154 L135.143118,24.3031154 C134.685344,24.3031154 134.352231,24.6791971 134.352231,25.0973507 L134.352231,52.7698833" id="Fill-5"></path>
                <path d="M160.492895,52.7698833 C160.492895,53.1880369 160.826007,53.5641186 161.283782,53.5641186 L171.357376,53.5641186 C176.435302,53.5641186 180.431633,50.1783572 180.431633,45.4965761 C180.431633,41.6505892 177.226189,39.393586 175.020084,38.6829814 C176.976355,37.7630435 179.598851,35.255148 179.598851,32.036648 C179.598851,27.647318 175.769587,24.3031154 170.815813,24.3031154 L161.283782,24.3031154 C160.826007,24.3031154 160.492895,24.6791971 160.492895,25.0973507 L160.492895,52.7698833 L160.492895,52.7698833 Z M165.862549,36.5927265 L165.862549,29.2773474 L170.316655,29.2773474 C172.439482,29.2773474 173.896084,30.7406284 173.896084,32.8308833 C173.896084,34.9206252 172.439482,36.5927265 170.316655,36.5927265 L165.862549,36.5927265 L165.862549,36.5927265 Z M165.862549,48.6314454 L165.862549,41.1908768 L170.399933,41.1908768 C172.564144,41.1908768 174.645587,42.7377886 174.645587,44.8275304 C174.645587,47.001416 172.980535,48.6314454 170.899091,48.6314454 L165.862549,48.6314454 L165.862549,48.6314454 Z" id="Fill-6"></path>
                <path d="M186.55028,41.0236154 L212.149891,41.0236154 C212.607665,41.0236154 212.940778,40.6896056 212.940778,40.271452 L212.940778,38.7245402 C212.940778,38.2648278 212.607665,37.9303049 212.149891,37.9303049 L186.55028,37.9303049 C186.092505,37.9303049 185.759393,38.2648278 185.759393,38.7245402 L185.759393,40.271452 C185.759393,40.6896056 186.092505,41.0236154 186.55028,41.0236154" id="Fill-7"></path>
                <path d="M94.3087091,82.8251219 L119.90832,82.8251219 C120.366095,82.8251219 120.699207,82.490599 120.699207,82.0729585 L120.699207,80.5260467 C120.699207,80.0663343 120.366095,79.7318114 119.90832,79.7318114 L94.3087091,79.7318114 C93.8509345,79.7318114 93.5178218,80.0663343 93.5178218,80.5260467 L93.5178218,82.0729585 C93.5178218,82.490599 93.8509345,82.8251219 94.3087091,82.8251219" id="Fill-8"></path>
                <path d="M127.359418,94.5713899 C127.359418,94.9895435 127.69202,95.3656252 128.108411,95.3656252 L137.973555,95.3656252 C146.0076,95.3656252 152.584022,88.8029226 152.584022,80.6933082 C152.584022,72.6673245 146.0076,66.1046219 137.973555,66.1046219 L128.108411,66.1046219 C127.69202,66.1046219 127.359418,66.4807036 127.359418,66.8988572 L127.359418,94.5713899 L127.359418,94.5713899 Z M132.729073,90.2656905 L132.729073,71.1624846 L137.474396,71.1624846 C142.885435,71.1624846 146.839871,75.2593637 146.839871,80.6933082 C146.839871,86.1693245 142.885435,90.2656905 137.474396,90.2656905 L132.729073,90.2656905 L132.729073,90.2656905 Z" id="Fill-9"></path>
                <path d="M159.743902,94.5713899 C159.743902,94.9895435 160.076504,95.3656252 160.534789,95.3656252 L177.476024,95.3656252 C177.933798,95.3656252 178.266911,94.9895435 178.266911,94.5713899 L178.266911,91.1435565 C178.266911,90.725916 177.933798,90.3493212 177.476024,90.3493212 L165.15494,90.3493212 L165.15494,83.0344552 L175.436475,83.0344552 C175.852865,83.0344552 176.227362,82.6999324 176.227362,82.2402199 L176.227362,78.7703147 C176.227362,78.3526742 175.852865,77.9760794 175.436475,77.9760794 L165.15494,77.9760794 L165.15494,71.1209258 L177.476024,71.1209258 C177.933798,71.1209258 178.266911,70.7448441 178.266911,70.3266905 L178.266911,66.8988572 C178.266911,66.4807036 177.933798,66.1046219 177.476024,66.1046219 L160.534789,66.1046219 C160.076504,66.1046219 159.743902,66.4807036 159.743902,66.8988572 L159.743902,94.5713899" id="Fill-10"></path>
                <path d="M184.386069,92.5232069 C185.21834,93.3174422 188.298611,95.7837788 193.543604,95.7837788 C199.412416,95.7837788 203.117018,91.8126023 203.117018,87.5069029 C203.117018,82.1145173 198.454973,79.6902526 194.417769,78.0597101 C191.045769,76.6805729 189.505889,75.3429944 189.505889,73.3779291 C189.505889,72.0403507 190.795935,70.4518801 193.168596,70.4518801 C195.45798,70.4518801 198.621529,72.542135 198.954642,72.7509552 C199.454311,73.0854781 200.078642,72.7509552 200.411755,72.249684 L201.993529,69.8669781 C202.284747,69.4488245 202.159575,68.7382199 201.743695,68.4873278 C200.910913,67.8603539 197.664085,65.6864683 193.418431,65.6864683 C186.800115,65.6864683 184.052956,69.9921677 184.052956,73.712452 C184.052956,78.6451252 187.965498,81.1530206 191.878551,82.7414912 C195.374702,84.1627003 197.164927,85.6259814 197.164927,87.7577951 C197.164927,89.555086 195.541258,90.9762951 193.377047,90.9762951 C190.671273,90.9762951 187.299784,88.5104716 187.091333,88.384769 C186.716836,88.092318 186.009227,88.092318 185.676115,88.6772199 L184.177618,91.2692592 C183.803122,91.9377918 184.011062,92.1471252 184.386069,92.5232069" id="Fill-11"></path>
                <path d="M210.110342,94.5713899 C210.110342,94.9895435 210.484838,95.3656252 210.901229,95.3656252 L214.772387,95.3656252 C215.188778,95.3656252 215.563275,94.9895435 215.563275,94.5713899 L215.563275,66.8988572 C215.563275,66.4807036 215.188778,66.1046219 214.772387,66.1046219 L210.901229,66.1046219 C210.484838,66.1046219 210.110342,66.4807036 210.110342,66.8988572 L210.110342,94.5713899" id="Fill-12"></path>
                <path d="M222.722644,80.7769389 C222.722644,89.1374454 229.382855,95.7417069 237.666224,95.7417069 C243.701593,95.7417069 247.989142,93.0249912 247.989142,93.0249912 C248.155698,92.8992886 248.322255,92.6904683 248.322255,92.3559454 L248.322255,81.6548049 C248.322255,81.2366513 247.989142,80.8605696 247.572751,80.8605696 L239.581111,80.8605696 C239.122825,80.8605696 238.790224,81.1950925 238.790224,81.6548049 L238.790224,84.9569356 C238.790224,85.3750892 239.122825,85.7096121 239.581111,85.7096121 L242.910705,85.7096121 L242.910705,89.262635 C242.078435,89.5971578 240.28872,90.3077624 237.957442,90.3077624 C232.71296,90.3077624 228.591967,85.9184324 228.591967,80.7353801 C228.591967,75.5097428 232.71296,71.0372951 237.916058,71.0372951 C240.205442,71.0372951 242.411547,71.8730892 244.201262,73.4615598 C244.575758,73.7960827 244.950765,73.7960827 245.283367,73.4615598 L247.86448,70.7448441 C248.197593,70.4103212 248.155698,69.9085369 247.822585,69.5740141 C244.992149,67.1497494 241.412209,65.6864683 237.666224,65.6864683 C229.382855,65.6864683 222.722644,72.4164324 222.722644,80.7769389" id="Fill-13"></path>
                <path d="M256.105955,94.5713899 C256.105955,94.9895435 256.480962,95.3656252 256.896842,95.3656252 L260.684722,95.3656252 C261.143007,95.3656252 261.475609,94.9895435 261.475609,94.5713899 L261.475609,76.5969422 L261.517504,76.5969422 L278.917024,95.7837788 L279.915851,95.7837788 C280.332242,95.7837788 280.706738,95.4492559 280.706738,95.0311023 L280.706738,66.8988572 C280.706738,66.4807036 280.332242,66.1046219 279.915851,66.1046219 L276.086076,66.1046219 C275.628302,66.1046219 275.295189,66.4807036 275.295189,66.8988572 L275.295189,84.1627003 L275.253805,84.1627003 L257.937564,65.6864683 L256.896842,65.6864683 C256.480962,65.6864683 256.105955,66.0209912 256.105955,66.4391448 L256.105955,94.5713899" id="Fill-14"></path>
                <path d="M112.832229,134.157452 C112.832229,136.038374 114.372109,137.585285 116.245102,137.585285 C118.118605,137.585285 119.70038,136.038374 119.70038,134.157452 C119.70038,132.27653 118.118605,130.68806 116.245102,130.68806 C114.372109,130.68806 112.832229,132.27653 112.832229,134.157452" id="Fill-15"></path>
                <path d="M125.735749,136.372896 C125.735749,136.79105 126.110245,137.167132 126.526636,137.167132 L130.397795,137.167132 C130.814185,137.167132 131.188682,136.79105 131.188682,136.372896 L131.188682,108.700364 C131.188682,108.28221 130.814185,107.906128 130.397795,107.906128 L126.526636,107.906128 C126.110245,107.906128 125.735749,108.28221 125.735749,108.700364 L125.735749,136.372896" id="Fill-16"></path>
                <path d="M138.348562,122.578445 C138.348562,130.938952 144.966878,137.585285 153.291631,137.585285 C161.616895,137.585285 168.277105,130.938952 168.277105,122.578445 C168.277105,114.217939 161.616895,107.487975 153.291631,107.487975 C144.966878,107.487975 138.348562,114.217939 138.348562,122.578445 L138.348562,122.578445 Z M143.7596,122.578445 C143.7596,117.311249 148.047149,112.922432 153.291631,112.922432 C158.536624,112.922432 162.865556,117.311249 162.865556,122.578445 C162.865556,127.845642 158.536624,132.150828 153.291631,132.150828 C148.047149,132.150828 143.7596,127.845642 143.7596,122.578445 L143.7596,122.578445 Z" id="Fill-17"></path>
            </g>
        </g>
    </g>
</svg>