<?xml version="1.0" encoding="UTF-8" standalone="no"?>
<svg viewBox="0 0 200 38" version="1.1" xmlns="http://www.w3.org/2000/svg" xmlns:xlink="http://www.w3.org/1999/xlink">

    <g id="logo">
        <polyline fill="#29274A" points="0 0 0 37.1233512 14.8493048 22.2740463 29.6986096 37.1233512 29.6986096 0"></polyline>
        <g fill="#524E81">
            <path
                d="M45.0980392,22.9240642 C45.14082,23.0945098 45.3112299,23.2223529 45.4816399,23.2223529 L45.8224599,23.2223529 C46.0356506,23.2223529 46.1208556,23.1158289 46.1846702,22.9879857 L49.9557932,13.3366845 L50.0620321,13.3366845 L53.8759358,22.9879857 C53.9183601,23.1158289 54.0463458,23.2223529 54.2381462,23.2223529 L54.5789661,23.2223529 C54.7493761,23.2223529 54.9197861,23.0945098 54.9622103,22.9240642 L58.9889483,8.60691622 C59.0741533,8.3086631 58.9037433,8.09561497 58.6057041,8.09561497 L56.6456328,8.09561497 C56.4752228,8.09561497 56.3044563,8.24474153 56.2620321,8.39386809 L54.0887701,16.8946881 L54.0035651,16.8946881 L50.5946524,8.1168984 C50.5522282,7.98909091 50.4456328,7.88256684 50.2324421,7.88256684 L49.8491979,7.88256684 C49.6360071,7.88256684 49.5294118,7.98909091 49.4869875,8.1168984 L46.0994652,16.8946881 L46.0142602,16.8946881 L43.798574,8.39386809 C43.7557932,8.24474153 43.5853832,8.09561497 43.4149733,8.09561497 L41.454902,8.09561497 C41.1565062,8.09561497 40.9860963,8.3086631 41.0713012,8.60691622 L45.0980392,22.9240642 Z"></path>
            <path
                d="M62.3340463,22.604492 C62.3340463,22.8175401 62.5044563,23.0093048 62.7386809,23.0093048 L71.4099822,23.0093048 C71.6445633,23.0093048 71.8149733,22.8175401 71.8149733,22.604492 L71.8149733,20.8574688 C71.8149733,20.6444207 71.6445633,20.452656 71.4099822,20.452656 L65.1037433,20.452656 L65.1037433,16.7242424 L70.3661319,16.7242424 C70.5789661,16.7242424 70.7707665,16.5537968 70.7707665,16.3194296 L70.7707665,14.5510873 C70.7707665,14.3380392 70.5789661,14.1463102 70.3661319,14.1463102 L65.1037433,14.1463102 L65.1037433,10.6522282 L71.4099822,10.6522282 C71.6445633,10.6522282 71.8149733,10.4604991 71.8149733,10.247451 L71.8149733,8.50039216 C71.8149733,8.28734403 71.6445633,8.09561497 71.4099822,8.09561497 L62.7386809,8.09561497 C62.5044563,8.09561497 62.3340463,8.28734403 62.3340463,8.50039216 L62.3340463,22.604492 Z"></path>
            <path
                d="M75.7137255,22.604492 C75.7137255,22.8175401 75.8841355,23.0093048 76.1183601,23.0093048 L81.2745098,23.0093048 C83.8737968,23.0093048 85.9190731,21.2835651 85.9190731,18.8973619 C85.9190731,16.9372906 84.2784314,15.7868093 83.1493761,15.4246346 C84.1504456,14.9559002 85.4926916,13.6775758 85.4926916,12.0370766 C85.4926916,9.80003565 83.5326203,8.09561497 80.9975045,8.09561497 L76.1183601,8.09561497 C75.8841355,8.09561497 75.7137255,8.28734403 75.7137255,8.50039216 L75.7137255,22.604492 Z M78.4620321,14.3593583 L78.4620321,10.6309447 L80.7418895,10.6309447 C81.828164,10.6309447 82.573975,11.3766132 82.573975,12.4418895 C82.573975,13.5071301 81.828164,14.3593583 80.7418895,14.3593583 L78.4620321,14.3593583 Z M78.4620321,20.4952585 L78.4620321,16.7029234 L80.7843137,16.7029234 C81.8923351,16.7029234 82.9575758,17.4912299 82.9575758,18.5565062 C82.9575758,19.6643494 82.1051693,20.4952585 81.0399287,20.4952585 L78.4620321,20.4952585 Z"></path>
            <path
                d="M89.7112299,22.604492 C89.7112299,22.8175401 89.8816399,23.0093048 90.0948307,23.0093048 L95.1440285,23.0093048 C99.2559715,23.0093048 102.622103,19.6643494 102.622103,15.5311586 C102.622103,11.4405348 99.2559715,8.09561497 95.1440285,8.09561497 L90.0948307,8.09561497 C89.8816399,8.09561497 89.7112299,8.28734403 89.7112299,8.50039216 L89.7112299,22.604492 Z M92.4595365,20.4100535 L92.4595365,10.6735472 L94.8884135,10.6735472 C97.6581105,10.6735472 99.6819964,12.7614617 99.6819964,15.5311586 C99.6819964,18.322139 97.6581105,20.4100535 94.8884135,20.4100535 L92.4595365,20.4100535 Z"></path>
            <path
                d="M106.286631,22.604492 C106.286631,22.8175401 106.457041,23.0093048 106.691622,23.0093048 L115.362923,23.0093048 C115.597148,23.0093048 115.767558,22.8175401 115.767558,22.604492 L115.767558,20.8574688 C115.767558,20.6444207 115.597148,20.452656 115.362923,20.452656 L109.056328,20.452656 L109.056328,16.7242424 L114.318717,16.7242424 C114.531907,16.7242424 114.723708,16.5537968 114.723708,16.3194296 L114.723708,14.5510873 C114.723708,14.3380392 114.531907,14.1463102 114.318717,14.1463102 L109.056328,14.1463102 L109.056328,10.6522282 L115.362923,10.6522282 C115.597148,10.6522282 115.767558,10.4604991 115.767558,10.247451 L115.767558,8.50039216 C115.767558,8.28734403 115.597148,8.09561497 115.362923,8.09561497 L106.691622,8.09561497 C106.457041,8.09561497 106.286631,8.28734403 106.286631,8.50039216 L106.286631,22.604492 Z"></path>
            <path
                d="M118.899465,21.5605348 C119.32549,21.9653476 120.902317,23.2223529 123.586809,23.2223529 C126.590731,23.2223529 128.486988,21.1983601 128.486988,19.0038859 C128.486988,16.255508 126.100535,15.0198217 124.034225,14.1889127 C122.308378,13.4858467 121.520143,12.8040642 121.520143,11.8027094 C121.520143,11.1209626 122.180392,10.3113369 123.395009,10.3113369 C124.566845,10.3113369 126.18574,11.3766132 126.35615,11.4831373 C126.612121,11.6535829 126.931551,11.4831373 127.101961,11.2274866 L127.911586,10.0130838 C128.060606,9.80003565 127.996791,9.43782531 127.783601,9.31001783 C127.357576,8.99044563 125.6959,7.88256684 123.522638,7.88256684 C120.135116,7.88256684 118.729055,10.0770053 118.729055,11.9731551 C118.729055,14.4872014 120.731907,15.7654902 122.734403,16.5751159 C124.524064,17.2994652 125.440285,18.0451693 125.440285,19.1317291 C125.440285,20.0478431 124.609269,20.7722282 123.501248,20.7722282 C122.116578,20.7722282 120.390731,19.5152228 120.284492,19.4513012 C120.092692,19.3021747 119.730481,19.3021747 119.560071,19.6004635 L118.79287,20.9213904 C118.60107,21.262246 118.707665,21.3687701 118.899465,21.5605348 L118.899465,21.5605348 Z"></path>
            <path
                d="M132.06631,22.604492 C132.06631,22.8175401 132.257754,23.0093048 132.470945,23.0093048 L134.452406,23.0093048 C134.665241,23.0093048 134.857041,22.8175401 134.857041,22.604492 L134.857041,8.50039216 C134.857041,8.28734403 134.665241,8.09561497 134.452406,8.09561497 L132.470945,8.09561497 C132.257754,8.09561497 132.06631,8.28734403 132.06631,8.50039216 L132.06631,22.604492 Z"></path>
            <path
                d="M138.521569,15.5737611 C138.521569,19.834795 141.930481,23.2010339 146.170053,23.2010339 C149.259537,23.2010339 151.453832,21.8161854 151.453832,21.8161854 C151.539037,21.7522995 151.624242,21.6457398 151.624242,21.4753298 L151.624242,16.0211765 C151.624242,15.8081283 151.453832,15.6163636 151.240998,15.6163636 L147.150089,15.6163636 C146.915865,15.6163636 146.745455,15.7868093 146.745455,16.0211765 L146.745455,17.7042781 C146.745455,17.9173262 146.915865,18.0877718 147.150089,18.0877718 L148.854545,18.0877718 L148.854545,19.8987166 C148.42852,20.0691622 147.512299,20.4313725 146.31943,20.4313725 C143.634938,20.4313725 141.525847,18.1942959 141.525847,15.5524421 C141.525847,12.8893048 143.634938,10.6096257 146.298039,10.6096257 C147.469875,10.6096257 148.59893,11.0357219 149.515152,11.8453476 C149.706952,12.0157932 149.898752,12.0157932 150.069162,11.8453476 L151.390018,10.4604991 C151.560428,10.2900535 151.539037,10.0344029 151.368627,9.86395722 C149.919786,8.62823529 148.087701,7.88256684 146.170053,7.88256684 C141.930481,7.88256684 138.521569,11.3126916 138.521569,15.5737611 L138.521569,15.5737611 Z"></path>
            <path
                d="M155.608556,22.604492 C155.608556,22.8175401 155.800357,23.0093048 156.013191,23.0093048 L157.951872,23.0093048 C158.186453,23.0093048 158.356863,22.8175401 158.356863,22.604492 L158.356863,13.4432442 L158.378253,13.4432442 L167.283779,23.2223529 L167.795009,23.2223529 C168.0082,23.2223529 168.2,23.0519073 168.2,22.8388592 L168.2,8.50039216 C168.2,8.28734403 168.0082,8.09561497 167.795009,8.09561497 L165.834938,8.09561497 C165.600713,8.09561497 165.430303,8.28734403 165.430303,8.50039216 L165.430303,17.2994652 L165.408913,17.2994652 L156.545811,7.88256684 L156.013191,7.88256684 C155.800357,7.88256684 155.608556,8.05301248 155.608556,8.26606061 L155.608556,22.604492 Z"></path>
            <path
                d="M171.417112,21.4753298 C171.417112,22.4340463 172.205348,23.2223529 173.163993,23.2223529 C174.122638,23.2223529 174.932264,22.4340463 174.932264,21.4753298 C174.932264,20.5165775 174.122638,19.7069875 173.163993,19.7069875 C172.205348,19.7069875 171.417112,20.5165775 171.417112,21.4753298 L171.417112,21.4753298 Z"></path>
            <path
                d="M178.021747,22.604492 C178.021747,22.8175401 178.213191,23.0093048 178.426381,23.0093048 L180.407843,23.0093048 C180.620677,23.0093048 180.812478,22.8175401 180.812478,22.604492 L180.812478,8.50039216 C180.812478,8.28734403 180.620677,8.09561497 180.407843,8.09561497 L178.426381,8.09561497 C178.213191,8.09561497 178.021747,8.28734403 178.021747,8.50039216 L178.021747,22.604492 Z"></path>
            <path
                d="M184.477005,15.5737611 C184.477005,19.834795 187.864528,23.2223529 192.125847,23.2223529 C196.386809,23.2223529 199.795722,19.834795 199.795722,15.5737611 C199.795722,11.3126916 196.386809,7.88256684 192.125847,7.88256684 C187.864528,7.88256684 184.477005,11.3126916 184.477005,15.5737611 L184.477005,15.5737611 Z M187.246702,15.5737611 C187.246702,12.8893048 189.441355,10.6522282 192.125847,10.6522282 C194.809982,10.6522282 197.026025,12.8893048 197.026025,15.5737611 C197.026025,18.2582175 194.809982,20.452656 192.125847,20.452656 C189.441355,20.452656 187.246702,18.2582175 187.246702,15.5737611 L187.246702,15.5737611 Z"></path>
        </g>

        <polygon fill="#FFC000" points="7.42467023 14.8493761 14.8493048 22.2740463 22.273975 14.8493761"></polygon>
    </g>

</svg>
